<mxfile host="app.diagrams.net" agent="Mozilla/5.0 (Macintosh; Intel Mac OS X 10_15_7) AppleWebKit/537.36 (KHTML, like Gecko) Chrome/133.0.0.0 Safari/537.36" version="26.0.15">
  <diagram name="Page-1" id="iCsIxYMIYDOGQi9OmvnT">
    <mxGraphModel dx="855" dy="544" grid="1" gridSize="10" guides="1" tooltips="1" connect="1" arrows="1" fold="1" page="1" pageScale="1" pageWidth="850" pageHeight="1100" math="0" shadow="0">
      <root>
        <mxCell id="0" />
        <mxCell id="1" parent="0" />
        <mxCell id="CVH85tf8ODWWwL3qsKK9-14" value="" style="rounded=0;whiteSpace=wrap;html=1;fillColor=#f5f5f5;fontColor=#333333;strokeColor=#666666;" vertex="1" parent="1">
          <mxGeometry x="380" y="460" width="180" height="140" as="geometry" />
        </mxCell>
        <mxCell id="CVH85tf8ODWWwL3qsKK9-5" value="Government Payments" style="text;html=1;align=center;verticalAlign=middle;whiteSpace=wrap;rounded=0;" vertex="1" parent="1">
          <mxGeometry x="380" y="500" width="180" height="20" as="geometry" />
        </mxCell>
        <mxCell id="CVH85tf8ODWWwL3qsKK9-3" value="" style="shape=image;verticalLabelPosition=bottom;labelBackgroundColor=default;verticalAlign=top;aspect=fixed;imageAspect=0;image=data:image/png,iVBORw0KGgoAAAANSUhEUgAABY4AAAIMCAYAAABSTTiwAAABdWlDQ1BrQ0dDb2xvclNwYWNlRGlzcGxheVAzAAAokXWQvUvDUBTFT6tS0DqIDh0cMolD1NIKdnFoKxRFMFQFq1OafgltfCQpUnETVyn4H1jBWXCwiFRwcXAQRAcR3Zw6KbhoeN6XVNoi3sfl/Ticc7lcwBtQGSv2AijplpFMxKS11Lrke4OHnlOqZrKooiwK/v276/PR9d5PiFlNu3YQ2U9cl84ul3aeAlN//V3Vn8maGv3f1EGNGRbgkYmVbYsJ3iUeMWgp4qrgvMvHgtMunzuelWSc+JZY0gpqhrhJLKc79HwHl4plrbWD2N6f1VeXxRzqUcxhEyYYilBRgQQF4X/8044/ji1yV2BQLo8CLMpESRETssTz0KFhEjJxCEHqkLhz634PrfvJbW3vFZhtcM4v2tpCAzidoZPV29p4BBgaAG7qTDVUR+qh9uZywPsJMJgChu8os2HmwiF3e38M6Hvh/GMM8B0CdpXzryPO7RqFn4Er/QcXKWq8UwZBywAAAIplWElmTU0AKgAAAAgABAEaAAUAAAABAAAAPgEbAAUAAAABAAAARgEoAAMAAAABAAIAAIdpAAQAAAABAAAATgAAAAAAAACQAAAAAQAAAJAAAAABAAOShgAHAAAAEgAAAHigAgAEAAAAAQAABY6gAwAEAAAAAQAAAgwAAAAAQVNDSUkAAABTY3JlZW5zaG90vUOJ5wAAAAlwSFlzAAAWJQAAFiUBSVIk8AAAAddpVFh0WE1MOmNvbS5hZG9iZS54bXAAAAAAADx4OnhtcG1ldGEgeG1sbnM6eD0iYWRvYmU6bnM6bWV0YS8iIHg6eG1wdGs9IlhNUCBDb3JlIDYuMC4wIj4KICAgPHJkZjpSREYgeG1sbnM6cmRmPSJodHRwOi8vd3d3LnczLm9yZy8xOTk5LzAyLzIyLXJkZi1zeW50YXgtbnMjIj4KICAgICAgPHJkZjpEZXNjcmlwdGlvbiByZGY6YWJvdXQ9IiIKICAgICAgICAgICAgeG1sbnM6ZXhpZj0iaHR0cDovL25zLmFkb2JlLmNvbS9leGlmLzEuMC8iPgogICAgICAgICA8ZXhpZjpQaXhlbFlEaW1lbnNpb24+NTI0PC9leGlmOlBpeGVsWURpbWVuc2lvbj4KICAgICAgICAgPGV4aWY6UGl4ZWxYRGltZW5zaW9uPjE0MjI8L2V4aWY6UGl4ZWxYRGltZW5zaW9uPgogICAgICAgICA8ZXhpZjpVc2VyQ29tbWVudD5TY3JlZW5zaG90PC9leGlmOlVzZXJDb21tZW50PgogICAgICA8L3JkZjpEZXNjcmlwdGlvbj4KICAgPC9yZGY6UkRGPgo8L3g6eG1wbWV0YT4KvQ83YwAAABxpRE9UAAAAAgAAAAAAAAEGAAAAKAAAAQYAAAEGAADoLA/Ql0oAAEAASURBVHgB7J0FvB012ofD4g7FoSyuixYp7tLiLgu0heKwuOuii1vR4pTi7q6Fpbg7FCgUd1hsYb78s2S+TM6cc+bIvfec2ye/370jyWSSJzM5M/9582aMxAZDgAAEIAABCEAAAhCAAAQgAAEIQAACEIAABCAAAQj8SWAMhGOuBQhAAAIQgAAEIAABCEAAAhCAAAQgAAEIQAACEAgJIByHNFiHAAQgAAEIQAACEIAABCAAAQhAAAIQgAAEIAABg3DMRQABCEAAAhCAAAQgAAEIQAACEIAABCAAAQhAAAIZAgjHGRxsQAACEIAABCAAAQhAAAIQgAAEIAABCEAAAhCAAMIx1wAEIAABCEAAAhCAAAQgAAEIQAACEIAABCAAAQhkCCAcZ3CwAQEIQAACEIAABCAAAQhAAAIQgAAEIAABCEAAAgjHXAMQgAAEIAABCEAAAhCAAAQgAAEIQAACEIAABCCQIYBwnMHBBgQgAAEIQAACEIAABCAAAQhAAAIQgAAEIAABCCAccw1AAAIQgAAEIAABCEAAAhCAAAQgAAEIQAACEIBAhgDCcQYHGxCAAAQgAAEIQAACEIAABCAAAQhAAAIQgAAEIIBwzDUAAQhAAAIQgAAEIAABCEAAAhCAAAQgAAEIQAACGQIIxxkcbEAAAhCAAAQgAAEIQAACEIAABCAAAQhAAAIQgADCMdcABCAAAQhAAAIQgAAEIAABCEAAAhCAAAQgAAEIZAh0mHD81VdfmWHDhplPPvkkc8JmbUw77bRmmWWWMT169GhWluQDAQhAAAIQgAAEIAABCEAAAhCAAAQgAAEIQAAClkCHCce33HJLh4nGvuUkHq+zzjp+kyUEIAABCEAAAhCAAAQgAAEIQAACEIAABCAAAQg0gUCHCceDBw92xdt+++2bUMzSLDo6/9IzsgcCEIAABCAAAQhAAAIQgAAEIAABCEAAAhCAwOhBAOF49GhnagkBCEAAAhCAAAQgAAEIQAACEIAABCAAAQhAoDCBDheOt9tuu0KFuf32202SJGattdYqlP7888936TrKorlQIUgEAQhAAAIQgAAEIAABCEAAAhCAAAQgAAEIQKAbEmgJ4XjEiBGmX79+Du9ll11mZplllqqoEY6rIiIBBCAAAQhAAAIQgAAEIAABCEAAAhCAAAQgAIG6CHS5cPzzzz870VjisYJEY4nH4403XsUKIRxXxEMkBCAAAQhAAAIQgAAEIAABCEAAAhCAAAQgAIG6CXS4cLzttttWLNyRRx5pbrvttkyaNddc0xx++OGZffHGBRdc4HbhqiImwzYEIAABCEAAAhCAAAQgAAEIQAACEIAABCAAgcYIdLlw7Iu/+OKLu9Unn3zS76q4RDiuiIdICEAAAhCAAAQgAAEIQAACEIAABCAAAQhAAAJ1E+hw4XjgwIGFCte7d2+Xbvjw4YXSX3jhhS4dFseFcJEIAhCAAAQgAAEIQAACEIAABCAAAQhAAAIQgEBhAp0uHMun8YknnmgOPfTQTCHLCcdHHXWU2XfffUt8HiMcZ/CxAQEIQAACEIAABCAAAQhAAAIQgAAEIAABCECgaQQ6XDjeZptt0sK+99575uCDDzbvvPOOeeKJJ9L9WlliiSXcdt7+2WabzUhAnnXWWdNjLrroIreOxXGKhBUIQAACEIAABCAAAQhAAAIQgAAEIAABCEAAAk0h0GnC8e233+4sjWVxXE8Yb7zxnOWxJs5TQDiuhyLHQAACEIAABCAAAQhAAAIQgAAEIAABCEAAAhCoTqDDheOtt97alULC8UknnWQaEY732Wcf44Xjiy++2OWLxXH1RiYFBCAAAQhAAAIQgAAEIAABCEAAAhCAAAQgAIFaCHS4cDxgwIC0PO+++67zbTxixAjz+OOPp/u1stRSS7ntvP0zzzyzOfroozOuKi655BKXHuHYYeAfBCAAAQhAAAIQgAAEIAABCEAAAhCAAAQgAIGmEehU4VillsXxySef7Hwdh7UoJxwfc8wxZu+99y6ZHA/hOKTHOgQgAAEIQAACEIAABCAAAQhAAAIQgAAEIACB5hHocOG4f//+hUq79NJLu3SPPfZYofSXXnqpS4fFcSFcJIIABCAAAQhAAAIQgAAEIAABCEAAAhCAAAQgUJgAwnFhVCSEAAQgAAEIQAACEIAABCAAAQhAAAIQgAAEIDB6EOhw4bhfv34VScoVxZ133plJ06dPH3PIIYdk9sUbl112mduFxXFMhm0IQAACEIAABCAAAQhAAAIQgAAEIAABCEAAAo0R6HLhWD6Pt912W/Pee++5mmgivAsuuKDEp3FcTYTjmAjbEIAABCAAAQhAAAIQgAAEIAABCEAAAhCAAASaQ6DDheOtttqqakklGm+33XYu3fnnn28kHlcLQ4YMcUmwOK5GingIQAACEIAABCAAAQhAAAIQgAAEIAABCEAAArURaAnhWEX27ir69u1bqAYIx4UwkQgCEIAABCAAAQhAAAIQgAAEIAABCEAAAhCAQM0EWkY4rrXkCMe1EiM9BCAAAQhAAAIQgAAEIAABCEAAAhCAAAQgAIFiBDpcON5yyy2LlaTGVJdffrk7AlcVNYIjOQQgAAEIQAACEIAABCAAAQhAAAIQgAAEIACBKgQ6TDi+5ZZbzCeffFLl9I1FTzvttGadddZpLBOOhgAEIAABCEAAAhCAAAQgAAEIQAACEIAABCAAgQyBDhOOv/rqKzNs2LAOE48lGi+zzDKmR48emQqxAQEIQAACEIAABCAAAQhAAAIQgAAEIAABCEAAAo0R6DDhuLFicTQEIAABCEAAAhCAAAQgAAEIQAACEIAABCAAAQh0FQGE464iz3khAAEIQAACEIAABCAAAQhAAAIQgAAEIAABCLQoAYTjFm0YigUBCEAAAhCAAAQgAAEIQAACEIAABCAAAQhAoKsIIBx3FXnOCwEIQAACEIAABCAAAQhAAAIQgAAEIAABCECgRQkgHLdow1AsCEAAAhCAAAQgAAEIQAACEIAABCAAAQhAAAJdRQDhuKvIc14IQAACEIAABCAAAQhAAAIQgAAEIAABCEAAAi1KAOG4RRuGYkEAAhCAAAQgAAEIQAACEIAABCAAAQhAAAIQ6CoCCMddRZ7zQgACEIAABCAAAQhAAAIQgAAEIAABCEAAAhBoUQIIxy3aMBQLAhCAAAQgAAEIQAACEIAABCAAAQhAAAIQgEBXEUA47irynBcCEIAABCAAAQhAAAIQgAAEIAABCEAAAhCAQIsSQDhu0YahWBCAAAQgAAEIQAACEIAABCAAAQhAAAIQgAAEuooAwnFXkee8EIAABCAwWhMYOXKk+fjjj6syGGecccwEE0zg/qaaaioz7rjjVj2mmQm+/PJL884775RkOdZYY5levXqV7G/nHZ1V119++cUcfvjh5rjjjmsKrs8++8zcc889ZsSIEea9994zv/32m5l++unNHHPMYfr06WNmmGGG9Dy77bab2Weffcxf//rXdF/eyrPPPmv++9//5kUV2jfGGGOYRRZZxPzlL39x6b///nszZMgQ89JLL5mNN97YrLTSSoXy6ehEzzzzjPn9998zp1GZF1100cy+vA3dv7qP4zDjjDOa6aabLrP7qaeeMkOHDnX7Bw4caKaccspMPBvdh0C562LmmWc2U089dU0V7Q7XTave+zU1BIkhAAEIQAACozEBhOPRuPGpOgQgAAEIdB2BM844w1x77bVGwoCExCJhzDHHdGLgyiuvbPbaay8z66yzFjmsoTQq4+67754rcidJ0lDerXZwZ9X14osvNttss4155JFHzLLLLls3hieeeMKcdtpp5sYbbzS//vpr2Xwk4G666aZOCD7ooIOMxNJqov+GG25oXnjhhdyPBmVPFEV8+OGHqWi90UYbmeuvvz5Nccstt5i111473e6KFd1388wzjxPc4/P/8MMPZsIJJ4x3Z7bPPPNMs/fee5ewlzB/4oknpmklli+wwALpttirDQjdk8DgwYPNwQcfbL744otMBY866ihzyCGHZPZV2min60YfX/SnD51xaMV7Py4j2xCAAAQgAAEIlCeAcFyeDTEQgAAEIACBDifw+OOPm6WXXrrkPNdcc42zGpUF6fDhw815552XEahkeXzllVea9ddfv+TYjtix5pprmjvuuCOTdXcTjn3lOrqu888/v3n55Zdd291www3+tIWXf/zxhznyyCONhCit+yAr3j333NMsuOCCztL3lVdeMZdeeqm54oorfBK3LCIc+wP23Xdfc9JJJ/lNt5QFvMqt9pf4+uOPP5q33nrLnHPOOebTTz9N03rh+Ouvv3aWlqEF8wYbbJARktODumClf//+5rLLLsucuYhwrANkjT/77LNnjo2FY4nLp5xySibNiy++aHQdELonAV37M800U+b+rFU4bqfrZvvtt3d1veCCCzIN2ur3fqawbEAAAhCAAAQgkE/APvQTIAABCEAAAhDoQgLWBYVMdzN/VojLlMgKTcl4442XSWMtkBNrlZZJ11EbxxxzTObcKm93DR1Z17vuuivlaF0iJO+++25NGK1Qm6y66qppHmoHXQfWirlsPo899ljSo0eP9BgrHJdNG0c8/PDD6XH+GrVuFuJkbvu7775LrEVzYq0O3TFWPHP7rWCcWNcYmXysRWZuHl2x89RTT82UTfW0wnHhokw66aSZ461wnDn2/PPPz8Rb4T2xglomDRvdj8Dkk0+eaXcrHNdUyXa5bm666SZXz6233rqkfq1+75cUmB0QgAAEIAABCJQQ6L5vfSVVZQcEIAABCECgNQlY35cZgUHCVSwcq+QSpLx455d2GHCnVMpanZacu1NO3AUn6ci6rrbaahmOe+yxR0013HXXXTPH6zqQwFQtPPTQQ8nYY4/tjq1FOH7yySdLzldOOPZl2G+//dwxXjjWfuvfN5lmmmnc/iWXXDIJ4/xxXbU899xzS+pYi3A87bTTZo6PhWNrkZ2o3a3f50Qis7U+7qqqct5OJKD7xPfTWtYqHLfDdWP9OSe+nnnCsXC38r3fiZcDp4IABCAAAQi0LQFcVdgnOQIEIAABCECgKwnMNttsxlqeZoqgof/xEPibb77ZrLfeepl0mvhMw6I7Opx88sluUrXwPPbpJ9zsNusdVdfYZ6mATTzxxK79Jplkkqr85IN5k002yaSzIqyxFsVGk9FVCwceeKCbkK8WVxVKG08UZ4Ui8/nnn2dO98knnxjVQW4s3n//fWM/hrh6hRPzyQ+zrtXO8M2dKVyVDbmB2XHHHTOpirqq0EGaCE/19yF2VeH3f/DBB25SPDEidH8Cmsw09HNcq6sKT6hVrxtNyrnWWms5P/0qqxWOzUUXXeSLnVm26r2fKSQbEIAABCAAAQjkEkA4zsXCTghAAAIQgEDnESgqHD/66KNmueWWyxRME+b99ttvZYVD+ZyVj2SJeQsttJATAccff/xMHvHGiBEjjCZek+ghf7mLL764Oeuss8oKxxKQ//Of/8TZGGvh6iZLkm/bvAkAresNo/KXCyqHfEB/++23Tmzs3bu3scO/yyV3k7/Jd6wmHJSIucQSS5hZZpmlbHpF1FrXiplViZSwcskll5Sksq4SjLU8Ltkf75h33nnNa6+9ltktH8b9+vXL7Cu3IX+8c8wxh3n66aerTo7n8ygqHK+yyipmp512MppUT2GppZYyt956q7EWtrltLx/dY401lksrH8lxUJzSyIfz888/767Hv/3tb24yQeviI06e2ZZIpQ8vr776qvnoo4+MtQh29Z1zzjkz6fxGRwrHui/iDywS+b14rHs3b2JDxSvdl19+aay7ECNfsRLprNW2L3bZZT33vERA8dL1Jb4S/ldYYQXXBvGJ8uqk+1j3s4LudflDV73WXXfddH+cT6Xteu59+fTWhI46v8qviSd9mcJzleuP1C+q7t98843597//7fxXy/+8+s3ww4zqpXh9CFKfpA8rYbw/Vznh2NfNunYx/pqOj89jrDT+utE5uvK+eeONN8waa6yR+eC5xRZbOF/8KpuuB93Def1+eO8rbRjUNkXbsdn1D8vBOgQgAAEIQAACAYG2tZWm4BCAAAQgAIFuQsBaYGaGNNuf6VxXFaeffnpJunnmmSeXghU/EjsBWUl6uQt48MEHc4/56aefEg03ti/9meOsYJlYUTCzT2X0wYrMJXGK9240jj766Nx4uQjIC1Z0SqwVZ8kxGuZ/xhln5B2SyM9m6MdX59ffgAEDEivClBxTb11LMiq4Q0O6ve9fXza/tOJ28vvvv1fM6d577y3hIR/JVvCreFwc+a9//SsZNWpUvLvsthWZS84bu6qwwr5zg3HdddeV5CNfxr6e4VK+kBXs5I+J6hHGad0Kz8mzzz6b2AnGMnFyCzFs2LCS82iHGNtJulKXHGGeVnRLNttss8QKtSXHdpSrCrm7sCJZpvwqk8ry888/u3IMHDiwJF5pdA/IjYnS+nqIkxXnSsrvd9Rzzz/yyCOJ7m9/jnCpe/C+++7z2bul2jr2ta5j7McvFy9f26HP57XXXjtzfLWNeu59OyFbYgXVkjroOh00aFDJKa3lfUla1WHIkCHJ8ccfX3I9yj+3v2d0rcTnUp9qBfeS83gXDp6pnewusR9WSs5tJ0lMrFVxenyR66Yr7xvdf3l9ra+nlvpNq3bvpxX+c6WWdmxm/eNysA0BCEAAAhCAQJbA/7/1ZfezBQEIQAACEIBAJxEoKhxLiA1fzrW+3XbblZTSWpa6F3fFSwS+5pprnMDohQztkxAZBk1itNJKK2Xyt24Rkt122y2ZYoopMvt9GcLjrZVYYi32MukkXCtYq1Hnh9cf55dnn312mIVbl/BkLdVcPta62gky1qovk6+1ss0cd/jhh6fxmjjOug1Iwn3LL798Jn2jdc1kVnDDiyjWujUtq+eg5Q033FAxp/79+5ccN/fcc1c8phmRRYRj+W5VHfKEY5XhtttuKyn7/vvvnxbPWmDmfiiIBTrPS/X2wqvPRCKztTJ357FW8ol8OkvMW3311TPnlo/oOHSUcKzzfPXVVyWTGaoe+nChICH7kEMOyZRR8eXqrrj4+lc+9dzzu+++eypMn3DCCe5j1RVXXJH5wKEJ3t58802dIg3yvbvAAgtkyqyPH1dddVWan28rfSzJE+vTzIKVeu599U/+XNYtSqLJHK01bOp3V3GxD3B9pMn7CGfdxri8/NLnq6X6In8ufQwIBX3FL7zwwiX19P1tmM+EE06YrLnmmol1Q5SWW/HWqjkRVx+qXTdK11X3jXzAq0+NP4SpvtqvP/+Bo9q97+vr2YpF0XZsRv39+VlCAAIQgAAEIFCeAMJxeTbEQAACEIAABDqFQDXhWMJrnrg0/fTTJ9bXbEkZJUx4sWL99ddP40888cR0v6zcQitXibj+GC2tS4PEDsl2x2oytTwrwzTjP1ck2IV5eOFY0bKMDeO0HgvH1ldvJo1ES4XTTjsts9+6oHD79c+64ciIOHaououTsBhaxVn/wOkxzahrmlmBFQlCKousaBUkrMQs7LD6ijlpQrn4GOtKoOIxzYgsJxxLfJcwe8ABB6TlKiccqxzx9RMKx4rv27dvmo+v54orrpiMHDkysS4vSuJioV3XhD9urrnmSq/t5557Lt3v4/WRIwwdKRzrPMcdd1xJGbxwrHhdw75sfqmPO5dffrmzlg/rpniJtnGo9Z6/6667MufUBGY+WPcSmbiNN97YR6XLvEkaJdxLdPWTMKqs8803X3pMpZV67v1YlBRnH2RpHLJU2jBIdPTx4VIW+epvNbIh3O/XDzvsMNcmF154YUm876/8eWLhuGfPnk7UVrwst2Nr+k033dQf6pbVrhsl6sr7xrrZyDAoNzletXu/kXZstP4Z4GxAAAIQgAAEIJBLAOE4Fws7IQABCEAAAp1HIE843m+//RJZcsoSq1evXpkXdIkYemmXKBYHDfX2IoeWdrKiNImGnYdxcu/gQzxcXRZ5YfAWs+HxYbzWY3EzFI4lnobHaj0Wjvv06ZOmkZWzD7GwprorSOAJrZE1pDwMyyyzTJqfLPp8aEZdfV5FltY/tCuHF1YlesYstB0LT2HeGg4fH2MnSgyTdMh6nnCscsTW5drn65dXkFhEi4Xj2JpebhJkdamgDxyxOwvrFzo9jfWjWhIvsVnB+vYu4aZ7JAwdLRyfeeaZJWUIhWPrK7ckXgKmD//85z8z8XIFEYZ67vn4fl5kkUXSLCUAhtea9XGexvmVvfbaK5NG6eVGxPpkTqxf8kTXpu6522+/3R9ScVnrva9rQh+/wnKGbjWsX+xMnKxYw5D3Iesf//hHmsROVpo5XufZeeed03jrO7sk/uqrr07jtRJf8+rPwxC3gT4WhG51ql03yqsr75uiwnHMIbz3G23HRuoftgXrEIAABCAAAQiUJ4BwXJ4NMRCAAAQgAIFOIZAnHOcNh/Yiyc0331wyLNoXdKuttsoIGvfcc4+PSuykcZk4CVIKEnUlWvj8tdRQ/zBoeHIYr/U4yKI2TBMKxxJEwjith8KxhsOH8RJ3w2AngHNllGDph55reH54jLfo9ceFVpiygtSQ+WbV1Z+j2lLCiKy3NZRfVroKWtrJuzJlVz223HLLstnFVntKH1pelz2wwYg84VgsZXEqy+lwyH4zheO4brHrhmOPPTZTM1lsh9eCPjYo5Al8sbVyVwvHL7/8cqbsqocsgn2QG4mwbnIREIZ67vn7778/k+c666yTZin3N+H58iyc84TjwYMHp3nUslLPvW8np8uUUeUVRx/kkzisg9Y//PBDH+1GasTxoQuQPGE5/Agni+H4eFkhhyEWTGPh+M477yzJQ/XyoR7huDPvm2YIx422Yywc11p/z5olBCAAAQhAAALlCZS+9ZVPSwwEIAABCEAAAh1AIE84fuutt5JDDz20RFiQWKHJ5soFWQeGgobEPb1c6y8W1/zQ6LyXd1lBhqGjheMbb7wxU+7YQlBlke9iCTY+xJaWU001VVpX1Td0VSEmcq3QrLr6MlRbyqpb55a7jTCEbkN8e0mQ9ZNwhWm1Puecc2b46BgJUx0d8oTj8LxyY+KtoTtSOJ5oooky9fcfPXz95XpAbjPWWmut5LLLLnPW6HJPIqtXz9cvQ7clOr7VheNq914997zqfeWVVzrLYE3CJwtb3V977rlniTW5t/DXMT7kCcey8q0n1HPvyx+yb0+/DIVhWav7/X55/fXXp8WTix+/3y9D4Tjv+FA4zhtBcc4556T5a6WacBx/yFM5JBb70AzhuCPvm2YIx422YzXhuFr9PWuWEIAABCAAAQiUJ4BwXJ4NMRCAAAQgAIFOIVBOOJaFbCwKSVzQ5HFPPvlkbtkmm2yyjCAiH6Oa5C7vz/sEjX3+6hwSrsNQTbxS2kYsjvOE1G+++SYsQsl67PtY1q959fT7ZKHcrLqWFKbMDon1aq+33347+fTTT9M/TeAVWut68UrD1/PCaqutlmlXnz4U0vOOa3RfNeFY+XvLyc4UjjX5Ybkgn6neHYncJ3hWftndhON67vmQna5LCcGy5te1qgncPCstiwjHupYlptYT6rn35e4gLKPWQ3/vecJv6CKhFYRj9bFxHSTc+9ARwnEz75tmCMeNtmOtwnGl+nvuLCEAAQhAAAIQyBJAOM7yYAsCEIAABCDQ6QTKCccqiMSFWMiR2DD77LMnP/zwQ6ascosQu5w45phjMmnyNo444ogSASMc9q1jOlo41gt9LKLIV2qlEJdb7hy8O4hyx8XH6Jz11LVc/uF+iftxnapty7dz6OfU5yeft3nHyuK3I0MR4Vjnl0/irhaO5ZZi9dVXTzlts802zpI25tadhON673l/zcgvr645MZKF/hNPPJHEriqKCMeaqLPeUM+9v++++6bt7Nv366+/TosgMdzv98tQlG0F4Vgfj3zZ/DJ0wdJZwnG9900zhONG2xHhOL3kWYEABCAAAQh0GAGE4w5DS8YQgAAEIACBYgQqCcfK4YILLigRGCQ0DBw4sOQEmiDOixBabrzxxiVp4h3yzRkeo/XQ16bSd7RwPGTIkJIyxO4d4nJr6Hhc7ldeeSVOltluVl0zmZbZkCsQ+aPVEHi5BYj/1K7xpG+qT56vWAlhyiuub+gnukwxGtpdVDiWP+uuFI5fffXVjGsA+beWqJrn47g7Ccdq3HrueR2nyeDC68nf8/UIx/LhXW+o596Xn/Ow7FrXPeKD3FbE8aEbiFYQjl944YWSMoqFD50hHDdy3zRDOG60HRGO/dXCEgIQgAAEINBxBBCOO44tOUMAAhCAAAQKEagmHCuT9ddfv0RkkDAS+u1UuuWWWy6TTmKjXDTEQYLagw8+6Hbfd999mWOU7yWXXJI5pIhwvNJKK2XyWW+99dI8qk2Ol2edO9tss1W0IH7ggQcy51O588R0FeLWW29Nvvvuu6RZdU0rVmZFzDXsv9KEdzpUPnljgUtuFv7444+SnFW3OO3cc8+dm7bkYLtDYln//v3zosruKyocazKxn376qWw+sb/X0G2ADmpEABKreeaZJ8Pm7rvvdmUZHYTjeu55WRqH19KSSy6Ztl1nC8f13PvDhg3LlF91ef3119M6yJ95WD+t+2tCibpCOI79csf9l0aLyM+0Dx0tHDd638w///wZxltvvbUvemZZ6d5vtB0b6TcyhWQDAhCAAAQgAIGyBBCOy6IhAgIQgAAEINA5BGaaaabMC7hEDgkfYfjiiy+cO4BYDNHw8nBSqDx/oeuuu25GgJWAqknDNJRfQb5J44nkNtxww/D0yeabb15SRvlgDsPaa6+dSSO/vD7cfvvtmTjV46yzzvLRya+//prkCegayhyG999/P1lllVWSZ5991rl0iEUJiS8abh8GTZYmAV1+hptV1zD/vHUv8npxPi+N9knMittU2/EHAaX9/vvvEwnFcfpqltk6VsLuggsumEiMryUMHz685HyTTz55LVm4tHE7xcKxrrewXr17986cI57kKvRVmidue+vn+++/P5OvziHL7zDkTY4n1kVD7Ed57733zhxaTQDURJRh3bUuv9E+VPtoU889H3+Iki90Bd2H8QegueaayxclXWpCvbDMM888cxpX60o9975c0sQfC0LXNnG7q4/VeXzQ/RCWX+vhx7Ivv/yyJF6jFXyQm6D4+Nj6P77mNXljGDSZXphH3759w2g3UV4Yr/X440xX3je9evXKlN9/JFPbyJrah5hDeO832o6N1N+XjyUEIAABCEAAApUJIBxX5kMsBCAAAQhAoMMJxJNbSSCIxU8VQiJj3oRqyy+/fCoMa0K5iSeeOPNCr/xWXnllJ0bKvYNEuUknnTRj3ZY3SdHDDz/s6n7GGWeU5Kc8JXiFIRaTVK8RI0Yk99xzTzLBBBOU5HHCCSeEhydXXHFFSRqdRxaVp5xySnL00Ucn00wzTSJLt19++cUde+ihh5Yco3Mdf/zxyR133JHst99+TjQORZtm1DVT8GhDQqasjVX2agKkrP7kr1ppwz/VMRS6/CnkimPqqafOpJW7i/POO8+5ZvDpwqVEe4mbunYkQtYS7r333sy5VEaJ8HIDUUvQxGth/XbZZZfM4RLNwvjQr64YxS49QnE2T3zX+TQxYezzW+fQRHDyda0PKAonn3xy5txK8/HHH2fKV2kjvt922GGHTHJdi2HdtC6LVx/yxPnQnUaeX+7wuqrnno8nslSZ9FFCHxbisqqv0L150003+SI7y/4wne7LRkI99/4NN9yQKethhx2WFkG+gsPyxe5f3nvvvUy80oauLEaNGlUSr37QB1kGh/lrXQJ+GGLBNLTqVrp11lknzWPcccdN5DYiDNWuG6XtyvumT58+aflVf92z+jAnFyirrrpqWpVq934j7dhI/dMCsgIBCEAAAhCAQEUCCMcV8RAJAQhAAAIQ6DgCsraS1W0sQGhb/nH1Eh6HWJz1x2611VbJyJEjXXIJPJoozsfFy7HHHju58cYbM1lLfJKgHKbVpHyx/9QwfoYZZkhCa1eJmrFI4NPniaOyHJZlnw8SCPMsm30eWkoADSezk4AmkSJME69LeA4nnGtGXX2Zw6XaU9bNM844Y1qeo446KhW5w7R+XQLVAgsskKYPyy6r5TwBU75c11hjjZJjJNxIZJSf1KFDhyZHHnlkmrfEv9jS1peh3FLiZihuhWWT6B9bP+blI4H5qquuKimrLFxlPa6gDxCx1a7E6eeee87F5/mlXmyxxVI2snyPj1dZJd5LTMy79pZeeml3TciVhT6qhHXT+qmnnpor3LsC/flPdZPAGx8rS9gR9oOJgkYDrLDCCiVpJEKq3GK4zz77lMT369fPxen6WHzxxUvi9QFI94sPtd7zeVbQqoeuRX1kieskAd5bwavd5pxzzkwaCfveR7IvUy3Leu595b/rrrum5ZhqqqmSRx55xI1GkFW8r4P6zPBDh7jnTTapERIa2aGQx0fXidpDH3R0Xfn8/VL9UNifxcKx0mmy0g8++CCRtbH/CKjrNLR21vmrXTdK05X3jc4vNxPxhxnVSaNXVMci977yUainHRut///OzH8IQAACEIAABKoRQDiuRoh4CEAAAhCAQAcQkFhUTmT1QoQEhYUXXjhz9p9//tlZ3Po04VLijbdklIASCpg+3RxzzOEscTOZ/rkhC0yJJ17Q8MdIwAyFFol0Ei4POeQQJ9SEeWkiuNiCWhOVSeyMrUaVv0S9OOhcssDz59dSZVI+EiTiIOvj/tZ3r8TG8BjxkzsODSuPQzPqGuepoerh+f266h1bV+tYtYVPU24pDuWC/DZvsskmZT8SSNSRv2SJMhqaX0uQ64FyZfL79QFiwIABFbM98MADy+ajNn3Q+tmOrzefv/brevLb8VKWvj7INYXqqjS6ryTiyZJX4eabb04/gOgakV/pb7/91gmzqkOcr9+uNrFknrW7P1Zlf+qpp5JK+esjia5Pf0y8lOWyBO54v9+WpXQYarnnVX+5FvAfmOQm5uCDD07Uv+gDiNzO+PtJH49kEayg43Rf+TLES+/+JixXLeu13vvKWx8W9GEkLouE29jSWOnzhHF/rNy5SNz12/GyZ8+euaKxT6d72gedXyKqRGF9yIndAekYuXuQ3/UwqL+qdt1IvO+q+yYsq+qm3yjVRWWWuC7fzQrV7v3QJ7XS19KOzaq/zkuAAAQgAAEIQKAygTEUbX/sCRCAAAQgAAEIdEMC1nLNWLcXxlo2GivSGmu9aKygWLGm1mrOWBHKWAHJWGtdY4ehmzfeeMPYCd+MFQnMdNNNV/F4a5FnrHsKo6V1F2CsJWDF9HmR1irQvPjii8b6yjTWetBYn8xmlllmyUua7rMCsrFWqsZaPrsyq6zWKjqNz1tptK55eXb2Pmt1bawIY6z1rPuzYqCxApixVr1G66NTePPNN431Z2us4F5S7bfeestMP/30xlrSl8R1px213PPW+t7o+rEfmUoQaL/94GCs+4qSuI7cUc+9r9cZ68PcWN/nrmjWIt1YMbwji1k1b2tpb1ZccUXXFymxFYRdn6Z71QrdxorMxlp4V82nMxI0et/YD3pmkkkmMfajYUPFbcV2bKhCHAwBCEAAAhDoBgQQjrtBI1IFCEAAAhCAAAQgAAEIQAACEIAABCAAAQhAAALNJIBw3Eya5AUBCEAAAhCAAAQgAAEIQAACEIAABCAAAQhAoBsQQDjuBo1IFSAAAQhAAAIQgAAEIAABCEAAAhCAAAQgAAEINJMAwnEzaZIXBCAAAQhAAAIQgAAEIAABCEAAAhCAAAQgAIFuQADhuBs0IlWAAAQgAAEIQAACEIAABCAAAQhAAAIQgAAEINBMAgjHzaRJXhCAAAQgAAEIQAACEIAABCAAAQhAAAIQgAAEugEBhONu0IhUAQIQgAAEIAABCEAAAhCAAAQgAAEIQAACEIBAMwkgHDeTJnlBAAIQgAAEIAABCEAAAhCAAAQgAAEIQAACEOgGBBCOu0EjUgUIQAACEIAABCAAAQhAAAIQgAAEIAABCEAAAs0k0PbC8RhjjNFMHuQFAQhAAAIQgAAEIAABCEAAAhCAAAQgAAEIQKDlCCRJ0qllQjjuVNycDAIQgAAEIAABCEAAAhCAAAQgAAEIQAACEIBA7QQQjmtnxhEQgAAEIAABCEAAAhCAAAQgAAEIQAACEIAABCDQRAJtb3HcRBZkBQEIQAACEIAABCAAAQhAAAIQgAAEIAABCEAAApYAwjGXAQQgAAEIQAACEIAABCAAAQhAAAIQgAAEIAABCGQIIBxncLABAQhAAAIQgAAEIAABCEAAAhCAAAQgAAEIQAACCMdcAxCAAAQgAAEIQAACEIAABCAAAQhAAAIQgAAEIJAhgHCcwcEGBCAAAQhAAAIQgAAEIAABCEAAAhCAAAQgAAEIIBxzDUAAAhCAAAQgAAEIQAACEIAABCAAAQhAAAIQgECGAMJxBgcbEIAABCAAAQhAAAIQgAAEIAABCEAAAhCAAAQggHDMNQABCEAAAhCAAAQgAAEIQAACEIAABCAAAQhAAAIZAgjHGRxsQAACEIAABCAAAQhAAAIQgAAEIAABCEAAAhCAAMIx1wAEIAABCEAAAhCAAAQgAAEIQAACEIAABCAAAQhkCCAcZ3C0x8avv/5q7rjjDvPyyy+bN954w0w88cRm1llnNeuuu66ZY445XCUGDRpkll9+ebPAAgu0R6U6qJRJkphHH33UvPDCC+a9994zo0aNMj169DAzzDCDWWqppcwyyyxjxhprLHf2YcOGmeHDh5u99967g0pDthCAQFcSUH/wzDPPmD/++KNsMWaaaSYzzTTTlI33Ecrrqaee8pu5S/XLU045ZW7c6Lbzs88+M/fcc48ZMWKE64t/++03M/3007vfrD59+rg+2TPZbbfdzD777GP++te/+l0sIQCBBgm8/fbb5quvvsrNZdJJJzVzzTVXbtybb75pvvnmm5K4McYYw/Tq1cuMOeaYJXGttIN+v+tag36/69hz5vYl8Omnn5r333+/oQro+apnz54N5dHKB3///fdmyJAh5qWXXjIbb7yxWWmllVq5uFXLhl5RFREJWoGAvVAJbUTAipvJPPPMk9hrx/2NP/74iRVC0+1ll102OfbYY92+2267rWLN/vOf/1SMbzTyv//9b/LLL780mk1dx//444/JiSeemMw+++wpG88sXE422WRJv379kssuuyxZZJFFkrXXXruu83XGQR3dXvXUoSvbuJ7ycszoTUD9wjrrrJPMOOOMZfsFxRcJd911V9k8JppoomSFFVZI7Ae+IlkVStOu99q///3vZNNNN03GGWecsrzUJ6v/PeGEE9zvl7atwF+IS2cnatV2aMXfh85uG85XmcDuu++eTD755Ln34dhjj53o+TIvHHDAAcnMM8+cOc5+cE8WW2yx5JNPPsk7pKX2tXO/3673dXfr91u1HVq1XC3VAbRhYa677rpkueWWSyaccMJMvxu+v1Zb33bbbduw5sWLvOGGG2bY3HLLLcUPbqGU6BWd1xj0l42zNo1nQQ6dReCxxx5LrGWH6yj/9re/Jddcc02iDkfh9ddfT9ZYY41MJ3rDDTeULZq1IHE/SCNHjiybptGI7bbbLhk4cGCj2dR8vLXETuadd94MC70sHXHEEcnzzz+ffPnll8lzzz2XnHPOOYm1PM6ka1XhuDPaq2bQ9oCuauN6ysoxEAgJ6INR3oP3X/7yl+Tdd98Nk+au2xEeucdba+XEWovkHtPIzna7137//ffk8MMPT8Qz5GytQpJbb701+eCDD5IPP/wwufvuu5O///3vmTRK36rCcSu2Q6v+PjRyvXNsxxD44YcfklVWWaXkftM9N+200yYfffRR7ontKI1kv/32c8fpw9iLL76Ym67Vd7ZTv9+O93V37PdbtR1atVyt3ge0U/ms1XHGOMw/S22//faJjBdkIHb99dcnZ599dhI/k3Zn4diOnEn08dLz0HKDDTZop6Z1ZUWv6Lwmo79sDmuE4+Zw7PBc7JCMZJZZZkk7yVdffTX3nEcddVSa5qqrrspNY4cIO0sRdbT6UeqIcNNNN7lybL311h2Rfdk8b7/99mSCCSZIGaiOvXv3Tr744ovcYyS8S9z2Pz6tKBx3Rnvlwqmys6vauEqxiIZAIQLXXnttet/7+98vrZuEinlI9PQf8fwxfqmH92aHdrvXNNJk1VVXzfAVr4svvrgsGn0YDUfPtKJw3Irt0Kq/D2UbmoguJyCrm/ijue+/llxyybIjxb799lt3T+tDT7uGdun32/G+7o79fqu2Q6uWq137hVYu94orrph5llJffeaZZ+YW+eGHH04WXnhhl747C8ca+WVdmWW4HHzwwblMWnUnekXntQz9ZfNYIxw3j2WH5iQLLf9gr6W3NM476frrr+/Syv1CXjjkkEPSvDpCOP74448T69fTnaMzhWPrvy+xfvrSuomT9dmXyMKmUtAPUN++fd1xrSgcd3R7VWJTLq6r2rhcedgPgVoJyFJDfUQ8UkP7NEKhUh/r70nrVy3T3+jYzTbbrNaiVEzfjvfarrvuWsLl/PPPr1hPRT700EOJhsyLY6sJx63aDv5aFLOO+D2v2mgkaEsCdv6LkntU15D+dthhh7J10jOWnQeibHyrR7RLv9+O93V37PdbtR1atVytfv+3Y/nynlHLCceqn0a82bmPku4sHKueQ4cOTTTCT79Z+uCpEWztEtArOrel6C+bxxvhuHksOzSnf/7zn5mHfLldKBdkDWcnLUnyXtQvuOCCjKVcs1809YMlv3f+BaSzhGM7YWCy4IILpuf159dQniJBw17kL7rVhOOObq8ibOI0XdXGcTnYhkAjBPS1X/2ElnnWw4MHD87NXn2NhnTbyTVTf7y+v9Fy8803zz2unp3teK/JhVLIQ+t6qNdQ9yJB/lR1TCsJx63aDq34+1CkjUnT9QQkHMvXe+xKxt+7ec+PKrX6Pt2j7Rraod9vx/u6O/b7rdoOrVqudu0TWr3ca621VskzVSwcy0WMnXg4rcqAAQO6vXCsymqUwzvvvJPWux1W0Cs6t5XoL5vLewxlZx8UCS1OYM899zSnnXZappSHHnqoOeyww4z185PZr40llljCWF9uZuedd3ZxamalP+aYYzJprcuLdOZ6K5wa+xKRibcdnHnrrbeM0lnfd8a+NLhZtOecc85MOm288cYbxn4ZNdY/aBq3xRZbmPPOO89tW3HGjDfeeGmcX7Ev5Wb48OFuBtmFFlrILLrookZlqSVcffXVxlr6ZQ6xrj0yZclE5myIl2YOtw72c2KN+fzzz81TTz1lrDBvrEWiscOBTB4HHWytFUvyUDuNO+64xgooxvpaNk888YSxvqqNndCwhHu97VWE5U8//eTKUFJAu0Ptby3+jP0xzkTbia3c/nrbOJMZGxBoAQJ24jqz5pprGutjzPWj1id8plTzzz+/sX48M/u0YV+QjZ3szVxxxRXmvffeMwcddFAmjRWOXVxmZ7BhRzi4fNWXTDLJJK6vVl8VhyL3mvqU+F5VPmFfrv773nvvNXa4o7ETq8ancdu19G25GQQ7rX9589prrwV7jLn00kvd71FmZ5kN+xJg5phjDvP000+735o4mfi98sor5oUXXnB1t5N2uT4077fFDk8z+g2Lg3VnZOzHVWP93Rs7tNN8/fXXxr6cGWu9Eiet63etSBvbFz3z888/l5zP71B91LbxI5qdLMftq+f33OfNEgL2Q7vre2abbTaz//77lwDRs4ruDevqKxM33XTTGStKmH/961+Z/eFGLfdoo89K4XmLrLdyv1/0uU/PkI32+7W0URGurdTvN3pNFW2H+H2pSL/fyPN3veUq0n6kaV0C1qDJ2JESmQJa4djssssu6T47sanZaaedzEsvveT2XX755cYKye69P03058pnn33m3un1nKZrWM9QK6ywgns/jdNat0YlzyDhu7z6IfWpes6ybtrcO36lY3QN6/nNTp7p3qNXXnlltwzPq3fsBx980Oi9c7XVVjNTTDFFGG10n+X1f/rN8npIo31AeEL1t2Jl55Iy1qrZ2JHMxk7mbKaaaqowWeF19Ir/oaK/LHzJtFZCexMT2oBAOb9sVghwjvFjay7745GMGjXK1Uy+XayAW/LF0l6JmX2hawsNy5XzfT9sOEwra2YNx1a+Pmg27tA/ZZjer88666w+uVtakdY5s/fxfqmhJ/ZHI5O22sbSSy+dqYvy+sc//lHtsEy8Jsy76KKLMvu0oVnDNbutL1+4tD96STzBoBWTcq14ZKH47LPPJjPNNFMmL1nwhLOZ19NetbDUxDZhHcL12WefPZGfqHCf1nfccUdXxlrbuAQmOyDQIgS85Zkmp5CLhPia13ZeP2QfsN3wOPvgWrPFsXzk5t1Dsg4JZ/st2p8eeOCBueUeMmSImwRUE9GF9YqteGvt26o1nRWoM+fTue2LSWJfVKodmom3olT6+xVGyHIg9mGvc8g10qBBg8Kkbj30Xx9ysC86yR577OFG5vj9Kqd+J8NQtB3CY4q28UknnVTCypdFv7uqjxWPM2nsS1Gi35daf8/D8rEOARGQxbGe8RTyJqfUtSg/yOojwlDN4riWe7TRZ6WwXEXXW7Xfr+W5r9F+v5Y2KsK1lfr9Rq+pWtohZFO036/3+bvecoVlZL09CRSxOLYf/5L55puvYgUfeeSRkonj/TOH/SCY3HfffZnj5dM+fgZRevux0aXTnBWhe0iN2JVryDzdQMdo0mlrkJF5ptFoPz+CWrpD/C6v5zIrkGfKlfeOqnJZIw6XrtE+IDzZ448/nvTq1Ssts8rjmem5U6N2/J98Lmv0crUQ11H5jU56hfjQX1a7Slo3HlcVrds2mZLpxVuCre+w4qWc4T/wwAOZY/yGJoZbfvnlE2sdW3K8te51cYr3PxoSN60lnEsr9w8SVezXtmT11VfPHC9/Zj7oJVh52C+EmTTqWLVff+FLuYaWSEhWPfTDoWFuqqP3jax9ehgtEjQ8J+ah7XKTAxbJ06exVm1Jz5490/x32223RD9u++67b7pPP9bWYs0f4pYqk36I43LliR5KM/fccyfW+swdW2t71cpSnPNeFFUP/wFCL5Qql7VcT+yXYbe/1jbOAGEDAi1GIBQQVLQ8VzfxLM2alFT3hbX2dLU59thjS+7xcq4qDj/88DStJo6TIBPuUx/pQy33mrUsSfP1/Y0d5ZFOkOL3aXnkkUf6UyT19m1pBjkr/fv3LymL+rZmBPW9vi4StDQJjLXKTn8zFBcPr9fLdujbzB9frh9WvLWOTotbSzvooLA9q7Wx0t95551JnpCgD8UKukZUJgnGJ598svsYUOvvg8uIfxCICITCsT5ahS/H/j7R0o6ISjS01odKwnE992gjz0q+TLUsW7Xfr/W+rrffr6eNqvFttX6/kWuq1nYQm1r6/Xqfv+spV7V2I749CFQTju1oYCdeVhKOd99991RDOOGEExI7Ei2xo+Yy7+ya2+PNN9/MQLGWu+4jY/ibYEfIuffrWJPQ+7+euWS0pue+8Bit6/1e7/Z21FQmTmKsnm8kwCqd3EbGx1533XWZcnlf9WE6iec+NNIH+Dw0t1RYR018rfrp3KGAHJZB93eloHKF6f366KJXiA39ZaUrpPXjEI5bv43SEh511FG5HY7veLRcb731Ejldzwt5Vst5Po4lFvo8NbmcfCcpyCLX7/dLO+QkcyrreiGTppyPYztEPE2nyfx8OPHEE9P9+jLpz+3j85Z33313eowvl5YSvBsJElFDf80S0/0LlETecFZyiT5e+PXn9BPuhWXS7LiyUI4nO1QaO1TeH+qWRdurHpYqq9o2LJvWH3300cQOpUtkeaz477//PlMmbRRt45ID2QGBFiIQCwiyworvBz3kyme8D7IKkIjnJ+EoKhxbVzyZB1CJtgq6D0MLZC8Y+vMVudf0QhmX23/4s0P8MnH+4bvRvs2XL17Kl3FcFlloNxril4TjjjsuzVKWuf6cai+lDYPY+3i/VDoJLxLMwt87xUtQi0ORdqi3jWW148vllxrJouCvyVgQV1zR3welJUAgJhAKx4pTPzf11FOXXIu6JkMjgXLCcSP3aKPPSnHdKm23er9f9L6up99vpI0qMW3Ffr/Ra6poO9TT7zfy/F20XJXai7j2IlBOOJZ1qwysvBFWOeFYc/34ZwstNamcDxJDwzhN+ByHvEkv9YypCfhC6+Lw/Hkfk2R1rN8ZvVfOFI28VRkkSGu0tO4P664sUy4xiENsDR0Kx0rbSB9g3ZhlrKlVPlkf+7DKKquk5dM7gXWt5j7s+/hyy9Fdr6C/LHdltM9+hOP2aStX0m222SbtrMLOPlyXNZWEyTgUeeDQ8Ov4S5rPSyJzeB6ta8hvGIq8YOuYMJ/QPYSsnsM4DWeoFs4555zMMf5460e42qEV4+PJPpZZZplMeon0/lxaxi/3G220USZeFsh+GIsE8Zjzqaeemsm/SHs1wjJveKHcaejHVw8D+lCQF4q0cd5x7INAKxGIBQR9MImFVt3XfiIoDcHTsDzd1z4UEY4l0lo/oWlfoOFsYVC/4vsR6+M9jCr0kea7775Lj/f5aGn92bsHcFkZW/+TiX47ZD2i0GjflilksOFnuA7LoX6ykaC+Mh7e6EfHKF/18+H59EEvDHoRCeO1LlcYPsQTz6qN41Ctz2ukjXVsnvByySWXJLIACq+3sFxFfh/C9KxDICQQC8eK01DmUAgI7xtviZ8nHDd6jzb6rBTWq9p6q/f7Re/rWvv9RtuoEtdW7PcbvaaKtEMj/X69z99FylWprYhrPwJ5wnE8uld9dSjchrWMXTtY/7xptIy7wn5+8cUXT+P8yl577ZVJo/T6HZC4KjFVz3h6dlXf6oOdXylzjETmEdba1odYWNbIq3CSu+222y5zvNxyxsGPUPblj4XjRvqAvBEdErR92HvvvTPlk+uzImF01ivoL4tcIa2fBuG49dsoU0LrTDyRtVX8pc13nH4piyoNQwlD0QcODU30+WipL0QKGg4T7td6bCVb7QVb+Wy11VaZfO655x7tdsFOGJWJ00t9tSAecbm0ra+sjYTYNUf8Au/dOfhzb7vttpnTxT9asmwLQzxcWiJUGIq0V6Ms+/Tpk8vOD8UPy+PXi7SxT8sSAq1KIBYQVE6JxP5+9ks9nEpUHjx4sIsL/R4XEY71MOzz0lIfZ8IQjhiQaKOhcD4UudfyBARZc4T5+Pz8stG+zecTL/N+l+J+Lz6m2rZc5YT8tC6/1D5oWGQc7y3ClUZp4/jwt0HDNsN4vZDFoVo7NNLGOldeHVUmfcgoN/SxyO9DXA+2IeAJ5AnHijv33HMz94O/N3Rvy0d6nnCcd/3Wco82+qzk61Rk2er9ftH7utZ+v9E2qsS2Ffv9Rq+pIu3QaL9fz/N3kXJVaivi2o9AnnCskVxyi6b+2PfR5YTj+++/P02jtOuss04KIRZo80Zc5QnHeh6uFOSX2JdLS1kThyEWlmODij333DNzvNxYxKFW4Th+Fq30Dr7ffvtlzq8+LgwyzAjrFxuWhWnD9dFZr6C/DK+E9l1HOG7TtpM7CvmpDf3vhJ2Y1tWpyrm9D0UfOPRVUAKKfqw0YZ6+EulYfVGMz6H9Yaj2gq20+qIZ5iM3D3rI018sWm+66aZh9rnrEsjD/Py6nXU2N33RnfFQmlgYDn3F6ZyyigtDtQfX2LdlLJIXaa9GWcpaL7Z81jWll5JyoUgblzuW/RBoFQJ5AoKG0WnYme9D/FKjIuRHPn4wLyIcx6MC7EzMaX+nPiJ0VaHzyZ+8D0XutTwBoZqVb6N9my9fvMzzo6/foUZCniuHUBjWKA7fTn55/fXXp6esJhzLj7E/zi/Tg//DnUMfAABAAElEQVRcqdYOjbSxP5f8afvz+6WsWsqFIr8P5Y5lPwTKCccio8lw/TUYLvVyr/7Rj8LwFBu9Rxt5VtKETJq8uNxfPMS51fv9ovd1rf1+o23k2zpv2Yr9fiPXlOpYpB0a7ffref4uUq68NmJf+xLIE479+63cbfl30fj5NKzxlVde6SyDZRmrSeo0f4LE2difsJ514pAnHFcb0VtNOPZl9r8vsXAcziOkNBrVEIdGheNK7+DyuezLpuW4446bOb1G8oXxckNZJIzOegX9ZZErpPXTIBy3fhu5Ej722GOus4+Lq847tFgLOzKta5IkH+p54JBPNA1zVl7hl01/HuUZhmov2Eo72WSTZTpc/dhtsskmuX+hL8vwPOG6hsr48oRL/SjWG/RjHIvy8cyu8Q+fBFgNZ/eh1gdXOYwPQ5H2agbLLbfcsoRf7DYjLFeRNg7Tsw6BViSQJyConPLxFvYjWvfDt88+++xMVYoIx6eddlomP/Ur5fo77ddXeR+K3Gt5AoKsJcqFZvRt5fJebbXVMnX1HMMPmOWOLbdfww99Pn75+eefp8nzhONwyGJnCMeNtLGvyOuvv17y0ULujdReeaHI70PeceyDgAhUEo41l4OEWH+/xctYOG70Hm3kWcn7c4/L6Lc1RDoMrd7vF72va+33G22jkGG83or9fiPXlOpXpB2a0e/X+vxdpFxx+7Dd3gQqCceqmUYiayRbJeHYE/j0008TCcESjPURMJ6orohwrGdY7/bM5xsv21E4Dt/B49HP+j355ptv0mrG9Yt/E9OE0crorFfQX0YXQ5tuIhy3ScMNGDAg0cRM5YKGT8vxvH9Y9kuJmz7U8sAhtxThcGb5x9RXSp+vXyrPMFQTOuRnTW40/PFaashHI0Ev1vIFGeapdVmi1BskAMf5aVbaMOy0004laUKBpKMfXJvFUhbm+poa1ldWkXkT46n+1do4ZMQ6BFqVQDkBQRNEhveCX5dAEd8TRYTjI444IpOfhrzpQb9IKHKv5QkIlYYRNqNvK1d2+Q72vMKlhrjXG2LLE+X79ddfp9npRSg8l9bDj4adIRw30sZpRezKDjvsUFKX448/PkySrtfye54exAoE/iRQSThWEt1XsgKL7y1txy/Jjd6jjTwrNUs4bpV+v+h9XWu/32gbVbpxWrHfb+SaUl2LtEMz+v1an7+LlKtSWxHXfgSqCceqkYzEqgnHV199dTqPh0a6PfHEE0nsqqKIcDz99NNXhRgLq7GritjwqhUsjkPhWBWMP+p4P/96fg9H7cmNhn4vi4TRVa8QG/rLIldI66dBOG79NnIllHAs6yOJheWCfD2qcw4f9OX43oeiDxyvvvqqc3Ph85FFs86b5+NYeYahiNARv4zkzeIa5llkXaKuL69f6setkp/PavlqkiWfl5YSisMg1xVhfDwkuzMeXJvBUl9R8yYF01CcvFCkjfOOYx8EWolAOeFYZZRbivDe1nr4Ec7Xo4hwLDcXcV6vvPKKz6Lissi9licg+Afccpk32reVy1cPz3mTtsSW2uWOz9uvSUdjfuFDutxWxPF+GKfy6wzhuJE2Dut89NFHl9RFL3ihpYtPX/T33KdnCYGQQDXhWGmfffbZJPYDqXstFo4bvUcbeVaSQYWej8v97brrrmG13QROqoP6hTi0Qr9f9L6utd9vtI1iVuF2K/b7jVxTqluRdmhGv1/r83eRcoVtw3r7EygiHL/44osVhWP1k+FzknyeK9QjHMcicB7h7iAcSz8QN+++ThMnaxR03759U5Za/+KLL/IQlN03uuoV9JdlL4m2ikA4bpPm0kOxOv3Qd2Ne0W+88ca0Q1P6QYMGpcl0bPjDofX3338/jdeK/Blr9tIw3d133+3SFBGO5ec3PDYUrv2J4iGQEhrC4dk+nc73oLWkLhLefPPN3AkD4wkCK+WlSWFuueWWNMkqq6ySqctmm22WxmlF/pfDui655JKZ+EYfXIu0VzNY6trSsKVY8JElT94PYpE2zoBgAwItSMALxy+99FJJ6WJ/kBqaJ1cCcSgiHD/wwAOZfkJ9xsCBA+Os3Patt96a8S9e5F6rVUDQiRrt23IL/+dO1S3sF7U+99xzu9+WSsf5OLmh0IzbPgwbNqwkv7At5BM6Pp//zVIezRCOq7VDI23s66l6qB+O3Q+pbpoVPQ5Ffh/iY9iGgCdQRDhWWvnGjO+vWDhu9B5t9FnJ16nIstX7/aL3da39fqNtVI1tq/X7jV5TRdqhGf1+rc/fRcpVra2Iby8CRYRjGXeNHDkyt2KyNA778PBdFeHYpGxii2PB1MTY/fr1c2kkmMufu+Z70gdJ3YvSTGoNo6teQX9Z65XSmukRjluzXUpK5YVjWR/FYm+YOH6JlsWIDxJFwx8PrWuSPQW9iMtn0dNPP12S5rrrrnNp4plZdbxeKsLQq1evzPEa6qGgoR0vvPCCWz/xxBMzaZTPuuuumxm+rYdidc5ykVE05FlUzD777LniZ5ynhvlIHBoyZEgaNXTo0Ew55cctDPFEfqE/aaXbcMMNM8f37t07PDyJHfPHP1pF2qtRlv6lUOziWWLVLrG1jipQpI0zFWUDAi1IQCKtrvG8ST5+/vnnRO5aFK+/VVddNbcGeRai8YSeGpoWT+Ihdz0aJhgGTUSqjze+T1ZckXtNFku+nH55ySWXhFmXrDfat5VkGOyQOw8Jxb4sfin/ZtXCZ599liy44ILO7ZJPq9+O+GOm/MT5EP8uaQihfLT6oA8Dvgx+eeedd/ropMjkeNXaoZE2VkH0cqJ6zzHHHMnHH39cMgJEgrImbgxDkd+HMD3rEAgJ6Nloiy22CHeVXZdQ7O8dLWPhuNF7tNFnpbIFz4lo9X6/6H1da7/faBvloMzsarV+v9Frqkg7NNrv1/P8XaRcmYZho+0JhBauvh8+/fTTC9dr/fXXz/Tf3qWFnpNWWmmlTNxcc81Vkq8m1PPn1XLmmWcuSRPv2HnnnSseE1tAy91DGPbZZ5/M8VNPPXUY7dbj5+pwbgslaLQPkBuZWWed1ZVD1rLNDKOjXkF/2cwrqOvyQjjuOvY1ndkLx+q09RKrDi0vHHbYYWlnq447DBIqws5f67LI1bBpdcCySJClVpxGL60SSWPfxEonJ/vyWyOhV6FPnz6Z4zXUWoK0fiS8+KIHXk1YEp9n5ZVXdl/w1EFLZNWwEM38WkuIh8foHMqrnNguX5n+a6LEifCLrb4kSrz25VSZvQ9jPSRLxPdx+iENxQqVOf6xFwsflLcm0/PHa7n33nv7aLcs0l6NsFS7q05eEFc7xS4rNEQntsgs0saZirABgRYk4GdNljVGXpCVp78/b7rpprwkiSah82n8co011ihJe+ihh5ak0xBw+a/VTMPKR6JxLMgUudfUZ/lz++U555xTUoZwR6N9W5hX3rr6Fj3o+/Joqf5OH9fKuVuSJaAmYNUHPIm5Ybjhhhsyeel3zofY6jv27zx8+PDMsSqLhvv6EPtdU3zsy7pIO9TbxiqH3B6p3voNVtBwyJCd1uMPEkV+H1xm/INAREDXt+Y10PNNkaB7Vv2avybjfkp5NHKPNvqsVKQOPk2r9/tF7+t6+v1G2sjzq7RspX6/0WuqaDvU2+/X+/xdtFyV2om49iKw9NJLp32v74NltFA0aOI8f5xf6uN+3rxIeu+WLhA+88ajCaaZZpqqpw41C50zduW4/fbbZ8qk9+kw7Ljjjpl4TeIXB2kTvj5a6v0/DI32AaH4ffnll5d9dg3PWcv66KZXiA39ZS1XSGumRThuzXYpKVXcCctaVS/Xb7zxhhsqoeG9Ejq8uKsfGlnNhUFiQfwC7Dtdfd1TkE8fvbz7/X4pAVEv67JS8fv8UufSlyQFvfj6Mvh4vRDrRyG0mNKPkiaJ8mni5dhjj53I7UY9QdZ0+vEL85QoI7cZct0hC2oJKxKM/Yyymgjwq6++Kjndc889l/Ts2TPNSz9mqocscX3++lIaWy1KbI05qgzKT+HCCy9Mj/f5LLbYYs7azBeiSHspba0s9dIo4cQLO0cddZQ7pc4Xf5lW2fQFOhTei7axrwdLCLQaAV3D8hmv61u+0DWEKp4lWr5z1e/JglXWWnGQL3jd+/7+9Uv1zcovFEh1z+nDmU+Tt5TbGd+P+nNVu9dUrrxRB+utt15J/+/z9Mt6+zZ/fLWl/F6GYpOvsz6gSazV6A711fKlrmHzile/HY9i8ecJ+1xZgz/yyCPOB2s4MaosY0LusuSNLVd0HvX9itO8AIsvvnhJu+jjpfpDH6q1g9LV08b6ndDvkq+7Ji5UkL9CzytcSvTyfvuL/j64DPkHgT8JyP3UVlttlV5fstIKf9/LgdJHaj0L6HrME451XD33aDOelcqVOd7fDv1+kfu6kX6/njaKOVbaboV+vxnXVJF2EIda+/1Gn7+LlqtSGxHXHgR0n8uwQO+O4XOA1uUyQS4PigTN+RAfr209d6kvj+P0Di83DAr6bdC5wjQyAvA+kvPOr1Fz8TE6XqM9FPSurdFVYZ5a13uprm99VMkTtf3xesa76qqrSo6XJbX/LWu0D5AhWKwjyH2j3hv07qz3e1kjy+2HBGb/bp/Ho9K+0U2voL+sdDW0RxzCcXu0k5v4Q1/5zjrrLGeZKgtX3+l6x+3aln9EpQlfnsMqyoJXwxP9TNQSReWoPbSWlbA677zzuvz1RU+Ch6y2FG6++eZ0pm39mMn3krfC9efRMGk/yYgEYFkSS0iJg17884QX/aDox7KRIP/I+iKbN2Tac5OYrWE61QRqMVMdJID7Y7XUj6v2a2hxGPTDFaf1x2m/Jq7y2/FSFsBhKNJeSl8LS9/24bk333xzV5dwX7iucssNig9F29inZwmBViAgYS7Ph6yudfVnfuSEL6usPDVjfBjUF4ZiZXifhOsSkMNJ6n755Zekv/XdG78EqP+WSx4vGobn0nqle23fffct25eo7w3dXsT5arvWvi0vj2r79LC/ySablP1QqH5UvzcSNOSqolLQB7f4YV7MZc0SWxorH3EN2yRc32GHHZI8Sx6fRiJtGCq1g09XSxufcsopJWXT762GoMajUXyZtAx97Rf9ffDlYzl6E5BLsPBaCtfjEU95pOTSTPdfOeFYx9RyjzbzWSmvvH5fu/X71e7rRvv9WtrIM6x12VX9fjOvqWrt4JnU0u834/m7aLl8+Vi2HwG9x3vDprCfjtc1SlQfmisFvaPLbaQ31pLgKUMzGZdJnF577bXT51JNuO7nBtJxob4QnzvPlaT62krHSBz25Yjz07bqrWfXvDjtk9B64IEHlo3Xu+qDdm6kRt/BpaEUec735dSzW+gCrVJ7xHGjm15BfxlfAe21PYaKay98QosTuO+++4ztxMwiiyySlvSpp54yVswz9mXbzDDDDMa+fBtrEWJsp5ymKbdib1xjH7CM/SpYLomxXzONtbYzdkhjSZq33nrLWEs9Y3/YSuL8DmuZa+xDkrFCjd+Vu7SWfcYOvzLWAsxYi2ZjLcCMFRNy09az04onrq62czbWNYWxXzKNHaJprGheU3b2S5mxXxWN6i5uags73LymPOpNXKS9lHdHs4zLX7SN4+PYhsDoSkD3svoRa1Vh7MdAYz+yuf67Go+OvNc6o2/TOazwZNQP60+/U9avr7FWIoV+szwfPbKoT7f++90uO1LD2BchH93hyyLtUG8b11v4or8P9ebPcRDwBKx/cWNfyo21tPK7SpZdfY+WFKgFdtTTJ3Tkfd1ZbdQd+v2i7VBPGzdyaRYtVyPn4NjuQ8COGjG6H63BVkmltF9agt6PCf8jcMghhxg7909hHNbozekmhQ/ISTg66RX0lzkXQBvsQjhug0aiiBCAAAQgAAEIQAACEIAABCAAAQhAAAIdR0DGc4suuqgT24ueReK7daVWNDnpINB2BBCO267JKDAEIAABCEAAAhCAAAQgAAEIQAACEIBAswhodJxGJssq1k4uaOzEzsa68TDW1Zyx7j2MnWvCfPnll8a65DGHH364E5c1utr6eHdpmlUO8oFAqxFAOG61FqE8EIAABCAAAQhAAAIQgAAEIAABCEAAAp1GwE7a7ARhndD6XTZ2Aryy5+7du7d58sknzYABA8zFF19cNh0REOgOBBCOu0MrUgcIQAACEIAABCAAAQhAAAIQgAAEIACBughoHpJevXq5Y3v06GHspMVmvfXWM3bSa7fvjz/+ME8//bQZNGiQufzyy438G99yyy1m7rnnrut8HASBdiGAcNwuLUU5IQABCEAAAhCAAAQgAAEIQAACEIAABDqEwPXXX28OOuigzIR3Eo7HHXdco4kGf//9dzPddNOZvn37mtNOO81MPPHEHVIOMoVAKxFAOG6l1qAsEIAABCAAAQhAAAIQgAAEIAABCEAAAl1GYMSIEWbkyJHmo48+MqNGjTKTTjqpmXfeed2f/BoTIDA6EUA4Hp1am7pCAAIQgAAEIAABCEAAAhCAAAQgAAEIQAACEChAAOG4ACSSQAACEIAABCAAAQhAAAIQgAAEIAABCEAAAhAYnQggHI9OrU1dIQABCEAAAhCAAAQgAAEIQAACEIAABCAAAQgUIIBwXAASSSAAAQhAAAIQgAAEIAABCEAAAhCAAAQgAAEIjE4EEI5Hp9amrhCAAAQgAAEIQAACEIAABCAAAQhAAAIQgAAEChBoe+F4jDHGKFBNkkAAAhCAAAQgAAEIQAACEIAABCAAAQhAAAIQaF8CSZJ0auERjjsVNyeDAAQgAAEIQAACEIAABCAAAQhAAAIQgAAEIFA7AYTj2plxBAQgAAEIQAACEIAABCAAAQhAAAIQgAAEIAABCDSRQNtbHDeRBVlBAAIQgAAEIAABCEAAAhCAAAQgAAEIQAACEICAJYBwzGUAAQhAAAIQgAAEIAABCEAAAhCAAAQgAAEIQAACGQIIxxkcbEAAAhCAAAQgAAEIQAACEIAABCAAAQhAAAIQgADCMdcABCAAAQhAAAIQgAAEIAABCEAAAhCAAAQgAAEIZAggHGdwsAEBCEAAAhCAAAQgAAEIQAACEIAABCAAAQhAAAIIx1wDEIAABCAAAQhAAAIQgECXEUiSxPz4449mookmKlSG77//3kw88cSF0pIIAhCAAAQgAAEIQKB+AgjH9bPjSAhAAAIQgAAEIAABCECgAQLvvPOOGThwoOnbt6/Zf//9C+V04oknmgceeMBcdNFFZrrppit0TC2Jfv/9d3P//febl19+2YwcOdJ88sknZpJJJnHnWnHFFc0yyyxjxhxzTPPggw+aN954w+y44461ZE9aCEAAAhCAAAQg0DYEEI7bpqkoKAQgAAEIQAACEIAABLoHgT/++MOcfvrp5pBDDjGrrbaaueqqq8y4445bqHK//PKL2WKLLcxDDz1kBg8ebDbYYINCx1VL9OuvvxqJ0uedd54TjJX+L3/5i5l77rnNf//7XyORW6LyFFNM4YRuicY9e/Y0N9xwQ7WsiYcABCAAAQhAAAJtSQDhuC2bjUJDAAIQgAAEIAABCECgfQnss88+5uSTTzbbbLONE39lwVtLkPC82267mbPOOsstJUI3EmRVvOGGG5rHH3/cZbPJJps4S+jevXubSSed1O2TYH3LLbeYPfbYw4waNcrtk/Xxo48+2sipObYNCYwYMcLMMsssbVhyigwBCEAAAhCojQDCcW28SA0BCEAAAhCAAAQgAAEINEBg6NChZssttzTbbrutOf/88xvIyZiVVlrJuYw488wzzS677FJXXm+99ZZZYYUVUjF4zz33dKL2GGOMkZvft99+azbddFNz9913m7nmmsu8/vrruenY2T0J6KPBzDPPbH7++Wdnkd49a0mtIAABCEAAAv8jgHDMlQABCEAAAhCAAAQgAAEIdAqBZ5991vkIHmussYysNuX2oZEgdxELLLCA0QR78jm89NJL15SdXFDomCeffNIdd9hhh5kjjjiiah5fffWVWXjhhc0PP/xgvvzyy6rpSdB9CHhrebktkSsTAgQgAAEIQKA7E0A47s6tS90gAAEIQAACEIAABCDQQgTmm28+88orr5j99tvPHH/88U0pmVxWDBo0yCyyyCLm6aefrinPww8/3Bx55JHumBlnnNG8++67RqJ2kXDhhRea7bbbzvz2229usrwix5CmvQnce++9zr+1RGOE4/ZuS0oPAQhAAALFCCAcF+NEKghAAAIQgAAEIAABCECgAQL33XefWXXVVV0OTzzxhJH/4GYEWQv7vG688Uaz3nrrFcpWlsLTTz+90aR4CpoYT9akRYNcFchVxUsvvWQmmWSSsofJH/Onn35qxhlnnIYtrMueJCfiu+++M/LdPOuss1YVwz/++GM3OWGPHj1cTp999pmr03jjjZfmLE7vvfeemXPOOdN9stj+6KOPzEwzzZTuy1vxkwuKlw8SXt9//33n9qGc5a7ON8MMM5ixxx7bH1ZxWbTO9dTlxRdfNMsvv7z55ptvXBkQjis2BZEQgAAEINBdCNhhXQQIQAACEIAABCAAAQhAAAIdSmCdddZJ7DtUMvXUUydWTG3auayAl1jh1uW92GKLFc73tNNOc8eoTFa4TKwgWPjYIgmtoJz8/e9/T6z4mp7nr3/9a7LRRhsl1uo6k8VNN92UWJcZuX9h2kceeaQkzR133JHmZSfwSw444IBkjjnmSKyPZndeK1gnyy67bPLCCy+k6bRiLaWT66+/PrFivktrrcCTDz/8MNl4440Ta3Wd2EkBkyuvvDJ55513kv333z+ZaqqpXH5WdE2s4JtsvfXWiRWa3T4rHCfnnntuJn9tjBw5MrHuPxIr0Lt0VqBOPv/882TgwIHJ+OOP7/ZNN910ibUaT1R2BSt2J/3790+mmWYaF6+23WqrrRKdNy/UUud662I/KiTjjjuuK4+uF/2F7aV6ESAAAQhAAALdkYD8gREgAAEIQAACEIAABCAAAQh0GAHrAsKJsxLc7IR2TT/PiiuumIp6Ej+LBGulnB5j3VQUOaRwmmuvvTaZYIIJkjHHHDM55JBDkttvvz0566yzEuvT2Z1z4oknTiQW+/DFF18k55xzTqL9Xpicdtppk2HDhiXWWtcnS6xP5eTxxx9PJppoIpfuhBNOSKzltIu31rlJr169nMCpc6oMO+64Y0ZAVjkUbrvttkSCrT+XlnZSwGSppZbK7JNo6wVon/b5559PevbsmUmnOInNTz31lMtf/zbffHNXf3+clg899FB6bJyvxNnXXnutpFz+eAnbcailzn369Km7LgcddFBiJ3NMppxyyrTeEr+1T3++DeLysQ0BCEAAAhBodwIIx+3egpQfAhCAAAQgAAEIQAACLU7g9NNPTwW3Lbfcsuml3WKLLdL8zz///EL5Tz755Okxyy23XNVjrEuG5Lnnniv79/XXX7s8Xn755dQ6VWJoGF5//XVnySsxVMLpAw88EEYn5513XlqmeeaZJxPnN2SxKwtpWS6HYbXVVnPHDh06NNydHHvssWmeEsi///775O23306sv14n7nphVsu55547OeOMM5zFsrZlfXzLLbc4Udink5hs3YEk999/fyJL25122inNX2XwwbomSe65555kwgknTOMlLutYWT/Lglhiuc9XFsiyMpbVuARmieQ333xzapksXmqDMNRS5zvvvLPuuvhz6jrx5ZWlOwECEIAABCDQ3QkgHHf3FqZ+EIAABCAAAQhAAAIQ6GICe+yxRyq4ye1Bs4OsZb2gJ/cQ1cK3336bptdxso6tFiTAyiWDP0+4lAgtYVJBbiEUN/vss+dmeeCBB6Z5LLzwwhm3HXIfEVrzhm4qfGannHKKO14CtQ+33nqr2yeXEMojDNoO3SxcccUVabTK7OshUddOLuji5EpE1rw+LLjggmm6ww8/PFNm61c4zV9uSOJg/QKnxx599NFxdLLMMsuk8bLi9S4rfEK5rfBlvOuuu/zupN46N1IXhOMUPysQgAAEIDCaEGByPPsUQoAABCAAAQhAAAIQgAAEOo6AJqyz1qPuBNb62Fiftk092XHHHWesIOvy1ARm1mK1Yv6a/M1at6Zp1lhjDWPdOKTblVZOPvnkzCR6Vtg0gwYNMtbNhLEWxcZaCrvDVWdN1hcHnXvmmWc2P/30k4vSpIErr7xymuyYY44x1tWE27bWvObss89O47RirYJd2R9++OF0/wYbbODOZd1PmE033TTd71fOPPNMownqFJT3UUcd5datz2Q34Zs2tttuOzN48GC3P/5nxXBj3Wa43ZpYLp6sTmV644033AR7mjQwDOuuu66xVstulybhsy44wmizyy67pHVUeXSuMPzrX/8y1lWE23X11VebTTbZxK3XW+dG6qJrS2VUYHI8h4F/EIAABCDQzQkgHHfzBqZ6EIAABCAAAQhAAAIQ6GoC1srTvPjii64Y1113ndlwww1zi2R93BoJk3nBTvKWirJx/IUXXmisr1m3e6655nICbpwm3rZWwsZOiOd2L7TQQsa6oYiT5G5bVxHGWtamcdZlg7F+m9229TlsrEW1W5eQba2U03ThirVcNY8++qjbdeqppxprkZ1GS1i2LiUcB+vL2Fj3DMa6h3DxDz74oDvXVVddlRGI559/fmMtkM0iiyxi5p133jSvvJVVVlnF9OvXz0U99thjxlr8unXrQ9gcf/zxeYcY60M6FePzhOMllljCDB8+3FgXGk5QDTNRW99www1uV55wLFFY4rBCnnAsUd5/aLj88suNdUvi0tZb50bqgnDs0PMPAhCAAARGJwKjiWU11YQABCAAAQhAAAIQgAAEuohAjx49ct0NxMXRhHL2XSz3Tz5wywX54fXHaQK6IiGcCE7n/fHHH4sc5lwp+HNp+cwzz6THaTI6H5fnlsEnlJ9nn26HHXbwu9NlGC+fwz7I57AmzZN/YB/kVmK88cZz+ckNRi3BCsdpOfImn/N5hZMPhuf28UsuuaTLR76X4yBfzL6u8okch9B1hxWO4+jECsfp8VY4dvGN1LmRuuCqoqR52AEBCEAAAt2cAD6Ou3kDUz0IQAACEIAABCAAAQh0NYG//vWvqfgXT94Wlq1e4ViTqHlxUhO8FQkSbP0xWl5zzTVFDnM+hMPjNGGeD6Hgq0njygVrZZue27pqKElmrXfTeGtB7XwKS3S1LiIS62oik16Cty+PhOVaQrsKx43UGeG4liuEtBCAAAQgMLoTwFWFfcoiQAACEIAABCAAAQhAAAIdR6B3797mySefdCc47bTTzO677557MrlgsJOj5cbZCd7MZpttlht37rnnGvkDVujbt6+54447ctOFO+3Ec0YuNOSrVmGdddZJ/TCH6eJ1+QoOffzKxYVcXSgceeSRxk4e59b79Olj7ORzbj3+pzRKqyD3Fvvuu2+cxCy++OLmqaeecvvvuecet37YYYeZESNGOFcW4QHybfzJJ5+YSSed1LzzzjvGWl2H0em6fDB/8MEHZrXVVnP7Hn/8cbP00ku79UquKuSKQ24yFPJcVVjrbfPvf/8711WFFbON3JMo1OOqQv6Z//GPf7jjQ1cV9da5kbrgqsI1A/8gAAEIQGB0IjC6K+fUHwIQgAAEIAABCEAAAhDoWAJ2grTUKlbWts0Ohx56aJr/zjvvXDj70LWEfQdMrEBb9djffvstPZeOCS2OZbWsffqzPpmTL774Ije/7bffPk0XHh8mvvTSS9M0a621VjLTTDMl4pgXQhcK1l9yXhK3T24jQovldrU4VmXqrTMWx2UvDyIgAAEIQAACJQRwVVGCpLEd3377bWMZBEd/9913wdbovarhaNYqJBeCtfpI8vyl5SZmJwQg0C0IyLfh999/35S60Nf+P0b62v9nwRoEINBcAnbys1QEtZPYNTdzm9vAgQPT/E888cTC+duJ6JLQ//Jss82WfPnllxWPryQc/+c//0msJWxaltA/cZiptSZ2aewEb+HuzPrPP/+cTDXVVGleEqPvvvvuTBq/YS2Y03TyM3zMMcc49xY+Xsvzzz/fpbFWzOnuUDjec8890/3xygorrJDmby3C4+jE+zgeYww3oDUTbyfHS48dNWpUJk4boY/jhx9+uCReDL0Yf9lll6Xx9da5kbqEx/rnBz2T6I8AgZBArc+q/noK8xid14u843/66aeJHUFRFtNXX31V2Hd92UyIgAAEElxV2KeQZgR7LRkNo9KQM8203Iyg4VfHHXec6d+/f13Z2Yfa3Nmh7cQiRrMQ1xo06/Sbb75ZcpiGwtmH7JL9zdih4XQaemgtLtys1/YH2NgH0jRrK3KYv/3tb+b99993M2nbB+I0rpVWNIu4ffgvWyQ7oYlZYIEFysYTAQEI/D8BDcG1AoEbiuxnrv//2NrX6GuNoa+t/brhCAhAoDYCehaSWwiFtdde29jJ7GrLoErqNdZYI3ULYf0DOzcPVQ5Jo+VqYtVVVzVWMHb7rE9h5+pi1llnTdOEK5VcVSjdOeecY6zVsztk8sknN0888YSZc8450yxUviWWWMJt33///UauE8qFgw8+2Bx77LEueo455jBvvPFG5lnYH6dnYpX7o48+8ruMFXOdSwq9E4j3yy+/XOLG46GHHjLWAtcdY62aza233poeH64svPDC5vnnn3e79E4glxhhWGyxxczTTz/tdqks1ld1Gi2XHVbwdttvvfWWmX322dM4reyzzz7m5JNPdvuUzrvR8IlOOeUUs/fee7vNk046KV2vt86N1KVfv35myJAhrixym7HBBhsY1W/rrbc2AwYM8EVmOZoTqOdZ1X7wMg888IC56KKLjJ5N6wlyY1OvFmFHNJhpppmmntM2/ZhK7/jSXdRvqp9Vv6b+0/cvYUHsBydjP4aZiSee2NgPZE4zCONZhwAEaiCAeN44AfsAlyyzzDLJRBNNlNx3332NZ/hnDrZDTCaZZJJEX+nLDXOrdLL33nsvkTWDymUvifRvzDHHTN5+++1Kh+bGaeKOMB+t9+zZM7EPs7npG9258sorl5wv/povqwtfJk2m0qrBPkwms8wyS1pWX2Yt7QtFYj8OtGrRKRcEWoaA9UGZ2JfHRPf6euutl8gSqxmBvpa+thnXEXlAAALVCfgJ8qaeeuqmW2hqAjk9V+nZt56gkW1WzE2f1fT8LJcP2i8LYz2DWlE2ueSSS9w5/LPcZJNNVvJcrd8rHevTyIr52muvTawP4sQKHYnqr7h//vOfVYsqazo9uyu9FVcrplfe1hghPa8/v1/qvKqDD1YAds+gPl7vHcOGDcu0jeqt38mxxhorzdcadWTSWGHcTdrn87ngggvSeGt0koiRj5MltPj4oPKIj4+XNXr4+y6LcOs/OY1fZZVVMhaEtdS50bqozKHlvMosLnoPDOvk68Zy9CPQyLOqrnu991ujrOT666+vC55GW9gPI4lGHfh7quhS13arhHLv+K+99lpiP6Bl6mY/NOUW2/q6T9NZP/K5adgJAQgUI4CrimKcyqayX/Vc5z7llFMmdsKPsunCCHV4EnWLBPtl3w1305A3ayVQ5JCSNF9//XUy33zzpR2nfjzkz62WIOE6nuVaw900hKSjgv3imtx7772ZB9VYONZwQM2crTrZSTM6qihNy1cie/jjbSchSVQHAgQgUJ2AtTZy988222xTqO+hr63OVCnoa4txIhUEINA4gVNPPTV9DgrdJTSas57H/fNV6Mqg1nz1nDl06NBExgt28rs0T4mDdmK+dFvnkmsGiciVnuMGDRqUcYPhyyjh48orryxcPGvVmtgRg4mGXVcLenfwz8b+fFraSd0yovHtt9+eyK1EmMav673BBzthYG4aCdQS1fPOpXyslV+y+eab5x4rlhKo//73v+fGS/SSf2e5osgro+LtZHu+iEnROjdSFy9mq72thaMrt8qx+uqrJ9a6NC0LK6M3gVqfVWNaEp69sdZuu+0WRxfefuSRRzL3lj7Y2Mkr0z/df+oD7IiGtG8LfZ8XPlEDCeXis5xboHLv+NovfSB8py4nHJ933nmuH5e7HzuyroGScigEIIBw3MA1YIdQJHbInbPolUBRNMwzzzzJ+uuvXzR58uCDD7qO3w7rSiQC1xMOOOCAzI+HHvbkE6hosC44MsfrgS8WcYvmVWu6UPTOO6f2yYKjHYIdnpfhyI9YO7QaZWwFAnY4qLt3avGLSV9bW8vR19bGi9QQgEDtBH766adkhhlmcP25ni2bFSTQSqyURW2e/916ziN/o9aNQ3L11Vcn1h2d+5N1qyayKyLg+nPqOVWjE617AycWSzDPe5716fOWel68+eab86LK7tPowquuusqVv56RhmUzbuGIzqyzjIBC6+0WxkLROolAPc+q5YrmJ3BU31NvmHbaadP3zptuuqlsNjJ+06iGSj7Oyx7cQIQmMdWkpuVCpXd8jcTwH7rKCcfKV8K0/+hT7jzshwAEqhNAOK7OqGyKTTfd1HVYtc4MXauYoQLIlYE6R+u/rWx5KkVoyJjvXP1SXxiLBD3k+yF1/lh9ueusEA4brPVBu7PKWPQ8msTPM9SyFvG+6DlIB4HuRuCZZ55xllayXqrFbQ99bW1XAn1tbbxIDQEI1Efg4osvds9CM844Y1MmOdXoN+s/2OV5xRVX1FcojoIABCDQAIF6n1XLnVIfi8YZZxxnMSvr4HqCjM78e2cl4Vh5b7zxxsn2229fz2nqOkZGXxrNXEk4rpSxBGFft0rCcaU8iIMABIoTQDguziqT8pprrnGdlSx3a7E6UCb1iBnqXL1vMVk71Bo0bE+dq524Iu1k5Vv3+++/r5qV/JjFx1rH+VWPa1YC+Q3zPwztLhzLT5uvi5a1iGDN4kk+EGg3AnYCTHffyLVLLYG+thZaifPR6Psn+tra2JEaAhCojcB2223n+vW99tqrtgNzUst1mvouO8FaTiy7IAABCHQ8gXqfVSuVTG4Y1bctssgilZKVjfMf1JRHNeFYLjHvvPPOsnk1M0I+4727l3qFY/ln98+sCMfNbB3ygkA+AYTjfC5V9y699NKus7Kz6FZNGyeoR8xQHt7B+0ILLVTzEDcvHGsZTppRbZIN+VnSj46+ePrhN+qkiwrH8l2k4Xn6gSgaNMRQX1nlCkRh2WWXTX8YyokZ+upYbbiYyiJXEb/++muhonz44YclHwUk4BcR28udoBbhuBnn19Ac1bmS/724rGrzUaNGFRa11baxyw1Z/8jfm/IqF+SPsGhbKI96rqVy52Z/+xCQHzP/YKjJd2oJ9LWVadHX/o9PM/pa5aTfoGq/Q2GL1NrX6liNWrGzpYfZuO14X5hAw+3VpxcN+p1V/63fKwIEOoqA+h8ZBmh49B133FH3aeTnVs+oq666aiHf93WfiAMhAAEIlCHQyLNqmSzd7uHDh6fPwDfeeGOlpLlxRYRjjSwuEmp5NtAzR+i7WCNs/Xn0jijLZv9sX004LveOr2cbn0cl4VjllhbRLBdGIatamOidV+XwQc+AI0eO9Js1LzvjvVhlDttRhZTRW6VnzryKFC2r2ihkpLykMxSdG8zrHv5a07HVGNfShiqPrm29N/ig5/LRxRUKwrFv9RqWzz77bNpR1eN3qF4xQ7Ok+g5SzuxrCV441gylYWfds2fPiuKdfqR0zq233tpNoOTPX0k41k0vn8qa+MNPaKGHegnAL7zwQtliq4xK44VtTTihmZOnn376tN66ucMg33ObbbaZe2nQl8s46GukXHJo8kJfdvln1ozbhx12WIkArw5Ss15rUhSV3bshkauP3r17u32qi36gau00VbZqwnEzzi9GmnxGM+r6iV1UF/njvvXWW2NE6fZLL73kJinx/MVLs59vtNFGbvKTNOGfK+qIxdC3jxc0Bg4c6NwK6HhN6qiJHfyPtYT3/tbtiq4fxWv27q222qrsNVjvtRSXle32JeAnspG7nPj+r1Yr+tp8QvS1ietzmtHX68Oc5izwfZr6tQknnDDZddddy/5G1NrX6iVLI43kqkq/izvssINrWPk79ZNSSXzTb+B9992XNro+9up3y49Wmn/++ZO77rorjY9X9IIqn4pyCaN6+D78iCOOqOnjb5wv2xAoR0AvW5pISs9Vmgit1jB48GB3T2jiuFpH/9V6LtJDAAIQKEegkWfVcnlqv8RFvSvp91ijhmsN1YRjPVdPNtlkzjinXN5Fnw0k0l1//fXuI57eOzVKUAKbXGDoOWTSSSdNTj/99MzoZ/+cIYM8/WkCPx+qveNXE44lcJ500klOj9B5NFmgD4rz5yyy1CSoYSjKRMe8++67yYEHHpg+J8qYS7rCzDPP7NpVH1D1/l8kFH0vltuUcvXyz4HL28lSwzRqJx/CMsuSXkGj7XWMnjfFc5ZZZnFGhf6YeFm0rDpOxgr7779/Ileoyls83n//fac/9ejRw+2baaaZEo2Czws6XpOU+rJpOddccyVywafn4LxQSxvqPjnrrLPS8qmMum9WWGEFN/ltZ1nq59WjM/chHNdBWyKqLhj9hZ1Q0azqFTMefvjh9Lwa4ldLCIVjfcnRy6evQ9wZhvkutdRSTizVrMkPPPBAekw54VhfhHr16uVmZ9XMrHox33HHHTMCcix662ZUh6ryaMIUdUyyLNxjjz3S8/myeuEobxbnWDiWxbJ3zaHOQ2XRJCGhBXM49F0v5uEkAjqnyqWhj/784bKWCQ4900rCcTPOr/xldaNyqnzKUy9W8iPoy57X6YqN/Eypo1W7qY3UQU4xxRTuOAkJ4RAnzZLtO2efr37g9SFC2/6DgY/TRw9NICkh2e8Ll2E7eFb1XEv+WJbdg4AeXHxfFd/fRWpIX5v9wEhf+7+rphl9rXLSRFcTTTRRIrdPmphL/Wb4fJA3oW2tfe2DdnLcsP9Wv6mPv+ozwz7Ur+s3TC9TmuDG7wuX6tPzrC80+kgfGvVRdejQockZZ5yRzDvvvGkeyy23HNacRTod0tRFQB889Pwg6+GiQdepnkX1zEiAAAQg0FUEGn1WrVZuP0mefstDS8dqxym+mnAsHUP5fv3117nZFX02uO2220re8fQcIh0hfAbRx25Nci0DLL9fH7W1T38XW//3Rd7xVdhKwrGekWQo5s+hZajZ6B1T+8Yff/xk3XXXdc9uvgxahsYAEr1DH9NFmaiMa665Zvoe48ui58D4PbmSYZfyUajlvfiHH35wv42LLrpohsGAAQPStr7hhhvSuPXWWy959NFH3ag2jab3714qs54FzznnnDStr4dfHvt/7J0HuCRF1feLT3kRQSQIEkSSIpKjRAUkLJIkwwKy5ChhRYLiK2HJObOwJMlBgkRBcMkZd2ElSBAlyyqoYEJ9+zu/wlOe6dsz09Mzc3fu3HOe597u6cr/7q6u+tepc44++qMKmv+t1JXy8nhMnDgxcQpaDkfuBc5lraAkyDgZpQ3GroQfc8wx6dkvIo5buYeUxQIE5aPAceedd0ZFvG222SZxIU4c2zvi5zUIMEnUh7iKl+KqZAaaTVouBGsrYolj0kEqal6sJCkha/N88MEHYxw6PaQMcawfAgb0VuhUtLy8M5TDDjsshvHC5ye0aC5rOo5aT7Y88JFie4uG54kltc1MOB6xVSCUdfUKLRdd5XtFTCfQGaBhq3lyZEUJEpXVLDCx2ssPPfSQZlvq2Ig47kT5fPyo89Zbb11TH9vhs3KtbSYSNq304wrBawUTFKwQkyedOs8AwiQPrLhnihWdOR8etMrJ35bJh5mPMEQ+BDMfNLTluK5557d4V3mWbN39fOgjgGaCPl/bbrttyw3yvrbW8ZT3tR89Qp3oa5944ok4sKbfow9Voe/TBTSe3SOPPFKDKvW1bIlDO4SdHPoucKRfZtGXATOexdlhouFosUACM3BGY4MtohtssEEKV41lrZh+63lf0BhSYRcJu04031NPPVWD/OgIdBwBtsNCGJQV3jv3E1EWLY/nCDgC3UKg3bFqs3pBUOl3GHvurYgljtndAVnI35VXXhl3L6mGZxFx3MrYAD4Ecx0oFmldOUIUQ+axC5nfqihkOYW8qYoyc3wwaEQcU3cW3u0YxhLHL7zwQqxPEWGLgp3deXXssccmyFvBhEQoFMBX6DwbDJj7shsaEpexGuO5MubEqsyL+UaiPKf3BCJf5eSTT47X4QyUX0EbmsXY448/PqUhLfVH8Q7CFW5G5+8axrjaSit1hXRFoYPxtNYTrgJO4e67745k9h577JHCyNsKY13S7bnnnvZyHPuyWzVPHLd6DxkXK9+R321+6KGHxrKdOK6B3n8oAtYQOw+p2lDRcI6sBqLVU++PdKzk1AuvtyWbjlRfKI50emUlTxw//PDDNXkVdZy8sJSDpjNiO/kijWPyID6mC+zkk7T8tp2mer2mo9SXMf/hIB0dnl310o6NMIRJsWKSJ45xuKJhTPKtYIpCwzCfYEXNcxDOhy5va0e1owk/++yzbdKm542IY01ctXw0gqkTZDi4WGELp2oIc7T2ilQDG+24IrHthZyw94AtK4qjJUg0H+vYEOJDTVZo+KhRo1J63TpDWJVnSfP0Y/8gYHcdsIUpL97Xel+bfyb0dzf7WkxH4KiGvi9PwlK+1fbdd999tUppt0uVvpYJkPa1TALyi9Ys5mk4E0G+8VYY1Gs4W/dU6M9VI4UF0ryMGTMmpWMC6uIIOAKOgCPgCDgC/0Wg2Vj1vzGrndkxRV4xqFmOljjWMUDRMU8cVx0bQKBp/hCBOv8mP7RQVSynUDT/J16jOT7hjYhjwhG7C8wSxyw8Qk4ynrMCr4NpR20DynM6762KCflDXmqedscyY9UyvpPamRc/++yzNUQviw/sAob8ZSxbxGXRVkvkYnZScaA97AxXXoF2MZ9XqVpXizuErC2Pe608EjyZlS222CJiy47rvBxxxBE1xHGVe8iCtt47SGcrEO3sPHTi2KLi5wmBCRMmpIcHzeMigaRjFaneH0Qp5Gq9cAi2eqIvDQ8wE8mykieOSWdJPc6tqDkLtq2q2E6+iDhWLWbMEfARzf/ZDghzCAirQ/oy5ifCWi6mLzSO7UQI50OnYXnimIkzml+Qm/bDwLk6GiTtK7lVMjsBVxvHWheOrNJqmaxytSJlyIyq5etWJnvPbN24f2y/we6lCh8ObQsLBUWCtppdWaR+KmrTizzQTsuLvb/2g63xrCa61Qqv8ixpnn7sHwRUg57nC42OvHhf631t/pnQ393sa63ZqCKnXizM0bfxDUQbGGm3r7W+FYrIatve/LdQMWFRkXcJzWIVdojoN4CxR/67bccJTBLyi3+ajx8dAUfAEXAEHIHhiECzsWq7mKhGJd9q5rStiCWO8VfA+IU/NDnZGaraqHniuOrYwI6PGpnVtJxCPeK40RwfDMoQxyze6xjHzkMZy9jfiqn1A4W2slW0qooJeescnbrkd9hq2Y2O7c6LrVY8Gs4LLLBA1HTGzEo9gRClvuxiKxKr/EV+KlXrasebdme05qvPKlyYlb333jvdYzSTUfJUgVvC54hKlXvI+FqVGOGVeHeswGnpAom93o/nbuO4xbtq7cEsuuiiLab+KHrV7dOktltgITDLShFxzLYA7Uw52lUUJqZcww6Piu3ki4hj8CANq1c4PGv0p05Q9IPGhDSvpazlqkYseeeJY0wecJ2/epNlzYeVTpy5WQxJl+80rWZXEXFsV1NZyWpF7OSesou2WVYtn3tCnjgLLCvHHXdcwg/N4npi7wGO91RwSEOZ/BURx1ZbuegDzfYlTW8J7SrPktbJj/2DwOKLL56ej1ZsXyoC3td+Kzmc8r729/pYpGPVvtaa4cGcTxlpt699+umn07tQRBwzCdK+tN63UE00WY1n3itN1+ibrWFM1FwcAUfAEXAEHAFH4CMEyo5V0fzEdmvRH2H1BEdq+p2GPGtFdOxHeuurRvOAWCMsTxxXHRtgC1jrqmYptCx7tJxCPeK42Ry/DHFs/RQVzUNtnTCzqXXHhARatVaqYkIea665ZsobLdVWpd15MfyJ3W1NO5vNq9RcBzaOi8SSsPA4SvZWrSuO5hR/zcuWq1rbkLhWrMId6TEpivIGO/XzUvUeWlKbMnDEZ+1e58vp199OHLd4Zy3RZbd7tpJNO2SG1b7FGU9ZKSKO6USoi76krJgiaJh+4hOfiKtReHNVsZ18njgmL9KQVyMCUvPiiDdt3eaQz8/Gs6RlnjjGXrHWv95kGZMe2223XSyLctj+QFxNlyeO7WppEXF8xx13pLTdII6rlM+KqLYHMres4LhQ0xWZmtB8sC+r8SxpYe1BVyGOeYY1XyWOqzxLWk8/9hcCSnTxjFhTJmVb6X3tR0h5X1u8SFelrwVRq90AoVtG2u1r2VapfaXtg7XsMsQx5rHIwxLHqsmEDfui7Yqavx8dAUfAEXAEHAFHYCACZceqOCHX73j+yM7OemIVvfiOtyLNiGPywrxVnmSrOjZQ+7G0r13iuNkcvwxxfMABByTMGxHH7LRWDVvqbpWkFO+qmJBeHdeTd6vEcafmxeyAUzKYejRTQNS49Yhjxp2qiUt+8Cnt1NVqZRcRxyuuuGK8l3nimJ3kKM1RB/uHZYDrrrtOb188Vr2HPNc6hrZlYG85b9K0psA+++HEcYs39MILL0wPJfZvq0g7ZMaSSy6Zyr/qqqtKF19EHJP4ggsuSPkxcWTFk5U/Xoq8/d5GxLHt3DfffPNS9UJTS18+zFhYcxI2g3aIY7ZmqHkPPh46MUZ7SsvuB+KYj4G2BzvEZcUSwmzvqCcQ6Jr/XnvtlaJ1gziu8iylCvlJXyFgnVrkHW6Waaj3tR+h5H1tZ4njHXfcMfWHOPksI+32td0ijpnYad/eSOOpTBs9jiPgCDgCjoAjMNwQKDtWrUocM87Q7zTO5lqRMsRxEUlXdWwwFIljuAGrNY6phSKpigl5tUMcd2pezM5r7DrrswSxiq+YetKMOCbdXHPNFfODQ0JDvJ26ViWOqQeE9UUXXZRhLlXbp0fsMyvH1M49BL9NN910QP5oOE+aNIlq9L04cdziLcaeoT6IM844Y4upP4reDpmh5giow6OPPlq6/HrEMatF9iXbcsst44oKq4/5FbFGxDEVmX322SM22M4pMsGglcXWI1q7xFEsOeYduml8SxxbDWjCbQeV1zjG0Y/mn/dC22/EMbioxjda3NYBgeKoR0xtqF1O7F0pRuuss45GGXDExIfGw9OqSjeIY/Ju9VnS+vixvxDAXrc+d6eeemrLjfO+1vtafX6KvklVNY6tbXbsxtcT+mWctCLt9rXdIo7Hjh2b3jG8fDcSvqN8c10cAUfAEXAEHAFH4CMEyo5V0fC8+OKLC/8aaX9a81j46GlFyhDHRflVHRsMReIYW8w6Vpx//vlrbORabKpiQh7tEMekb3dezOIAph4gi1deeeXUXuoF6VokrRDHc889d8qial3bIY61cBwNHnbYYTXa49xbeCeknXuoZfCMWwzJf7755tPgvj46cdzi7bXO8XhQIF5blapkBjaA7ZYA7OWWlXrEMemPPfbY1IFox8lLl5dmxPHXvva1lA8OduoJZKM6x2OVRss86aSTCpNY4ji/KtqIOEYjnLzxvpnvFC1xnHfKV5VMKKx87mIZG8dVy19kkUUSlnjgLRKeIexjse0Jueaaa1IaHCcVkSvEs84CeAdUukUcV3mWtE5+7B8ErMORIrMxzVrqfa33tfp9Kerbqva12P7XfFmww7xTkVx66aUZ5qWQdvvabhHH9ruONtSbb75Z1JQMkxxspUWjxMURcAQcAUfAEXAEPkKg3bFqMxx1JzDjDpyOtyJVieOqY4OhRhxbu8bsUC5ycobCFeYYq2LC/WqXOG53XgwvwPODnevJkydnVhERM6xFosRxPbvacDLKS2GyQaVqXasSx5iCu+GGG7T4eGQntpq2oN3bb799rdljtwAAQABJREFUvF7lHr7yyitZkXlaFnSwha3zgeGwa8+J45rHrPkPiGJ9kXhQGqn418utKpnx2muvpYdzuummq5d94XU1sXHLLbcMCMf7pG0Tk8eiSfadd96ZyseeU16wHawvDx3JUUcdNYCwRWOJOI8//nhMvt5666U0dGJFk1JLHOdtMFnD+XQ4KtRf64JmODY+rdiPvDo30m0M99xzT0pbZK/Z2jhGi6wV4XnRenF8++23BySvWr71HIvpD4gKK2i/0bmChy54oFVuNc7rfTx0NX2xxRazWdZs2SgiHKxzPEiavFib4SxuqFR5ljStH/sHAbVFxbvSSLOzXou9r/W+VvvbTva19HWQqJo3mgdoOViB6EWzA6d4SLt9LdvgtDwW8vJCn67h9lto46l9NjRqVHCIwy4hTcsC5IsvvqjB8fjuu+9m9P18r10cAUfAEXAEHAFH4L8ItDtW/W9OxWc77bRT+kafcMIJxZHqXJ133nlT2mbO0GwWVccGljiup8REOXauqzuzuG53Fteb4xMPgRPQsQvEbJFY53j5eSjzf2vXmJ3KRcKOXOpbFRPytMRxnssoKjN/rZ158fXXXx9xskp91m4249lnnnkmX2TihuAJigSb0Yq/1ZivWlfrHE95CluuEsGYxbAycuTIbIsttrCX4jn3l7jUkbyRKvcQG8bkUUQMU7ZiUMUXT6zUEPrnxHGFm4XtG31InnzyyZZzYJKpKx+tJMY0hZbb6lYV9ejOFpki2X///VPe1oatjWtX5SCG89q/dPBq60bryUtOB4K2oHrZtHVHi0kd5JGG+FaTmo7NTtB/9rOfZRjD1w8LZICWBbmpgmatXQUaM2ZMrC8rhnkD6tiO+va3v50pacpqnOZpO1nNG/Jdw/kgtSJ5jXXMduSlavmQ5ZDCWjfIY5woXXHFFRkeeZdbbrkYxv2wgi1rTQPRkTfyjldZDb/77rtt0uhVVMPyZAMR7XOl20RsBmiZa/oTTzwxBVV5llJiP+kbBKzH3g022KDldnlf+98tjd7Xdq6v5UG0GkD0YdjH4zuLIw7s6aOJzG4Xq43cTl/78MMPp75ym222GfAuQFxrX8p3tEh0gZiJkhWcwGhajhDJ2HGmf2ZXCfH55j/00EM2mZ87Ao6AI9AWAhAoOHd2cQSGMgLtjlWbtZ15s36jWzFTyVxZv/ukz5ttbFZulbHB+PHjU13XX3/9ukW8/PLLKR47s5jbM+dfYIEFktJZvTm+ZvrGG2+kPOqNe6xjYjXTSHoW861dY0x1FgllYBf4sccei8FVMCHhqquumupapNVcVLa9VnVeDM/AM4CPrDwZu/XWW6c6wdHkTZTaZwflwbygZcxztcoqq9QEVa2r9eOFUmNell122VRfazYN8pYx6l133VWThOdfFSbs4kSr91CJY5QylH/SgvClBQZwWXa8r+H9dnTiuMIdtQ7lzjzzzAo5VEsCAagfDtv5NcqNBxxiVLeqrLTSSqnzs+nQZoZo5cGnM88LhKF9YanHwQcfHLdu2Lh0+mprV+tqj0yk6YStYLbCxmHSCklER0RHYMP4Tf5oX2F+wr78EMx8vFXIw6YlX9JDbtttFMTBNg92gdm+gXM/TYfGoh3U0qnycdFwtLNYvSoj1M1qOpMHJjMsUd5u+T/60Y8yCGOtX/6IHeh8p8dvCHKNy0ebrdh8sLmf3DPC8uZLXnjhhRqiGg1zmzf3mbw0XzRGreY37eZ51PA111yzxn5mlWepzH3wOEMLAXU6UmRyplst8b42xL7S+9r6fT0DYxyRav+VP9YbxFbpa9kNs/fee6eyPve5z9WYlGAR9+STT07hDPatSSHSow1i62gnASy02kmNjafnal6qW++c5+sIOALDDwG23bMI5+IIDHUEujlWxVQA32KrINUML+ZgBx10UM13nzELc7ey0urYALJv1KhRqUwI1wceeCARwbZcxiXWWaDOXVXJqNkcn7ys8hF52XEP4ShUYXtWxzHbbbddRpsQa9eYcHZmM/fVP5TlGFep2Ut2kSGtYkI7WPi3baUe+V1qMfMm/1qdF6NFrBrn+LDIm+1UTWTFh11lmHhQscQxPMmtt94ayWfm8qrJzQ50y71o2lbqSr3gmfQZoD7YIrb1RYnNKgSiEKfhqvWL8hu7l+Ei4GvQzicvzKJa30+t3kMljslrww03zODMEPBVM6H1lC4Vj345OnFc4U7yMKrh78Hcuqmd8Re+8IX0sjSqPjZZeKG1Q7BHzEKwumeF/POq/qzoaFttej2HaGYLjZWJEydmeH3VOHpkYponjTUdnjBtp0oaPjh04Gqqgk7ryCOPjCs6bJ3FXIfmbY+q0Uznt8wyy6Q4TOQhhSEs+ZBh05d0bMHFzjGruLZTsnlC8GKv0nZqGs42COrVSBoRDKQnvFPls53Gmp+gntwntH/tCl2+vmeccUbh88JH025BIR0ab9p+e8Q+FNjaVUwbzj2A3EbrWbeP5MPtVqoqz1K+Xf57aCNgF4fUxE23W+R9rfe1Zfp6PHHvsMMOA/oyvn/3339/3ce0lb6WyQr9qu0n9XzdddfNCK/33WKsgEafNUWhaTmibaPCQBrTQnwrbBwWZM877zyN5kdHwBFwBDqCAMoJjPudOO4InJ7JFEagW2NV5vL6TbYm/Ro1lwWZojGM5gORVqQkVpRn2bEBpGLRvI4y0WYtEohLnfvPOeeckQgmXrM5PpqzcATaHnvUshjPFNWH8RLkdFGYzSd//utf/zo1oSwmJFBTj/n8KD9vUjIV0OCk7LyYBYJ8mVYBgLl2Plx/s7sbUeKYubsqgnG/lD9B+eu3v/1t3dqWrStkrJZtjyivQM4WcUrEo36Q2BDHxKWeXIcf0ucKbfYiDe9W7qESx5Z3mnXWWWNZjM/ZVa/mTuuC0ScB0UiIgOzSIgIy8Qv77LNPkAczSAcX5MFpMYfWosuqShAyMAjpGeTjFERrqbUMpkBs+SgFeVmDdI5BCNwgnU7DWsjLH8T0R5AXNCy88MJByNSIq3yMWOAIQggHmdQ2zCMfKKtOMT9ZdQyyBSLIhyZFkS0FQTR8g3xk0rV+OeF5kc424imamhF/WSxo2jxwFpMTQbbkBBl0BCEeYlru4ZSUVp+lKVlXL7uzCNAv8BzKolM44ogjgkwyO1tALjfva72vzT0STX8yBhBtiPg9ETI2yGJk7D8bJezVvlYWF+N3g++AaDnF77AMlhs1xcMcAUfAEWgJAZlkhxEjRgRxVBS/6XzbXRyBoYxAt8aqsrM5yI6jwFxONB2DkHZTBKZujQ2EBA5iizbOxVud408RIEyh3cLEFFH3dDDmxXAmohkdORn4GdEsjvdKlBGC7EIPsvutbv1sQLfrKoqCkd8R8jgIYR7ryPsIlyTEcRBC2Van5rzMPeR7BTcl2sVBfJzE/GVBJ/Jy4MC7OVzEieOKd5qOjgkiD+ipp54axDFZxZzKJbvsssuCaL1G8lPsDAbRAiqX0GM5Ao6AIzDEERDb7EE0O4PsOgjinCCIzdWutcj72q5B6xk7Ao6AI9CTCIj2UZwgyy69VD8xUxaVFkQ7L12rd4KSAoubiGxZrxetI9dFUzcuTNl6oRyB2Gu2MCb/Yl4nTnTt9UbnsisxUJY402y4ECamcoJsAw5iEi9lx0QbPOaZZ550TU/ASjQig+xkiJdYDG5EHDPfgjCDpIAYIG/qVZa00HL96Ah0G4FOj1V5VyC/4BrEhFoQzcpuN8HzdwQSApY4RhnNxRFwUxVtqI7jXZGtEqjKv/76623k1Dgp22HZIsDWEmujpXEqD3UEHAFHoH8QUHtk1sFBp1vnfW2nEfX8HAFHwBHoXQTYfsyWZsy3YasQYfswptXUbAs2MmVBsbARojEbzanZbeHY42fr7S9+8YuaNHh1x2Fr/g87nVawS2rjkE7I0uhzAvM0bMfF8TGCDxPdxkt98WNhHQRR7+WXXz5tW8c0WyPP72wBx38JJsp0KzfbkjEZl7djKVpk0YaqbtnF1jrbljHfo2byhDiOtiq1faRRR80yBY9bfTGtpu3FV4YKcUUrOd0H2oet1xVWWCG2SeP50RHoJQQ6OVbFmR3vSauO2HsJD6/L0EVATVXI4sXQbYTXvKMIOHHcJpwY/2bAiGOvvDfKNrOOybFDzKCRMhigujgCjoAjMBwRYEKLw0wmj2Wdg7aCk/e1raDlcR0BR8ARGLoIvPXWW9k666yTbCJCzjA5PueccyJRo6SmPR599NE1DcbeqJKrLGjiXwLSF4US0kFGY59U5YYbbshEe7cmf0hj64CZuPjn2H777WM8HGHi4AcfH7Yuu+66a3bggQfWXNNw/JLwPRs9enRhOF7m1bmP1o0jiinYg8RmI7Yw8TGy++67pzZCIGPHFAE7bbuWiz1L6qu/9cj8Rf0T4OAIR8lrr712igeZzTX+8HeC4GSLNmNT8vTTT4/pjznmmOToGzLcxRHoRQQ6NVbFBi3v3FprrTVs7Kf24v0cznXCbjD9OAuJLo4ACDhx3IHnAKdmOKFZccUVBwwA28keJ24M4tA0vu6669rJytM6Ao6AIzDkERCbVdHJI4NpnCx2Sryv7RSSno8j4Ag4Ar2PAIoeaBYff/zxicBkggxpinYthC6atziHVAKUMCWCcayDZjFheW0sCE5Nc9hhh9WAkXdmWeS0hwR4aCcPNIrFpmLUEsYRtebLEaeXsjU+kqyQzdYJ87zzzhudZlIXtIDFp0e2wQYbpPSqsWwrp2Tu5Zdfbi9nEOZaLmSumL3Ibr/99qgBbTWtIcw32mij7O67784g5vfYY4+UjrytoAijeRY5x1MMcfJlhXaAuxPHFhU/7zUE2h2r4pCWnQWbbLJJdBTXa+3z+vQ/AvTh2keLecBMbAH3f6O9hU0RcOK4KUTlIojtsIxBHSvnnRKxF5ZtscUWGaSGiyPgCDgCjsBHCLAVF80mNDI6Id7XdgJFz8MRcAQcgaGFgDhDTWYcmCSL0+uMaypoyKrJCsJHjRoVg957772kcbv++utr9Hi8//7704Qbjd287L///im8aAs6GouQo2gni43TlHz8+PEpHSYbXnrppRTGCd9FnehjPuLhhx+uCYf01nDMPVi5+eabY9icc86ZQYpb4TekuaYVW6speIkllkjXDz300Brs0HrWdLTHSjPimLkP5aFtmRexh+zEcR4U/92TCFQZq7Jww24FFrZcHIHBRoBFSHaroGWsfT5H+vr99tsvLhwOdp28vN5BwJ3jydvQSXnggQeCbKfuSJb33ntvEDtrHcnLM3EEHAFHoJ8QePfdd6ODHByHtCve17aLoKd3BBwBR2BoIiB2HKPjONHSDUKuDmiEmI0IssMlXhd/I0EI23iOw9ZbbrkliHmLsNlmm6V0QtiGlVZaKf4WojngMMsKjt3EbnLA6ztli0ZwmGmmmVKUq6++Omy11Vbh2GOPDWL6Il2fMGFC9BDPBdEYDmPHjk1hnEyePDl5dxdbx0E0f2vC+SFEbsCZ3Ze//OXoaFYjiGZjEFMa0XnelltuqZfT8cwzz4xO6bggZizCmDFjYphoZwfmPQj5Tj311PFc/4n95eiNnnJpr4qQ4IE6IkXO8YTAD2eccUYMF83lIBrIQTSs42+xfRydkmt4vOj/HIEeRaDVsSpOyMTcTBCTMj3aIq9WPyMgmsbxW1DURjFPFHbcccf4HSkK92v9j4ATx/1/j72FjoAj4Ag4Ao6AI+AIOAKOgCOQQ6CZ5/inn346iLZVTCXax0GcqA4gSEUzOIjPkyBbzIM4n0slbLfddol0ThflREwwRMKZa2LOIoi2bgpeffXVw0MPPRTE6XYQzeF0fdKkSWHxxRePv4uIY4hbCFqkHnEMGQWRJeb1wosvvhjj8k92SwYxoxGWWWaZ0GwxVny6BNqFUFex7RzPi4hj0WwOYs4vyLb7AEYqzYhjSG/KURGTfUHsSAcx4RG4Xy6OgCPgCDgCjoAjMLgIOHE8uHh7aY6AI+AIOAKOgCPgCDgCjoAj0AMINCOOIUTF1nEQExaxtr/+9a+jxjA//vWvf4ULL7wwiB3gqDn8jW98I4jjuLDvvvvGuPWIY3FEF2QrcEyPtjFax2gf/+pXvwpo6Y4cOTKISYiYh/5DE3HRRReNP6sSxxCw4oyvhjiWTbDhk5/8ZNQI/t73vhfbomU2O0JQQwIjRcQxmtdoYLdKHEMyb7vttuGqq66qqQJYnX/++QENaRdHwBFwBBwBR8ARGDwEnDgePKy9JEfAEXAEHAFHwBFwBBwBR8AR6BEEmhHHVFNs6oc33ngjsFVXnMOF6aabLpK9mHVAoxbTE2KTNCy77LIBYhmTFkg94ljDLr300hjvuOOOCwceeGDUqj3llFMC5pO+9rWvxTD91y3iWBwFxvZQzuabbx7boWU2O3aLOKZcCG1MhHz/+98PbJ+2gimLk08+OaAB7uIIOAKOgCPgCDgC3UfAiePuY+wlOAKOgCPgCDgCjoAj4Ag4Ao5AjyHQCnE899xzB3EeFP70pz9Fkhh7x5iPEGdvySZpWeL42WefjRrEEKTiDCs899xzURMY+6aQxHnpFnFMOXPMMUf0GYAdYWwI17Ov+vzzz8f2r7322rF63SSOtf3ifDycdNJJ4cQTT4y2qPX6HXfcEbQees2PjoAj4Ag4Ao6AI9AdBJw47g6unqsj4Ag4Ao6AI+AIOAKOgCPgCPQwAkocf+lLXwoQo3n55z//GT7xiU9EUxUQlRCWmJHYZpttYtSzzjor2izWdJY4xtyCahVruD2qUzquoa38xBNPhNNPPz3svffeNlo87yZxjCPu++67L5az3377BbSeiwSNZExpqHO8bhHHOMQbMWJE2GijjVI1XnvttYCGN6YvEJwWXnTRRSncTxwBR8ARcAQcAUegewg4cdw9bD1nR8ARcAQcAUfAEXAEHAFHwBHoUQSUOEbr9s033xxQy/vvvz+ZjbjyyivDVlttFTCVcMYZZ8S4amZCE06cODEstdRS8SdxSYMt5I9//OMaJR0ff/zx8JWvfCX9xtYwdUDzNy84r8OJHbLrrruGc889tyaKdY6H0zq0oPOiNo7nn3/+qFms4TjoO/zww+NP7BFDDGPvGNMcKtgW3mWXXQJ1huRGrHO8f/zjH+F//ud/NHo8qo1j8lEb0QRgimO11VaLcXB6h0YxQhzK33rrraMzvauvvjpe13/YgP7yl78czViQXu0ra7gfHQFHwBFwBBwBR6A7CDhx3B1cPVdHwBFwBBwBR8ARcAQcAUfAEehhBJQ4pop33nlnWGuttWpqi+Yr11dZZZUAiYwcccQR4dBDD43nOLm7+eabo7O766+/Puy1117hnXfeiWHLLbdcOO+888K3vvWtMGnSpHgt/4/y7rrrrnh5p512is7f8nH4/cgjj4QVV1wxBqHtfNlll9VEw6QDDvYQ4j300EM14fzQtk4//fTRVrNG+Mtf/hLQuMaOswp5oGGNxvVNN90UIK5x/nfbbbdplEiQQ5Qjf/zjHwcQ3rQfLWqEMiDGEauVvfTSS4d77rkn/o0ePTq8+OKLUZsb0hjc11hjjZiGfxDLs802W3TwZwnnFMFPHAFHwBFwBBwBR6A7CIhtLRdHwBFwBBwBR8ARcAQcAUfAEXAEhhUCQrZmMsOKf2LDOLv11lsz0Z7N/v73v2ff/e534/WZZ545e+qppxIuonWbiRZtSidasploCcffQuqm65rvD3/4w5Q2fyKawSk++RaJaCxnYr4ixRNnfZloJqeoom2cibO4FE6bJkyYkMJJL5rPKZx6CSmbwjkRcjgTkxw1cbT+HIWwzYRYjmmEwM3uvvvuTLSoU/yxY8dmXFcRojubeuqpU7hoLKdw6iMkcgrTfMQMSEw+cuTIGDbTTDNll1xySfbvf/87Eyd+2QknnBCvi+Z09pvf/EaL8qMj4Ag4Ao6AI+AIdBkB1ziW0ZCLI+AIOAKOgCPgCDgCjoAj4AgMLwRUCxcTCfPNN1804YBmLOYlMP+AuQXMTXz+85+vAea0004LBx54YIxDAE7tuLbFFluE9dZbL2rmks8BBxwQMAVRTzDxQB1wsocZiLxg23iZZZYJxMvLuuuuG44//vio+YtmcF6+8IUvhCeffDLWHYd+eaFMIcTTZc4xr5G39YwNZOw6zznnnDHuN7/5zaiFnBL+5wRb0JS36aabDsiDKGhET548OUwzzTThhhtuCNiAFkI45rv//vsHtIgRTFUQDv5oGU833XTRPAVx0VBGixtMXBwBR8ARcAQcAUdgcBBw4nhwcPZSHAFHwBFwBBwBR8ARcAQcAUeghxBQ4njhhReOpCfkKcQpdoax5SvavXVr++6770YTDp/97GfDggsumGwCi9JPJIHJE7MQjUQd7WFDGFMVvSAvv/xyNDGBbWII2gUWWKAr1YIMB+tFF100fOxjH0tlvPrqq5FMh4h+4YUXYhzRAA/gCXEMye/iCDgCjoAj4Ag4AoOHgBPHg4e1l+QIOAKOgCPgCDgCjoAj4Ag4Aj2CgCWO0e4dbFl55ZUD5eIUT20AD3YdvDxHwBFwBBwBR8ARcAQaIeDEcSN0PMwRcAQcAUfAEXAEHAFHwBFwBPoSgSlJHItN37DOOusEnMKJjeK+xNcb5Qg4Ao6AI+AIOAJDHwEnjof+PfQWOAKOgCPgCDgCjoAj4Ag4Ao5AiwhMO+20ATMIX/ziF6NZhBaTl46OzWRMUTz66KPRBMY888wTxKFctOOLaQhxPlc6L4/oCDgCjoAj4Ag4Ao7AYCLgxPFgou1lOQKOgCPgCDgCjoAj4Ag4Ao7AFEfg7bffDnPMMUesB7aIf/e733XNXMT48ePD17/+9QFtHjduXNh5550HXPcLjoAj4Ag4Ao6AI+AI9AoCThz3yp3wejgCjoAj4Ag4Ao6AI+AIOAKOQFcReO2118Ipp5wSbrnllvDiiy+mspZYYomw+uqrhzFjxjR1apcSlTx5//33A1rG7733Xkwx3XTThRNPPDHsvvvuJXPwaI6AI+AIOAKOgCPgCEwZBJw4njK4e6mOgCPgCDgCjoAj4Ag4Ao6AIzDICLz11lvhhhtuKCx1qqmmCjvuuGOYZpppCsPbuTh58uRw4403hqmnnjqMGDEiaTu3k6endQQcAUfAEXAEHAFHoNsIOHHcbYQ9f0fAEXAEHAFHwBFwBBwBR8ARcAQcAUfAEXAEHAFHwBFwBIYYAk4cD7Eb5tV1BBwBR8ARcAQcAUfAEXAEHAFHwBFwBBwBR8ARcAQcAUeg2wg4cdxthD1/R8ARcAQcAUfAEXAEHAFHwBFwBBwBR8ARcAQcAUfAEXAEhhgCThwPsRvm1XUEHAFHwBFwBBwBR8ARcAQcAUfAEXAEHAFHwBFwBBwBR6DbCDhx3G2EPX9HwBFwBBwBR8ARcAQcAUfAEXAEHAFHwBFwBBwBR8ARcASGGAJOHA+xG+bVdQQcAUfAEXAEHAFHwBFwBBwBR8ARcAQcAUfAEXAEHAFHoNsIOHHcbYQ9f0fAEXAEHAFHwBFwBBwBR8ARcAQcAUfAEXAEHAFHwBFwBIYYAk4cD7Eb5tV1BBwBR8ARcAQcAUfAEXAEHAFHwBFwBBwBR8ARcAQcAUeg2wg4cdxthD1/R8ARcAQcAUfAEXAEHAFHwBFwBBwBR8ARcAQcAUfAEXAEhhgCThwPsRvm1XUEHAFHwBFwBBwBR8ARcAQcAUfAEXAEHAFHwBFwBBwBR6DbCDhx3G2EPX9HwBFwBBwBR8ARcAQcAUfAEXAEHAFHwBFwBBwBR8ARcASGGAJOHE+hG5ZlWfjLX/4Spp9++lI1eP/998OnPvWpUnE9UnUE/v73v4eXX345LLLIItUz6ZGUv/3tb8MnP/nJMOuss7ZUo3//+99h8uTJYfbZZ28pXZnI/YRvmfZ6HEfAEXAEHAFHwBHoDAI+du4Mjr/5zW/inGKWWWbpTIZdzOW9994L00wzTRzPdrEYz9oRGFYI/PnPfw4zzDBDqTY7B1EKJo/kCPQ9Ak4cT4FbDDG50047hW984xvhoIMOKlWDE044Ifz85z8PF154YZhjjjlKpclHeuONNwJ/jWSmmWYKX/ziFxtF6cuwF154IZx77rnh4osvDu+++27ggzoUifoPP/wwXHfddWHs2LHhvvvuC9/5znfCSSedVPqesZgBaQ7pvPPOO4dx48aVTtsoYr/g26iNHuYIOAKOgCPgCDgC3UFgSo2dIVnfeeeduo36xCc+ET796U/HRXoW63tV/vGPf4Qf//jH4ZxzzgkPPvhg+OEPfxgOP/zwXq1urNfpp58eRo8eHcfj1LkflDp6GnCvXN8jwOLbmWeeGY444oioJFSmwZ3gIJqV8/rrr4c77rgjvPrqq+G1114LKBp99rOfDQsvvHBYf/31E/ex5557hjFjxoShsOjVrM0e7ggMOQSkA3EZJAREkzM7+eSTMxlYZhtttFEmnWLpkom76aabZtJRZkIMlk5nIwopmi211FKZPKQD/qjTV7/61ezQQw+1SYbF+YgRI7KpppqqBhMhjodc22+66aZMtItr2iHEcUvtkI92Ss8z0QnpF3w7gYXn4Qg4Ao6AI+AIOALlEZjSY2fG7QsttFAaGxWNobn2sY99LFtyySWzs88+u3zjBinmDTfckH3mM5+paYMQx4NUevViRMEm1fn444+vnpGndAQcgexXv/pVtsoqq2Sy2zm76667SiPSCQ6iXmGPPfZYtsEGG8T+U/tWUWLLll122Ywj15ijL7/88tlee+0Vfz/11FP1svPrjoAj0EUEQhfz9qxzCOy///6xw9txxx2zf/3rX7nQ5j8ZPGunuc8++zRPUCfGE088kU099dRpMDb//PNnomFaJ3b/Xf71r39d06jx48dn/MlWuITJUCSOZYU2e+SRR7JRo0aldrRKHP/1r39NE6S99967BqeqP/oF36rt93SOgCPgCDgCjoAjUA2BXhk733777WlsBZkhWnDZaaedlh111FHZ2muvXTOuJky0lKs1uAupGOM/9NBD2VZbbZXa0CvEcX5MbpsvOwEjrihFPP/88zbIzx0BR6AFBF555ZWofMYCEmRtq9IpDsKWe95552X/8z//E/ukmWeeOeN9f/bZZ7P/+7//S9Fkx0e27bbbpn6LvrcV0jtl5CdDGoE//elP2R/+8Ich3YZ+qLwTx4N0Fy+77LLY6cn2/7ZLXH311WNestWkcl7LLLNM6oQPPvjgyvkMtYRiqiMOQvkA5oXVTV3tHIrEsbbnlltuSe1olTgmDz7Yb7/9tmbXsWO/4NsxQDwjR8ARcAQcAUfAEaiLQK+NnWebbbY0vhKzDzX1vvLKK2t2r80333wZi/G9JNRZx7m9QBw3GpMrbpAFrezQ1HR+dAQcgY8QEDOE2RJLLBE1jZ977rm2YOkEB0EFDjjggNQXzTXXXNkzzzzTsF7sqv34xz8e09DXugwvBMRESfa///u/w6vRPdhaJ44H4aY8+eST2bTTTpuJzdzs97//fdslsurOCh1aww888ECl/NZcc83UYR933HGV8hiKiVRzpYg4Xm211RImQ5k4vueee1I7qhDH3bqv/YJvt/DxfB0BR8ARcAQcAUfgIwR6cey84IILpvFVnjim1j/4wQ9SOASt+Jjoqdv505/+NNWvF4jjRmPyngLOK+MIDGEEttxyy/jef//732+7FZ3gIH7yk5+kfujzn/989opoQ5cRsbUc04nt8zLRPU6fIIAyG+YznTie8jfUieNBuAfizCF2dAceeGDHSsOMAINSNIeryDrrrJM6bey3DQe58847kw2lIuLYkulDmThmMUE1SnqJOO4XfIfDu+JtdAQcAUfAEXAEpiQCvTh2FkdNaXxVRBxDduv4i+PGG288JSEcUDZbvLV+U5o4bjYmH1B5v+AIOAItI3DNNdfEd16ceGbi/L3l9EUJ2uEgIAGtPx7MU5QVzHzOM888TiCWBawP4v3zn//Mvv71r8dn2InjKX9DnTju8j342c9+lgZp2J/tlDz66KMpX5xetCrdII6xP4PhfV7yMvLmm29m4kU1RX3rrbfqbkdjm9qLL76Y/e1vf4vxKQObvmUFQ/ozzjhjwqyIOF5rrbVSuCWOxRN1ho2lsgIO1PXDDz9smoS8wcwKbWulPJuWc/E8ndqRJ47B/IMPPsgnGfCbrYFsIWwm4MhKMfeumXQK32bleLgj4Ag4Ao6AI+AIDF0EenXs3Iw4ZvymNjshaL/yla8MuAmMw6ytxt/97ndpbDsgslxgnEWaqjsWSfvqq6/GrO++++40Puwmcaxj9nqmOsqMyRULzKcxTma83Eiq4MQcJE+mQWy9//77jYryMEdgyCCw8sorx3eeeX+npB0OgnmpLl5hb1nn9WXrhrLb9773vabRmcfDE5SZizfNrGQE+qqXX365lH37st+Bdvoo5uaTJ0+uqT2/89dsBHCjbmWllTa32hYWCnbdddf0vDhxXPaudC+eE8fdwzbmvOGGG8YHHrtovFydEgZIM8wwQ8x7ueWWaznbThHHDOSwkfzFL34x2XZj0PzVr341K/J6CgZnnXVWzWojhC5mDDCMj/MRK3TAI0aMSJrCeK3+0pe+lK2wwgrRw6qNW++crS3W8R0fLD6k+qekZ57YpGw8vU433XQRZ7Yojhs3rrCYP/7xj9khhxxS47WaMpk0MDjP33vyPuiggxIOfNhwXrLDDjtEHKgjq6pjx44tLK/RxTxxTNmnnnpqxI18WXX+5je/Wfhhw8wFzlO4h6zw1RPu7RprrBG3jugAAJx22WWXjDxwwsLf448/ntreDr716uHXHQFHwBFwBBwBR6C/EOjVsXMz4hhbolNNNVWa6G699dbxxkAoX3fddRnjIMLZgcgkevPNN492Oz/96U9nebudkyZNykjPmE3HWWzr3myzzZraA4WMxlHyvPPOm9Iyxmbsp3kxNmX8u8oqq6TxMOPiTTbZJD1MEMBf+9rXasIZIxYJY81TTjklW2qppZKjQNqKbdWbb745JSk7JocoP/HEE+P8gjrfd999KQ970ipOjLevvfbaOIalfrp9//zzz4/zCq4xBsbhYSOCxdbBzx2BXkTgF7/4RXrf2/GLlG9bVQ6Cd8/aicdUTScFohEzFvAE2s/Rf6644orZscceGxfhtLwbb7yxpl9TToCjtbdMv2PDOL/ttts0m3iESMf2MyZJtdw55pgjO/zww2uU6cp+B9rpo8AAe9Drrrtu9v/+3//Ldtttt1hHzIMstNBCsX5wKczxrZNB/Aksv/zyyY70YostlmHaqJ6UbXPVtsCTwG8pnhzBVO8FTmldBh8BJ467iDmegnlpedgbkXBVq6AG6smfAWgr0gniGK3YpZdeOpKy2HVjILb77runQTMDr1tvvbWmWgwCqS8dGtvUGExus802iRi2xDFk7Nxzzx2JWz4EkJDHHHNMpjbm6ODKCINCnBKysknZ/O20007xGtdV88MSm3fccUfGQF7j65E25R0LMFHQzo2PFThcddVVkTzXdNZMCdgzMNUwjhMnTsw+97nP1VzjOo4AaHcrYonjfffdN048bFl6vt1226Vs+UjqB0XD6z2zTG6oFx9jJkJMFihz9tlnH1B/8lLN8Kr4pkr6iSPgCDgCjoAj4Aj0NQK9PHZuRhyzA1DHUByPP/74DIfFTHjt9dGjR2crrbRSzTVreo5xJDYdmeAzvmYsjdLFLLPMEtNAUEB8FMmzzz6b4ZiP8iANmOCzXf0LX/hCTXmqccz4Ew0+rR9jORXGd4RbLUHI6Ly88847kRQnD8xzQFycd955cQyv+aoiRJkxOWPmvMJHEXHcKk7UKz9Wpe3f/e53U/u1vtqWfFv9tyMwVBBAGUmf56L3p512VOEgmONrfThecMEF7VShJi2cgZpEhB+49NJLs+uvvz4uzmmZ66+/fsauYISFqXPOOaeG7KVvwNwj5KsKu3RRhJp++ulj3enTlTcgDnbs8TmFotjll18eiWv7nWDhjfzKfgfop6v2UePHj6/pc2k3Grv0p4qBPVIOGsZ8j+x1Ped7o3N4xaOVNrfT37JLH46GBTytD2Q21/i76KKLbJX8fJAQcOK4i0Cfdtpp6WHfdtttO14ShKu+TPU0YesV2gniWF9mOkorRx99dKoXxK9u+WKlTbV386v4hx56aExjiWNIYtqHJ00raFKwYlmWONa0dN6KF6ulebHEJoN1tC4mTJgQt2xw/zSt1cYgDwbDGnb11VenbCGU0fAgDMKZVTeENtKZqndYwtEe32ijjTK2EaIBsscee6Q8wbkVscQxeUOAX3LJJVHDmNVFvQeEPf300zFrPqR81NgGwnX+iojjV8Qsha6oQkpb+dGPfpTSQtKznYgVbt1eWBVfW4afOwKOgCPgCDgCjkD/ItDLY2dLCORtHGPiwGr4Mv6FzHjppZcyTG+MHDkyjZEYY7FYj1IEO/b4rQoGv/zlLxNpinauFRxTqVIDCgg///nPbXAkQ5Rczo/RUPb47Gc/m+qgxDEZMCZWohYyIS+Yc2BcTD2LiGPVZFYNa00PMUMa/hjn6jiY8EZjcsaxkCBoWGv6PPFVBSfGsCitoLWt+XJk5yPEPFpulG0VTSCNXByBoYjATDPNlJ5z+qFOShUOwvbtvHf5/itfP/olFq6Yixf9WUUurQ+7dfNmfVBq0/edHc5WsLGsYV/+8pdtUDqHs0ARkH7Dis63SQfHocI83vZd7Pot+x1gsa9qH4WJCbSEUY7TNnHkm3HxxRfH7xFmi9gVouH05xDfcC7sfIZjYbe1hqvGsratlTZ3or/lGdG6uKkKvQtT7ujEcRex32+//dLDjlmCTotdIcoP1pqV1S5xjKYwL/Kcc85Z01lSLp2nDkCJc8UVV8TqoNWqLz8djxXsoLGaZ4njLbbYIsaHcMzLEUcc0VXiGA0PNC1UWHGE/KX+fJSsWE2MJ554wgbFrXDaZiYVVti+p2EQ57Y8VgAVQ0jyVkQ7dfJeYIEFMiYaVtD20HLzK3Z8NDSsiDhWj7bEYduLFe67EuVMMJgwWbHEcSv42jz83BFwBBwBR8ARcAT6F4FeHjtb4hhtPpQAIDghBiwpC3mL2S4rVtsOxQEdLzL2s34tMPXGGAvNsyKx2sEQAHbsqPMCiAKrFaf5QCbrGM8Sx4QztiWsiDgmfK655orheeIYzWfSMUZmDGnFEs6MC22dGhHHmkcjjcl2cLKa4RD3eV8jFuOzzz5bq+NHR2DIIMAcTN91jq3aEm7WUO1ryLssB2HTkC7/3uXLZN5MH2cVnmybvvGNb8Qk1nY7msZ5od9RjWHS290azF3tjl9rpkLzQRGKdCxWqdDvLrvssvE6i055GTNmTMKfndIqZb8D7fRRfJMUJ3ZC5xcNrJNUHBU+/PDDWr14hPDV9JgGVana5nba4sSxot8bRyeOu3gfdAWel49Vtk6LauSS/6qrrtpS9u0Sx2xFo1y23zHIz/9ZbVpIQoStbGq6g06ajt4K8XQgzXX12ko5aOBaIpJO8Nvf/rZN3vS82SDVEpsQt3lRrRA0bq3Q4dIe7oHd3sI5HzXqzx8dsRXsymmY1cLQOGqjCQK5FbHEcd45HvmgIa7lssXGynvvvZfCiohjJfNJb20jaR5qsoNwey8Jr4qv5u1HR8ARcAQcAUfAEehvBHp57GyJY7T5LKEBcYrmGWNXS5Dq3br33nvT+Ap/EEWCBp2Oz9iFViRohE077bQpno7F2FKsCgf1djlCdGv+eeJYtaVbJY51y3qRI0Dqz8SfrcXY0LTSbExOXEt0W43jdnAiX0ucqI1jrqtgkk1xYq7l4ggMNQTQ0NVnmL6q01KFg7C7aanbY489Vqpa8Afzzz9/ag8ksN0JsOWWW6YwNJSLBHvKigfzbytHHnlkCqOOeWE+Tn9lBV8/mh8avnkexM7xWTTT3bdlvgOU004fZW1b5zWGyRs8te5Fc33iqLKc1cKu2uZ22uLEMXejd8SJ4y7ei8UXXzy9mPktbbZY7JHR0RX9EVZPcOSgLz6dWivSLnG86KKLxrKxyfatb32r4R8mDFRsR0rdcXyHPaEisR0Ncdk6hhkMtU9UlKbRtWaD1GbE5pJLLhnbzJaORoLmCANyu4JJ/bHbZ4XtMnr/iohjTHEQDtneijQjjlU7hLzzxuXRrNY6FX1MLJmf11amjmq+hDz4cFnpFL42Tz93BBwBR8ARcAQcgf5BoJfHzpY41nE9igZsTbaKA0V3g7Gujq/ULEU+3nHHHZfioPVaT1TblvxwSIewu0/zz5PCmo/VzMvHqUocq6Z1Pad5Wnb+2GxMTnxre9gSx+3gRL5WI6+IOLZagexwdHEEhhoC2PfV/oA5ez1hV0AR/6DXihbByKsKB8HODK0TR6v5W69+eh2zlZqW/s8K9uAJY75cT7Pa9n3syLDCYpwSpZDSlmdQ4hLfRVbo/7U+zXgQwlUhrcx3gHLa6aMwQ6l1KyKOIbE1vGiuT/m6g9jufKna5nbaovhTXzdVwZ2ZsuLEcRfx15eOh72RZ0rt8PQltke0CuqJ1RxgW1wr0g5xzFYF9fLcaGBbVB9ITbW/ZtsJ4ZjfssIgnIGojcc5K6c4ZWtVmg1SmxGbqk1bj8h94YUXMhzOsbLIQBrzE3TIWv88caxaGoQXEcd4gSWsXnn12t+MOMbJitYpPyDGLrOGFX1MsIOs4diTyos62MOWXX4S1S6++bL8tyPgCDgCjoAj4Aj0FwK9PHYuIo7Lom/HZvWIY2uLEy24emL9bigxwK49HZ9hW7hILHnSCeIYUknLzPv/KCrfXms2JifuAQcckPK3xHE7OJGv1forIo5xkK3tyo+TSe/iCPQ6AthP12fYmhvI1xtnbxqv6MgiTZFU4SCw3WvLYJ5cVqz5GGzwqmDOQvNEscua7tE4HNmprPE4sthnxfapYKey+eabR/M9+Xm6alxja74eWa152GOZ7wDx2+mjMKmhbdXvg61DGeJYuRpLHFdtczttceLY3rkpf+7EcRfvgTWMnncgZ4utShxjY1Y7Bgi7VqQd4tiSi3SorQoauZtuummqu7YBjeJJkybVZMcHAM3WvEdq0uyzzz4DyMmaxLkfzQapzYhNtuFRbhGRiykS3SLIQFc/Iqwyavt6hTi+7bbbUp3yA2J7b4uIY8LZtkKbIMhZkVbB+Yu2NW8Cgzjt4Ktl+NERcAQcAUfAEXAE+heBXh47d5s4tuRF0ZZpvevWV8Vee+0VL1tFi8MPP1yj1hw7TRzjaEnHfdgibUWajcnJqx5x3A5O5NsOkUF6F0eg1xG48MIL07uJqcV6UpU4rsJB4LxN+wuO9Kdl5ZBDDklpMWekkieE0R4uEshSSF4tH4d3Vh599NEUxi5u+AfIZchoNblp47P4p3k12h1u03A+lInjqm1up7914jj/BE3Z304cdxF/JRrpWNieUU+wpYW3y6I/wuqJ9VasBuLrxc1fr0IcoxHMYA3BBhrtYrtH3nupLQs7ZKzcFwmd58orr5w6XvKbb775iqJm77//fnbYYYfVGLcnfr28izJpNkitSmxiFJ+68Ddu3LiaovuNOKZxbGvSraTcfz4k2I5iAYStPkUfWNJVxZe0Lo6AI+AIOAKOgCPQ/wj08ti528QxhK+OJxmn1xO0hTUexA+C3w+9hlO5IrHEcX7bb1lTFdZB9L///e+0AxFlAuvkL18+5h9QXFBpNiYnXj3iuB2cyLcdIoP0Lo5AryNglYRmnHHGutVlnl7EP+g1woukKgdhF7jor/JmDYvK4lo94hjndpC72vc98sgjhVmwCxbFL+Jhm75IdGcxcdCOxpwj/RoLZHkZO3ZsKpO6NRK4ARSvkKFMHFdtczv9rRPHjZ6swQ9z4riLmFsHH0VbodotmkGfdpTY/mlFqhDH22+/fXT6QTl2wIdB+Hqy2WabJSIR53BF22X4+NhOX1fu2IqGJ04rdN5qwoG2U6eyYuvMYDcvVYlNdZo322yzDdgiY4njvFfTKWWqwg4mWtU4BjO8ZrN1BW+yPNcMAtgKg9dZzHXUk6r41svPrzsCjoAj4Ag4Ao5AfyHQy2PnbhPH11xzTRrXsxBfTzFj1113TfFwgoWceeaZ6Rrm0pSosE+HJY7z8xLGdYyr8/Y/Nf1cc80Vw/HfYWWRRRZJ5Y4ePdoGpXPIHbT42N6u0mxMTrx6xHE7OJFvO0QG6V0cgV5HwDrH471W52ydqndVDoLFJTV3Sb3wfVTPvIStaz3imDi2X0aRqUistrPVWLZx8clEnfhbf/31MxbJ6sW1hCaKU+RfJNgbxuwoPoSQoUwcV21zO/2tLTO/2FmEt1/rLgJOHHcRX7UFQweER+FOC148tYM74YQTWsre2t5Fk7eZ4KiOLR4MOhHsEmnZrOCxKpfv+FlhI87jjz8e06CxzG8lhuPF//wbOXJkyk/tQXNtiy22sNHi+fPPP5+2m+BgrqxYZ3RqpJ46a73XXHPNVAdrGF/z15VIcFBhUK84sKL797//XYPi0U6AqDeitn9tfYo+6EqQ2/JiBk3+WcP7RYN4a+M4v53ROseD2M4LExHMonz84x/P8tt88nHzv6vgm8/Dfw9fBIreyapo6PtfNX2/p+M9f+aZZ/q9mZXbxyJoPUKncqae0BFwBCICvTx2VkUBxn2NTNAV3UpLGBSNzUjz17/+tcY0m7W1afNUrezFFlssXWasreNRjkXzAksc5+ugDqBJm/9GPvnkk1FLjzBsUFvZd999U7mMDSF1raCogSIIY2Q71rVjYC3PjsnJwzrHg3xQaQcn8rjnnntSnYt8tVgbx/lxstbBj45ALyPAu/apT30qPeevv/56R6vbDgdh7bHTp2DusZk0Io6t0z0WzVioyotVmqrnJ4k5/Kyzzpowo271dja/9957cZGNOPyxgPbiiy/WFMsOXfro9dZbL10v8x0gcjt9FGY/tV4sMuaFZ0PDi+b6xFcbx/PPP39KXrXN7bTFpv3Od76T6lKkAJgC/aRrCDhx3DVos+ypp55KL6Y15N6pIjFPoS8+tnlaEToyTVtEzmpeDOLo0FkdZLConTEEo2ofaD4QnRDKaDHgwZXr1oSGEsd0UvkXnjKIz5YQtU8EcQwpDWlthbTaodlOxMYpOrfav5dddlkcoKPxgA1lRIla6qF1iAH/+Yf9Nm2ranLkt8iMGTMmOrrDLlJ+Ow72oNhKqBMBO0j/4x//aIuK52j05ssbEKnggh3wFtnIs3ap0OawYp0MMDHJi/XajXM8NFzYznT11Vdn5Mu9YpVbnxObvgq+Nr2fD08E6IN4Z7CB3inB1A7Pbbfktddeix6n2U7MlmH6MnZmnHfeeTVaCbyfvURAsiUREoAJPn2PLqp1C6ehlC8TCr4bal4p71hqKLXF6+oI9DICvTx2to77GpmgK8J3/PjxaUyHNls9Ofvss1M8nEHnHUezFVvHhqrMoXnhd0TD2MmHnVMVFl/tvAFNP8bTuihr0zI2xFcH4YyR0ZjTfFFmgCDRcSvfMP1mEAfymF1ojBfPP//8TJUumB9YaTYmJ651gmfNXBDWDk433nhjak/RrknrCBry2sURGIoIbLzxxuk5Z/Gnk2L7klY5CPoVFOq0T+HYyBko9W5EHDM+m3vuuVN+Rbuwdaf1qquu2nBsC4eh9WKhsNE4+JRTTklxScNujR133DHDzw87rqeffvrIYzz00EMJ+rLfgXb6qIcffjjVq8iRPeY/tY3MzYtEFx1og5UqbW6nLS+//HKq69JLLx0XNdm5ssACCzS8N7bOft45BJw47hyWhTmpk48iMwaFCVq4yLYvXvwigq9eNnSAP/7xj5PGrnYcmBHYbrvtMlYQ+dt6663jCpntiEeNGlWTLS+u3W6ieemRNr/xxhspjRLHhG+44YYZ5AqCZptudVMnH1xXLWQGzpdcckkcwKJlgBYFeUAkNbKnRh5WrBYL6Rnc6sCZD6p1UsiEQDWDyYOPojWnoWQzYSwKaJs58uGA8IZYt1vxCAPPV0RbjcE+5Ws67AbZjxMTA1seg28bTrlFAqHNR0vzXXDBBWuIKvCzhDYLCDppIH/7QWCiwATOygUXXJDy1jKKjrSTvFQDux18bfl+PrwQoM/gHWXgkl9AagcJ3r8ZZpghOunsJHH72GOPxf6ABTB9L+i/WATiyDUm3csvv3xGX8fv/DvWTrvaSbvGGmukOmvdy/Q57ZQ5VNJiMonvjeLC0YnjoXL3vJ5DEYFeGzszHrSmIOgDGD9ZLdhGOEOyMobWPoTvD7vDivpYSBXITI3LBPnaa6/NWNhn3M3YmrCi3YKYEptzzjlTWuItscQS8VuHJp7mqUfMYTDWRnBwzPdJwyAO9Lt18MEH1yiLMH7lu4xGHcIWbzum1Tz0yC5H2mWl0ZiceHyb8XuieTBHsUoJVXFit5wlyXH4/Ic//CFVjXHylltumcplfoKmnYsjMNQQsHM2+q9OShUOwpZP3wdZbOfe8BkoIun7yJz2iSeeiONlJTLpD/bee2+bVTxnLI0ZHe0vUILATARmInVejPZs3lF9PiNMYuoYvsjRu41PfwQRrWUWHa3fn7LfgXb6KL5V4KN1ARNrRuPDDz+MpiU1HFzV3BFtIz3+tTScI/aeVVptcztt0frYZ0S/M/U0wbWefuwOAk4cdwfXlKsl4tRkQwps4wTyUV9qSNUyQgdtO15NX/aYtzdMmRMnToymC/J50JFa0pi4ShxjlF7j65aQaaaZJmoqW7KWwSzEtDVmr50Hq058TFoRBoNqooM8R4wYkbGStfbaa6f6aL04MqDmQ2S3Jtpw1YDkI7PMMsukPMibQek777wTJwbkQzomGXzAIM1tPnpOWyHRMQWh1+yRe6dEbFG777///vSxs+k4ZxCMhqV2uDacicKxxx6btiHaMM6t1jjbW+wqcz5u/jdbIdvFt6itfq3/EaCPY2cB7xmEbBlBY7bsYhJ91xxzzBH/fvnLX5bJvmEctIn1XUcr7dxzz41meSwxQN2sN3jel04S4g0r2CQQO2IQB7aPsHVvkryrwc0G+l0tXDKHjEFjxC66OXHcbdQ9/+GMQC+NnZmE69gzP8bhN98oxpL1BPNglpC1ebA7r56cccYZcaefjc85Y9JGjrMhmK0PDU2PljMENL8hRjClBiFg+3kIYvsNQIFACSfdZQjRyi4g1TjW+rOlmG+qlqflYHNUd+lpXI71xuSEYT6iCDMUKiDcrbSCU14JxNYVDehLL720pv0aTl2aaUTaOvm5I9ALCPCOqTN7ay6h3bpV4SDqlYkSGbtxdbFQ3znLFXCNXQ30xZhhqCfwDihsKW+gedFvoHnLvLyMbLLJJnGXhS6MNUoDkUp/pWSzlknfybxApex3oJ0+ap999sngU7QO9rjuuutmzHWsUpoNx8Y9imQov9nrer744otrU+ICXpk2t9MW299ef/316RvMwmgzQj9V1E86jkA01ioPhUuXEBCiL8jLGKQzC+KILIhh746UJAO5IB1oEM2DIJ1uEMKiI/lWzUQGzUGI3CCDqyAkahANiQFZCSkchDwOsnofZPUriM3fIB+fIAPNIBp5sS02kRCyQbQyghCqQZyuxfjgKUbwgxDHQT4MNnrpcyEBgnScQTqf0mmaRRTNh9g20ZAIYoIi1lvTiNmLICtuQSYIemnIHoX4CqIBGmTrYRAt6UB75cMaZFIQ/+SjE2SlOIjGdJCOPojmceA+ujgCrSAgg92w0korBfoVWXALsphSKjl9A3F59sqITHSDTLBjH005MjAtk2xAnAMPPDDIToh4XSbXQSbjsZ8aEPE/F26++eYgA9NAnygEQBBCsl7UQb8uC1xBBpexXCEUYp8+6JUwBfKtmHfeeQN9f9U+32TX1qnYxQuy/TDmIa8TVmMAACfUSURBVMRxENuXbeXniR0BR6AYgeEydi5u/X+vyqwviFmIIIunQQjd+K1ijM1Yu5kw9mIsRr8pjqmDaJ4FxqOitRxk23YcnxXlwRhOfI3EsblsYw5CgMRofKsYN4tiSFGyeI1vhihABNllFsf01FU0nevGJ6ATY/J2cGpYOQ90BIY4ArKwEoRQDLL4FedrQiy23aJucRDiAynyAkLwBlmYCqJcFvspIZVj/8XcvYyIKYbYZ8IxMA9lXt6sH7L5wlXwJ4pe9nLDc+bB9Hv016KNHcS8ZRDyu2GaoR44mG0WxbXIA8GlCEk/1KEbuvXvOBXtGQ5AALMG8oREMwXYlWlX0MrFBAF5YkPMxREYDARkIhdtV7MKXGbbHuZP2Brp4gi0ioBuE817fW+WD5pQ2HRrRXT7MKvxVcTaDEdjQgaqpbJRkztq87xUokGIJARD0jawmmiDUHRhEWir8a3Lb3MujNzlizhupS78ucZxl8H27Ic9Aj52HvaPgAPgCDgCbSLA3E05g1btshcV7RxEESp+zREYHgi4qYpBus+77LJLnGy24sytXtXGjRsX83KHDfUQ8uvdQADHJhAm2MtrJmxLxC5ckVH+Zmk9fHgjgEd2njNMt5TZJmbRqkIcs61Xt+ZiP7IVIa2a26HOmKcoKwy+55lnnkx2oZRNMijxsClNW/ib0sQx26h1+18vEMeYFVFsnDgelMfRCxnmCPjYeZg/AN58R8ARaBsB0eSNfj0wefj666+3lZ9zEG3B54kdgSGNgBPHg3T7sA3LhJxJcN4zcCtVwLEddjTR5oR4cHEEBgsBtQ8NcYIDRewxFwmO/XjWcarSyO5fUVq/5gisvPLKkZzDA3KrUoU4pgy12y3b2VoiS1kIVCIRO5d4oW9FTj755GgbrSgNDiywC68CcaoORfWaPWKbDE/3pGtF+DaJ2aBkg/KrX/1qalM3iGO+W9gM5q+RYF8em3aKbxniGAzAzDpQalRGmTCcimDHHsGpotanGXEMdvR/ZW3qkT9tRGP9rbfe4mcpoX7qSIYEshW94XNYpV5V0pSqvEdyBJog4GPnJgB5sCPgCDgCJRBAMQIliTXXXDPaFy+RZEAU5yAGQOIXHIFhhYATx4N4u9kuwrZbiF88ELcqGFnH4DtG21vVxGu1LI/vCOQRuOqqqxJpouQJTlpWW221+EzijAXv34RhZP/BBx/MZ+G/HYGGCPziF79Iz5g65GmYIBdYlThWsxE8uziwKCMQtOrdnnT07Z0QHMHhdAIzL+SLc5Pzzz8/Ezu/8TeLMkoO45zokEMOic6ZiMsfjjHwTA2x2Yj4xakqJDGa3aTj28KEAscTmhfpITEpE0Jf//gGqfBdwxmJhnHEiVxecL5HeardTRngh7NQ7rsV7kfewYfN3xKrEEs4dKIvUmdKfGMpC/K5ikC+jho1KmFOXXF4iDMpxaYecYwzEPpC64gWh1FiD7kuoU0911hjjeT8gzIwCYS2JQ6ncMzHHw52uScQ42JvOS4g02axsR21iHDKCr44N8k7z6pSryppquDtaRyBRgj42LkROh7mCDgCjkA5BPimMz8T2+U1C85lUjsHUQYlj+MI9DcCThxPgfvLdldxUpGxcldWLr/88kgksI3bxRGYUgjw7I4YMSIRNEqi6BHP4xAkTPRcHIFWEdhhhx0SMXffffe1mjyrShzfe++9qVzIujJy++23pzQ8/xdccEGZZA3j4PUaAlffJ47XXnvtgPdNnOtFDWFxUhnjiiOOGI/FHasxDKGYF4hHiGnyFkd+Gd8Udgnst99+NeUSrsTzxIkTUxqu46VbhTiEW+1rSG4rkNRK6hIPMvSggw6KWyfJD5L8FWMbGtvWO++8cw0hzi4HrvGnGrbirDMTR6mRZP7BD34QMdh9991TWRDIZRcCtL5s6ZxvvvkiFrvttlvGRAuMmGxRV/0rIo7x9IzHaoh7vtnYrxaHjSkNBHt+pxAEL2QvBD5kMHiy6Kae0LU8PV588cUZRLT+5jh69OhMnEnWXBOnVNqk6IG61XpVaUsq0E8cgS4g4GPnLoDqWToCjsCwQuCDDz6Iu0bFEXLpdjsHURoqj+gI9DUCThxPodvLxLfeVv+iKomX++z3v/99UZBfcwQGHQEIGxxFYdMVggEHYS+88MIAUmTQK+YFDmkEMG+ihNhLL73UcluqEseYeNByIVPLyGmnnZbSkBaN2kaCGQII1gkTJhT+Pffcc5HkvOWWW2q0bcWjfdQq3n777SMpiTYp5gnGjh2byr/66qtT0dgXRzuWOkGcqnayRjjssMNiGBqtedMXaO4qDhyVOCYt9VctYEsca77sglF7xJY4RjtWNbMhUa0cc8wxqTzqlReIVq1PkamKtddeO4YzqbFy9NFHp3TiUTsr65SWb+wss8wS0+677742y4w+T7XAqVOeOIbs5TrPoDWVgXY0ThO1HdY5DWS5aibny2NXkqbBDApmTdDC5zn52c9+lo0cOTKFE2+hhRaKRDWa1/zWRYMq9aqSpgYs/+EIdAkBHzt3CVjP1hFwBIYVAvfff3/p9joHURoqj+gI9DUCThz39e31xjkCjoAjMDQQwOyCEmUci+wF49QDYq/eH+nQ2K0XDoFpyVBFBtu4tmwWQZoJWp42jbVHXJQWR3pLLbVUNEFg0+k5dpZVll9++ZT3xhtvrJejvVwlQa2G7xNPPJHicILZA82XclUgnCGMCStyygdxajWe81jhzI+0RcQxZUC6E26J4/feey9pAK+//vpalXhk4qL1RFM4L42IY7SuSYtpDUvUkge/leQmzhVXXJHPuvC33lPIedVqthEhd7W+ljgGp2WXXTaGnXXWWTZJPB8zZkxKh3dzFWsihcU3K7RBFwAg5Hk/rFiNdzSW9RmgLpDcSJV6VUlj6+XnjoAj4Ag4Ao6AI+AIOAKOgCPQXwhMRXNkIuTiCDgCjoAj4AhMMQREGzcIsRrLF83jIBqsA+oiJGQQwnTAdb0gZh2CkH5BNFH1Us1RCLgg9oJrrukPMRUQxF5u/Dl+/Pggtrs1qPC45557hnPOOSeFPfbYY0FMR6Tf9U4mT54cVlhhhSC2jGOU6aefPtx5551BbM6lJOKIMlAH5I033ghCjqYwPRHzEkFs2gaxKx7EaVugbYho5oYNNtggCLEYf4tWaxAiN57vtdde4eyzz47notEd08Yf5p+YOAhiczheERIxiImJFComHIKQkkGI4yCatOm6nogJplhfyqNcFTFBEkSTOuK12Wab6eXw8MMPBzGxEH+LTeEgZhhSGCerrrpqEJMl8RrtElI7hYud5XDDDTcEMdsQttxyy3RdT0Q7N4hZiPhTzFgEIW81qPAoixJBzFHEZ2DbbbcNl1566YB4QlYHsckcrwtxHMQsTzx/+umnwxJLLBHPxaRGEC3imrRC6oYHHnggXuM+id3qINrgsd5iBiNel234QQj/mnRi8iKIXeN4jTy4NyrgAj6ImFcJYn9Qg9KxSr3EUWKltqRC/cQRcAQcAUfAEXAEHAFHwBFwBPoKASeO++p2emMcAUfAERiaCEACQgYiiy66aJg0aVLLDRFTCEG27Ifrr7++5bRi0iBAHiJidzaIg7eGeYipiiB2gVOcG2+8MYjztPS70YklcMUmcSJHNc1aa60VIBIRSEYxV6FBdY+//e1vw4UXXhj/tB1EhqCG8EXEFnIQbepIMosd8iCaqvG6/SdavkE0geOlThHHNn8IYPHuHYlOMXeTgrbbbrsg5hnSb04aEcdiny/I9slIpnLfG4k4/Qvk30i451tvvXWMYklhm0bMkSRy18YR28RBCfFvfetbNknhuWglR3J5n332CWeccUaMc9FFF4Xtt9++Jr7Yk4+LClyEzNeFFX6LOYkgTgs5DWKWIhx33HHx3P6rUi8WMaq0xZbr546AI+AIOAKOgCPgCDgCjoAj0EcI9JcCtbfGEXAEHAFHYCgigCMx+bTGP9HIrdSEqjaOKQwna1q+kHlNyxeCLcUn3aGHHto0jUZQ53SkE+1gvZyOQhynvIU4TteLTjCrIaRotC+MDV7qIRrLKb0QxzEZDisxeUCZxKsn1rkeZgusiCZxTN+KqQpNj+kFbKKruQtMc1g70bQhL/VMVVAvnMnRFrDshOBcj/z4E03ywixFszvFEeI4xVFbzTgALDKxkiLmTrBnrWVus802udAs2i0mfIYZZhhgP17tEBOu9ozzGVSpV5U0+XL9tyPgCDgCjoAj4Ag4Ao6AI+AI9A8CbuO4f+6lt8QRcAQcgSGLgGjLJhINB19VpB3ieMkll0zlX3XVVU2Lx16wkn4c847fGmVwyCGHpLSipTwgalniGOJVbfkecMABibQUrdeUvxLHYoIgXcMmrphxGFAuF7pBHGNzV+02i/ZzJuYXYtkvv/xyqlMrxDEOABV7MddR2I5WL4qGecpTTFAUJq9HHEPcan2effbZwrRFF2kHzyxpIfVxnqiCAzzNEwekeSlDHFepV5U0+br5b0fAEXAEHAFHwBFwBBwBR8AR6B8EnDjun3vpLREE0PbC++tQEtm6Hess9lWHUrW9ro5ARxG47bbbElE244wzVsq7HeIYLVwl6h599NFS5VuykbRiTqBUuk4Qxzhh0/qOGzeuptwi4hjHdxqfo5i2qEmjPyxxTN9kpazGMVrFKjh1E9vBsezFF188ox4qVYlj0qP1TDtwZGfz1Lz1+Nxzz2V33HGH/qx7/Pa3v53wEZvMhfEscWydC44dOzal5d42Eu4VhLGK2PLOwEXbAnG7//77Z5/85CczsYOcoQldJGWI4yr1qpKmqH5+zRFwBIYPAvRjtl8bPi33ljoCjoAj4Ag4AsMDASeOh8d97vtW/upXv8rEaVbyQv/nP/+559v8u9/9Ljv66KMzJWMeeuihnq+zV9AR6BYCEyZMSOQbJFqVhZSqxDFmFMTxWir/nXfeKdVMNGnVZAJ1FpuzWd68Q1FGnSCO0cqmzNlmm21AmZY4Fid4qQqf+cxnUhuLtFiJaInjDz/8MKXlRAlgyNoimWuuuWL+4iQvBV9++eWpTMhuK5Y4Fod0Niie1zNVQaANE1vTA9LqBbHXW5d81TgcxZleqieLCEUkiCWOv//976fkYvs4pYXwRRu9SMRZXSb2qrMPPvggBUPgg+uyyy6bkSeLEbvttlt28sknZ5ghqSdliOMq9aqSpl4d/frwRkAce2YswlX9y/c/wxvN3m09O1/4fvJd6CXFDeYE4rS2d4HzmjkCjoAj4Ag4AkMIASeOh9DN8qoWIyAOhDJsS0Ki6F+vE8dolaFNpvXl6MRx8f31q8MDAYjiT33qU+mdEAdvLTe8KnH82muvpXKnm266lsq1tnF5j5lEN5NWiOM//elPA7Kz2sNoZ2O/2ArmL7RvwUQFgmmK9dZbL12HHLUEpqa3xHG+bGvOI9/HPvnkkxnYUe7MM8+s2WV77713KlMcuKXrnNjFAghTBBJfZbXVVktptTyIef4OPfTQFAZpcdRRRw0g0NHupT5qGkPzLToSRzHjeMIJJwyIZonj0aNHp/D33nsvkiaafpFFFslefPHFFM4JGnni0C/eAw2AnBZnjhmmQyZPnqyXSx0tcWzrYhNXqVeVNLZMP3cEFIFLLrmkxna8vh9ljywsufQ+Atir13t6/PHH90SF9dvSKVNGPdEor4Qj4Ag4Ao6AIzAFEXDieAqC70V3BoHx48dn/KmtTwawSjJ0poTO58KW9kceeSTD3qcOuJ047jzOnuPQQmDjjTdO7wNEZKuy8sorZ9tvv32ryaJGnL6HTIJbEcw57Lzzzqne5HPkkUc2zKIZcbzqqqum/J544okBeUGuTj311CnOmDFjMrTz3nrrraixqm3h+JOf/CTDDAPOB9F4VQd5hK244oqZ1a6+6aabokaspsfOLn2pmqxgEq5halOZsIsuuqgmHQt5EKeYqcBesKZBSxoimzTXXntt1JbWsOWWWy4SyYsuumhqr9WcvuyyyzIcBaJpTHmQ3qrhrHnQHghlNHfJh+ut3E/bPvDF7rYKJLolSNAupx1Krp9yyimpnZSL9t2OO+6YodmN1vP0008ftfJsP3/FFVekNDjHQ+v54osvzq6++up43+66666IiSXTtT7j5Zun7V5//fX18oBjlXpVSTOgYL/gCPwHATTn0bTX53WvvfbKHn744Zo/3gv6GxaXNO5TTz3lGA4BBHB6Sn8566yzxv69F6q80047xeeNRbl6O0B6oZ5eB0fAEXAEBgsB9XkyWOV5Of2HgBPH/XdPh22L2OqrE5NeJ471JkEsaJ0toaDhfnQEhhMCF1xwQXofINEGSyyBh63lVgUNWMhizBTo+/yVr3wlEoB/+MMfYnZol0ICQ5pYzWo0clXIB0LF5oPTuPfff1+jpOMGG2yQyqJMiEo0byFTrRkHwuaee+4MsxpIXkOadOQFEWrNdZCO35jimDRpUkwLsWN3d9COmWaaKdbj4IMPriFymbBDlqKla9OQJ2WSP2QpR/v3wx/+MJbFv2OOOaYmjDyVsCUcotuaCrH5cI4ZD7bLlxXMRsw555w1ZS6xxBLZpptumlkb2FoOu0ZGjhwZs4fctYS/xrHHvL1i+7zbePlz7h9krmqWQ8iPGjUq1XOGGWbIHnjggQEa11SsSr2qpCmLsccbngjQH+pzjRmWRqKa/TzTLkMDAb5z2j9N6RqzI0cXH3jmWEx0cQQcAUdgOCPAWJgFPlUEGc5YeNurI+DEcXXsPGWPIVC0rbnHqjigOnYbtxPHA+DxC8MMATRK1ekZZhUGS5SEw9Ys5G1VweQF2r2f//znE0nCxFVNOChxgnkJ3n0lZLU8S65oXI4Qr9dcc41Gi8dXX301W2aZZVI5ELJozKJBDOGipnAwj2DtHJMYjV1LTlMG5CNawGqqArISMhxb7FYgiCFwtX5M0JXkVw1gTIag4QzBiZx66qmpPqTjHqNVi6y77roxL+qTn+DzPHz961+P4bQPs0T57esTJ06M5h60PnqExG2FNI6VkX9vv/12tvrqq6f2aX5o9YIPv9HaxhzInXfeWfO8QLh+73vfq9HqJj4YnXfeeVpEOmKexWoxa1n1jpikuPXWW2uIeBvXamunQuSk1XqRtkoaW6afOwIWgbXWWiu9U82IY9ItuOCC2e23326z8HNHoBQCxx57bHrW6B9ZDHR72aWg80iOgCPQpwjgdJn+0InjPr3Bg9SsqShHHiQXR2DIIyATkyBbe2M7ROM4iDZcz7dJiIAgpEqspxDHQbZa93ydvYKOQDcROOOMM8I+++wThEgMYhc2iAmabhYXhCgOc8wxRxDCNYhWZxBHax0p79lnnw2vvPJKzFcI1CDbeIOQsUFI5SDO44Ks/LddjgwAgzgGDaJhFcT+cBDyN+UphG8Qu7lByMR0zZ6IdlgQcyAx/cILLxyWWmqpiLUQkywoByE0gxCkNkk6F+2y8NOf/jTiRp8lxGgMu/LKK4NM0oOQtimunnAvxXFSEM3dIKRQEDI8BlGW2BcO1EE0lDV6zVE0gSNe5F1PhFAOotEd8xVCPSywwAL1opa6LsR8EHNCQQjrsMIKK8R7Bqai5RzWWWedeC/rZSTa5RFbMdcRvvSlL0VsZfFgQHTRAg+iQR3ETEcYO3ZsvI/gRHr+xAxGAGvqcf3118cyqVdVKVsvm3+VNDa9nzsCIEB/Qp+BCHEcGPs0Ep533uN55pmnUTQPcwRqEOCbOP/884d8PykLlWGLLbaoies/HAFHwBEYDgjIbsH4DaZ/5I9xrYsjUAUBJ46roOZp2kJA7HBGska002I+ouEVZLtzQ4JINLOCaPMF0ihJka/E2muvHegcEUsci6ZBoMxWJiCyNTxO2iE5WiF4IKEgF0TbL8wyyyz5Kg74LSuAcRJFgBPHA+DxC8MQAd71xRdfPIhdzLiosu+++3YVBbGdG8SWbiReeQfr9S9drYRnPuwQ4DkX80pxcUEcQQbRQm+IAd83sVEd+F66OAJDDYGyxLE4Z4yTWjFn0/EmihZ9YGwnzjtT3izMsHj1mc98Jl1rdEJcFgRRTGAxsJEw9mRxiIUyFXFSGmQnRKnxaJWxMmNf+gjIU9kZosXWPVYpoygzcGGhbN55543j33wc2sxiMGN9FcbKLKjVWzDUeK0cWXAQ00JBdv4EFhxvvvnmmFzMN4V77723laxiXPBkUZnFXjGL1HJ6T+AIOAIDEWCBnD5U59fMnekrmafXU1iwueh7SXzNw4Z36pz+GqUEFABUIF7pW+jr6hGwtAW+omzdWum3W+1LGTeizIECC9KMOO7UN0Hx8mOfISAfexdHoOsIsP37rLPOis4z5BWK2yXYro15CRnEF25JJA12HUUTLjmCYss2NidlMDigznYrpHTCcUsztjt1mzhbH8eNGzcgnV6QD0TcXi0fiFg/6on9TBwusfVNOluNOuDIlvOtt966xt4m29VxivTMM88MiK8XvvOd76SyhLTSy350BIY1AqKtG00nYENXSLWuYfG3v/0tE83UTEiDZAO4a4V5xo6AQQCzHHxj+J41E9H6zRZZZJFoE7pZXA93BHoRAdHST2OdRqYqDjzwwGjb3LYBu/A4Ps3/iQZpjPajH/1oQJg1c4FDIEzIYKec9wjB9I9MppNZGRwV44Cznjz66KPRhA3fJB3Dyk6V6PwTsy5WMKdz0EEHpfEuZhKwn77DDjvE8S7phfDIZJeBTRbPq4yVMXmDCSGcj6o9eUwVYXaoyMFglTIGVPQ/F7AnfOKJJ8ayadd9992XotJuzPusscYasV44LUXOP//8bPnll4/XqKcsimWyOyala+eEOQUYyE6cTDTc072ibnnTUPXKod5HHXVU9A2g95o8ZUE7OkxlrM4f/giEZKmXjV93BBwBgwD95HXXXZcxV+d9om/gvd9jjz2SiTpMluEku6g/wPQZjqUZr+t7KTsSM0y84RuDfk3lkksuGfBN4PuBjwwhrTVa7Cfy3xXSYnaOPNXnBe85dcLpJqbHKJ/+X3ZHZvS/CGbORonvCfWHgfk3HDzTnxRJK/121b70hBNOyMBI8eJo26v9Vye/CUVt9Wv9g4DbOO6fe9nTLWFgSYeFPUvsQkL84hgJW5Fct4N8GoKdTiWC+YjgBAkbkdjd1A4wP+jW+ITfcccdyQGTxufIIPW5554bgBUfpDXXXDPmzYD20ksvzURzIdoM1fTYuJStwwPS8vHjY0dbcH6EDUpIctE4jvkx0bjxxhsHpOOCE8eFsPhFRyC+89jS5b3E1m2nhcUlJpmU8fOf/7zT2Xt+jkBDBNR2M98XJiP1FhjFTEWc7OCEMG/fuWEBHugI9BACZYhjFu8h53CKaUU0pjIWWqxtdc7FxE2MxuQXcpJ3CYWEs88+O8NZG9cpF/voOo4TkzjZOeeck37rdT0effTRtuh4ftJJJ0XlBQiKyy+/PCoYkI+mwRkpdUcoT8lbDccOu2ispvh63bYhJpZ/rY6VRbMtW3rppSM5wPiT8ejuu++e6sCYlzGplVbLsGntOSR/npRQ4pgxu/or0PZC3n/3u98dgAPhjPPbFZ4T8uIeIJAhkOlaPrg0ExaTxXRQygdi/IMPPoiYaj72SN/t4gg4Ao0RYL4O0WrfnXPPPTfDH4a9pufM9SFiVVg81/cS5S76uauuuir55CAd/ZEKCieQupofRzHnlrEAaAWHnvfff3/ywUEa+iLlJjT9Pffck/rwfP8OOQuvkG+fprX10rJb6bfb6UtZrNt5551ryHb6LK7xx3cS6dQ3Qdvnx/5FwInj/r23PdMyVhlV6ze/ishkgM41TxzjeIjraPFasQN+VvPsSp4ljun0N9lkk2zChAnZm2++mW277bbpA8L1vEBiUx5aIAwUrTDY1A8ARJMVsdmZBs58PKw8//zzibzmQ1NETjlxbBHzc0egFgEGeTisQ+tfBzi1Mar9YmGKyTaaC2hAuDgCg40Akx79rugRkoNvDN8oHPShDU8Y78CDDz442FX08hyBjiFgiWMmrizu699tt92WXXzxxclRZp441krg1FPfFY6kR1jQh5hlnCl22zV6XHBEs/j444+vSQfZiTYuhDCauqpBRp6EvfLKKykP3juuQ3BYzWJIaesEFQegCGNZJvqW5GasutFGG2V33313JLPRsNN2oG2rUmWsTHrygtC2AgGuZUDCiImOGFylDJuvPQeb8ePH1+CgxDEYoiTCrjutB0eIfRQrWAQjvdUebHfX3S677BLL4nlSYdeili8mMQqVPzQuRzGNFeOz21C18bjOwgD9sObFPSTvdutM3i6OQL8jwLvOe8nCoL5D9JEoVuH097TTTqshgYmz2267JVggnjWdOlYmEEKZXcuEsUhmOQHC4RA0XT2H28wHiMPuZkR8JcW+S3kLwqgrfTg7OCjDchF8P9AyhtiGYGah6Sc/+Un6rjD/zztqbqXf7kRfyuKm4pDfPd3Jb0IE0P/1NQJOHPf17e2NxqFJpR0WHw8raBIymLPEMdq5xOcjwPY+K2wx0ZVAjpZMssQxmhd22wodOfmRL+SwFQbzWj80jfNCGdRR41jtYSYfXGdAWSRoWGg6Pkq2TsR34rgINb/mCPwXAd5diIbFFlvsvxfbPMNsDducGTC6OAJTCgEmKCNGjEjagfqt0CM7WQ4//PAMrRgXR2AoI2CJY32+6x3rEce0f7vttktjKsZdaIhuv/328RokcZEw7rJELlpldiyGVr+OK6kT240R4ogd8pg3ZGdexowZk+rCN8UKJmi0fShI2PLY7aKaurPNNltK1upYmZ17lMF2aktqkyG/tQziXHHFFbGcVstIlWtwggkObasSxxr9hhtuSGEsjGFCwoodI6MpXlUYp9Nfch8s1mIzOymuUMfTTz+9bhGkU1MkSiLZyCw0aDvFP4kN8nNHwBEogcARRxyR3iHm1XanFX0W5Ky+Y/TJYjc95mrnyuIEuaYk3W1COqulTCR+0y8QxmJQXjGMOCz6Ec7CpBVMGWldjjzySBsUzzF7oeHMUdRkhUbkO6LhmM1RqdJvk7advrQRcdyNb4K21Y/9h4ATx/13T3uuRZAzulUQrRCIWiuQvPZDgKYVnS3bAosEzV22WOTt0VnimIF5XnTLGgNDK1tuuWXq3NlSWCQMEvUDwMcCYWuKXuNjVyTi/COtOhIXosCK/Ri65oJFxs8dgVoE2E7WKUErwMUR6BUE2LbIxIKtm5ATaKuIc8i0/b1X6un1cASqImCJY7buQgjoHxNXnnnVDmtEHKNdzOK/jr2WWWaZeL733ns3rJou/otDo8J4dpKPpj+CdpmWAzGw33771fxZ4gCSwxIHNiyvBUfe6ksDclel1bEyW6qpH1uk83XjtyXLGWcjrZahdWt0VC1d6pInjhnzKoZq49jmdeWVV6bwRvfdpik6V63yM844Y0DwrrvumspYaKGFBoTrBfpcrauO8zWMIyY/NBzTdS6OgCPQGgJqEoH3KE/UkhPfBLuIp8pc2BOHP4DMVbNAxOdcHK+m9xLt3LzY/kn7QRuH3SSYAsubxNtwww1Tvnb3gabdc889U3i+3yOO3fVhtaSr9Nvk105f2og47sY3gfq69CcCThz3533tuVbZQTQfDLSsHnjggcJ6qmH5rbbaqjC83sVmxDH2jShbvJzWZKGrkZDbaK8UidVKFm/fMcpxxx2XPhpoTdQT1UqmbLa2WXHi2KLh546AI+AIOAKOgCPQbwhY4riRczwc9zQjEFn4s3Ym0e61pG0RdqpJim3iIrEkMcQFZO+Pf/zjNMbDyVGzP6uwgMkZxnz8FRHH+NIgjHGnlVbGyosuumjMA/K8Wd1wIKjSShmaptHR2i3OEyiYslAciohjdhtqONqIVQTyiAUBiHJMYECE2D9LuFBWXoFDy8SUniq55HcmEgflDq3r5ptvrsn86Ag4AiURsFr79XaIKLHKu4aDuiJhsZ2wvO14HKHmBUd3uuOY+Ts+jVT4llAOC215wWSYvu9FxLHdLZHv98iL3Q2a3iq6Ve232+lLGxHH1LXT3wTydOlPBJw47s/72nOtwkSFOovTjpQjdn7s1jW2m2l4kS3iRg1rRhyrYX07UGcbi5YHoWy3uNmyXnrppRSP+HxErO3jom0smt7aV7Y2mwh34lhR8qMj4Ag4Ao6AI+AI9CMCZYljyMVjjz22KQRM9HXsxkS8XeKY9Eoaki8EBAQ255DU9ZQK6lVUd86Rvog4xm4/YXY8Sl5lx8qMVdl6TR6NFBeK6le2jKK0RdcOOOCAdC/yBMq9996bwoqIY+xU0wb+qhLHat5O82l2hJiqJ2qahPti5ybEt3bp0XB2cQQcgdYQKEMcH3LIIalPwDSRFXYFcI3FPZTMMANkHQ0XEcekZ8eI9gt2vj5y5Mh4HZ9EebH22asQx+x+0DKVOG6n326nL21GHHf6m5DH0n/3DwJOHPfPvez5lrBCuOmmm6aOVDtUnGNMmjQp1v/VV19N4UU2xho1shlxjOkLyrQD9TwhjGmJImFSYTVc0EywhDCOMuoJg2Vt61577VUTzYnjGjj8hyPgCDgCjoAj4Aj0GQJliWNs2ue3DBdBYbcfM76CvGwkzTSOSTvXXHPFsRpjPeqBSQ0duz377LONsh8QVpU4JqMyY2WcQmndqmi/liljQKPqXJjSxDHEEfcMUz/Yci76s2NtSCfmGkVywQUXpLE+fhBUmQStZiVf5ptvvhqtxaJ8/Joj4AgMRKAMcTxu3LjUt9l+HQd6ared67qYx24L7QvrEccQzrowCOdA/86uBDSR6auLpBvEcTv9djeJY9rfyW9CEZ5+rT8QcOK4P+7jkGoFK1tsR9SOniMDMQRvn6pFweCOjqyesMXNek+uQhxjjB9NY60LTlKKhEGjfnTwtIrgtEjTMSmqJ2yn0Xh5LQU7mHUbx/UQ9OuOgCPgCDgCjoAjMFQRKEsc2/axA63Itj32kBlTsWNNx2+Mz5hY15NWiOO55547ZjN27Ng0dkMLrpFAdkAKqLRDHGsejcbKxJl99tlj/dh+XeT0SfPBHweavUXSrIyiNPlrU5I4/uUvfxkxwM5pI2ExYuaZZy51P9EO1DH7mmuumeEEUbdyYxbl6aefblSUhzkCjkAdBFoljlnIQXBOqu8kfa2VMsQx8a0/I+qh5ibrmczoBnFMPar2290mjqkb0olvwkc5+f9+RMCJ4368qz3WJozVr7DCCgNqdc4556RBPx8E1ehYZJFF0gdi9OjRA9JxAcIX5yI33XRTCq9CHJMYm3f6QarnKfnNN99Mcb75zW/GMvnYaDpWLesN3K1jjgkTJqT6cuLEcQ0c/sMRcAQcAUfAEXAE+gyBKsQx24txmGeF8SSOjNhBhgkISD0dh2HnFud5RaLEMePGIiEvVQ6AkEZwxKx54wuDcWCRQCROO+20UYtNw6sQx62OlVUDljoW2ejUukCAqFOoVsvQPBodpyRxjPk32o8iSTOxtphnm222uuZNMJVCnsTHJB3+Vlg4YMyPEomLI+AIVEPAEsc4xiwS+irtd1WhSp3b897qLgBNa4ljdhHXk4kTJ6Z8IW/ZYcKxyJQQeXSLOK7Sb1OfbhHH3fgmUF+X/kTg/wMAAP//mB+VTgAAQABJREFU7J0FuCTF1f6bhOCyyOKExRcNBA9O+HBZwhIkwOJuG9yC6+LubglOgOC6uC2uYXGXJEAWQpL+16++/6mvpm/PTPfI3pl73/M893ZPl/bb3aer3zp1TpJKhECbEXj99dfTJEnSV155pUdLG2+8sU8j/Y477vDpu+++ezg27rjjpn/6058qyv3nP/9Jd9hhh3TAgAHpDz/8ENJWXnnlUO7vf/97OG47iy22mE8fZ5xx7JDfnnLKKaHctNNOm/74448V6fy4/fbbQ57rr7/ep//zn/9Mp59++nD8tNNO61GOA4svvrjPs8ACC/RIHz58eCj/yCOP9EjXASEgBISAEBACQkAIdDMC//M//xPGOieccELdU7nnnntSxmq33HJLyMt4j/EUY7/Ro0f74//+97/DGItx5Oabbx7yxzuTTjqpb58xW5489NBDoX9XX321z/L111+nk08+eTg+33zzpW+++WZF8a+++iplbLfmmmtWHF9hhRVCuXicapmWWmopnx6PR8uOlQ855JDQxk9+8pP0qKOOSv/73/9aE357/vnn+zxPPfWU/122jYrKqvzYa6+9Qj8efPDBilwPPPBASNt///0r0vhx5513hvTDDjusR3qtAx999FE6/vjjp7POOmuP884r9/LLL4e2uFfOPffcHtkuuugin2ePPfbokVbkwMcff5x+//33RbIqjxDodwiceOKJ4RnMe/4AZKWVVvJ50Ld8j3/xxRehDLo/+3ytu+66If21117zmPJeyBP0NM++/R1wwAF52fyx9ddfP+RD12QFfWb1ZPUeeeEELP2yyy4LxRvR2xRuRpfG76N//OMfvi+8K/hrxzshnKx2+hwCSZ87I51QxyFgSmnFFVdMIX1jOfXUU71i/elPf5p++umnPomXBC8HU7iQx9tvv3161VVXpRdccEFqBDDKNxYbiFPO6orTF1544VDnd999F5J4Cc0888whbaeddgpptrPaaqv59OWXX75igHrWWWeFclNMMYVXwFaG7eOPPx7S77333jjJ72+77bYhnQG0RAgIASEgBISAEBACfQmBRRddNIx1smO37Hnefffd6VRTTZUypopJVxsvZY0JXnrppfRnP/tZqD/+SLe6jThmfHjXXXfZ4bBdZZVVfPllllkmHGPn5JNPDvVSFiJ5q622SiFAhg4dmk4yySQppO2jjz5aUW6hhRYK5f72t79VpPEjxsPGo2XHyt9++20644wzhnboH+Ng8IUQmX/++X3a6quvHtov20YoWGMHQw7a5g8ji1huuummkJZHxt56660hHQK6jOy4446+7K677lq42CyzzBLaGzRoUAqGscw111w+fbbZZkshsiHer7jiihSDEc4NA48PP/wwLhL2rT/cu3mGMiGjdoRAP0UgJo7RtVlOAD1quoT3AAJ5HOv3I444Iv3Xv/6VMkmz0UYbhfyUu/nmm9NddtnFk7Z5EI8cOTLkR2+/8847edn8sVVXXTXkzU4YkmHPPfcM6Xnf7/G5xpOljeht2mtGl2622Wahr+gzDN+WW2659OKLLw7EcVGOhr5I+i8CIo7777Ufa2duA1WU+jrrrJO+//77vm1m/5lR5PjOO+9c0Z9LL700hTC2F0h2y4xk/MJ55pln0okmmijkx4o4nnF84oknKl48KMtYnn/++XSmmWYK5bF6fuGFF9K33nrLfyTQPgPJt99+Oy7m+8Bg2Po3++yzp9dee236ySefeEuZaaaZxqcdeuihFeX4AUHOwNXKDhs2zL8Me2TUASEgBISAEBACQkAIdBkCfOAz6Y9xgI11Bg4c6IlNDAfsj49sCM+11lor5IOgRSCPDzzwQH8covbLL7+sQIF0MyigjQknnNCvVKNtk5g4xlDgtttu8/ViOGAWs1NOOWXKWDAWSAsMBqzveduDDjooFMGCCyOBePx6zjnnVBgcYFAQEyEYRMSWX7RRdKyMRfYEE0xQtX+MQWOis5HxeDi5nB3GsVj8Gi5YfNuqvc8//zzdYIMNQto888xTce0gLzbccMOQzvcAVt71hGsWG21AeHz22Wc1i4HvqFGjUq6x9ZUt5BDWgqQjsRFJnC/eh3Bi0uDZZ58NbXIPxteUe1kiBIRAJQIxmcozxaSPfVc//fTT4Zt46623rii49tprVzy3TODxHDJxBgEaP588w7UIYcufXSUSN/jGG29UGLCxmiPmHNCpfO9bu9tss02FJTT66Fe/+lVIZ0W0TRDSTlm93awuPeaYY0Jf6DPvJyPuW/1OiHHUft9DQMRx37umHXdGppQmnnjioLj4cEB5scwMy4iY5LUTYFlG7AqC/Hx8MMsXK2CzFDEFbtvxxhvPfwTMOeecoV1LYzv11FNbU37Li4AXCi+jOB+Dwd/97nc1B6ann356jwEpddC2LXuMG0OJs0Qxbod9zu+aa66Js2pfCAgBISAEhIAQEAJdhcCxxx5bMaGfHe/U+20WZ4y/4ryM7SAdTcyyNs7D/tJLL21ZUiOOGd/ZBz/GBtRFXj7y33333ZA/3oEIZVlyTH5TBoL6vPPOi7N6wjfbD35D7mIsMXjw4Ipzsbz078UXX/RpZcfKEKJ59UJ4x6QxHW10PF5xkv//B5jkjWMZM2OpGxOpdp5ssX67/PLLK8h1S6e+I488Mq+5cCz7XWBlIW+qSfYesjK2ZUyOPPbYY7nnZPniLdfsgw8+CE3Gy8Hvv//+cFw7QkAI/C8CMXE8xxxzhGfNVhmjJ88444wecL333nvpIossEnQnepxJKQharIhNj+M2CIOvWsKkDs8xqx3ypJqugK+grU022ST0I9YH9AmjN+rP04ukX3fddaHJono7a/gWt1lUl/K+NBcg9IMJs7/+9a++L618J4ST006fRcA7e3U3oUQItA0BRwonTjElzpogcX6CEueDKBk9enTiBn+JW66XOIuIqm07K4DEDbYTZ1Hs87kXR+L8EFfN34qEb775JnnyySd9H93MZeKWHBZq02mJxC1n8WXdbF7iXooJ/XUvkFZ0S3UIASEgBISAEBACQkAIlERgsskmSxjbzTvvvH486SyL/VjUWa75cahbcVa3Rmew4Msyzpt77rkT5/4scSRv3XJFMzQzVqYNRwQkzmrPjzkZezqCvEfTzbbRo8I+dsBZtiduWXnirMYT7glHTCVuaXnCtef+cW5HEmfNmPzxj39MHJmVXHjhhYmzjPcojBkzJnGWhP5bx01m9DFkdDpCoHkETjrppMQZf/mKnMuhZIkllkjc6l7/nPHM/OIXv0gcQZvbkLP49VyCW+Xgv8vR6SbOPWXirHKTes8d3+luki1xKwQSZ+mcOBLVqui1bRG93arOucnRxE3oJTPMMEOoUu+EAIV2CiAg4rgASMoiBISAEBACQkAICAEhIASEQPchEBPHGCNIhEAWAedSJXHWhgnksbN6ziZX/HbuRhLnT7qCOK7IoB9CQAj0QCBLHDur4R552nnA+bdPnLVt4lxPJG61czubUt1CoE8iIOK4T15WnZQQEAJCQAgIASEgBISAEBACIo51D9RC4KuvvvKrBJ2P5eTGG29MhgwZUit74pakJ1tssYVfZcjqQokQEAL1EehN4pgVzM4dpV81wqqBdq9ero+GcgiB7kNAxHH3XTP1WAgIASEgBISAEBACQkAICIECCDh/xIkLqpa4uBOJC3xUoISy9CcEXIC8xPko9qeMi4rjjjsuWW+99RLum1j+8Y9/JM5/s7dW3GWXXRLnszVO1r4QEAI1EOC52m+//XyOK6+8MnH+gmvkbi7p9ttvT5y/Ye/6AsL4ueeeS+64445k7733To4//vjmKldpIdBPERBx3E8vvE5bCAgBISAEhIAQEAJCQAj0ZQQ++eQTH1ODc5xkkkkS/GG6wHh9+ZR1biURcMGjvK/rV199NZTESn2uueZKpptuOu83+uOPP/Z+scm74447JqecckpCPBOJEBACxRDYYYcdknPPPddnPvzww5ODDz64WMEGci2zzDLJI488UlGSWEscw7e9RAgIgfIIiDguj5lKCAEhIASEgBAQAkJACAgBIdChCLz//vvJySefnNx6663epYB1kwBMK664YnLEEUd4ItmOa9u/ESDwHWTw2Wef7YN15aFBMK8zzzzTB77OS9cxISAEeiJw2WWX+cCRN910U0KQO4QgbRtuuGGy/vrr13UN07PG+kfwUx4T0xDJBOSbfvrp6xdWDiEgBHIREHGcC4sOCgEhIASEgBAQAkJACAgBIdCNCGAhir/aPBlnnHGSrbbayi9jzkvXsf6LwA8//JCMGjUqwQ/qBx98kEwxxRTJPPPM4/8GDBjQf4HRmQuBBhG45ZZb/LOUV3zBBRdMIHVbLWmaJiNHjkyeeuqpZOGFF/aTha1uQ/UJgf6GgIjj/nbFdb5CQAgIASEgBISAEBACQkAICAEhIASEgBAQAkJACAiBOgiIOK4DkJKFgBAQAkJACAgBISAEhIAQEAJCQAgIASEgBISAEBAC/Q0BEcf97YrrfIWAEBACQkAICAEhIASEgBAQAkJACAgBISAEhIAQEAJ1EBBxXAcgJQsBISAEhIAQEAJCQAgIASEgBISAEBACQkAICAEhIAT6GwIijvvbFdf5CgEhIASEgBAQAkJACAgBISAEhIAQEAJCQAgIASEgBOogIOK4DkBKFgJCQAgIASEgBISAEBACQkAICAEhIASEgBAQAkJACPQ3BEQc97crrvMVAkJACAgBISAEhIAQEAJCQAgIASEgBISAEBACQkAI1EFAxHEdgJQsBISAEBACQkAICAEhIASEgBAQAkJACAgBISAEhIAQ6G8IiDjub1dc5ysEhIAQEAJCQAgIASEgBISAEBACQkAICAEhIASEgBCog4CI4zoAKVkICAEhIASEgBAQAkJACAgBISAEhIAQEAJCQAgIASHQ3xAQcdzfrrjOVwgIASEgBISAEBACQkAICAEhIASEgBAQAkJACAgBIVAHARHHdQBSshAQAkJACAgBISAEhIAQEAJCQAgIASEgBISAEBACQqC/ISDiuL9dcZ2vEBACQkAICAEhIASEgBAQAkJACAgBISAEhIAQEAJCoA4CIo7rANRocpqmyXfffZdMMskkhar45ptvkkknnbRQXmWqjsBnn32W/PDDD8nMM89cPVOLU/7zn/8kn3/+eTLddNO1uObuq+7rr79Oxh9//GSiiSZqqPPff/998te//jWZb775GiqvQkIgi4B0cRaRzvjdl571d9991+u8gQMHlgK33e+ORvtV6iSUWQhUQUC6twowvXy4r+iFZt4h7dS9zfSrl28NNS8EhIAQEAJCoCoCIo6rQtN4AsTX1ltvnay++urJvvvuW6iiESNGJPfdd19y0UUXJdNPP32hMtlMP/74Y/Lcc89lD4ffP/3pTz05PWDAgGSaaaYJx7t9h4+Te++9Nzn77LOTW265JVlppZWSO++8c6ycFpMDkJwMxLfZZpvk/PPPHyvtdmIjp512WjJ8+HB/jz3yyCOlyN833ngjOffcc5NLLrkk+eqrr5J//OMfmkjpxIvcZX3qLV384YcfJvzVkimmmCKZc845a2Xpk2l95Vn/17/+lVx//fXJOeeckzz00EPJ73//++TEE08sfM3a9e5otl+FT0AZhUANBBrRvYx9jz322GTYsGE1aq6dJN2bj09f0gvNvkPapXub7Vf+ldNRISAEhIAQEAIdgoAj3SQtQsDNYKcnnXRS6qwt0yFDhqRu1rlwzeRdf/3106mmmip1H6OFy8UZ3YA5dWR1OsEEE6Tu9qr5RztDhw5NHeEZV9F1+6+++mrqyJeKc11llVXG2nk4gjq0zXXvz8K9Z/fd8ccfXxiKVVddNR1nnHFCWepwxHHh8sooBLII9LYudhMg6cILL1xxT9uzgZ5Ydtll00MOOSTb7T7/u688626CMnXWxRXX1xHHpa5fO94drehXqZNQZiGQQaAZ3esMANLJJpvMj4W/+OKLTM3Ffkr39sSpL+mFVrxD2qF7W9GvnldOR4SAEBACQkAIdA4CSed0pft7sueee/oPya222ir997//XfqEGHDvvPPOvo7ddtutdHkr4NwFpAxijKiYcsop06OOOiq94IIL0u222y4dNGhQSJt88snTq6++2op23faf//xnevfdd6dHH310OKdWE8d///vf0y+//DIXG9ofPHiwb3vXXXfNzdNfDjqL4fRnP/uZJ1Ree+213NPOw/L+++9P+XMuLsI1FHGcC58OFkSgU3Tx008/7Z8J08WzzTZb10/WFbwEPtvbb79dkb2vPOvvv/9++vjjj6fOMjLorLLEcTveHa3oV8UF0w8hUBKBZnXvqFGjUmd57P9eeumlkq3/X/b+rHuz46y+pBda8Q5ph+5tRb/+7+7VnhAQAkJACAiBzkNAxHGLrskVV1zhPyCdu4Kma1xxxRV9XWeccUbDdZ111lnhg3b++eevqMf5U04XW2yxkA6p4ZbbVuTpth/vvfdeOJ9WE8c77bRTevDBB1eF5L///W/6ySefVE3vTwkQ7LUs7Wthueiii4ZrKOK4P901rT3XTtPFiyyySLiv99tvv9aebAfXxgoYJpKYEM1KX3nWb7311nBtyxLHYNKud0ez/cpeL/0WAkUQaJXuhYRjXDrHHHOkGEI0Kv1V91YbZ/UlvdDsO6RdurfZfjV6r6ucEBACQkAICIF2IyDiuAUIP/PMM+mEE06YuuB2aaPL6+JuYK053njj+Y/ukSNHxkmF96+66qrwQZsljqnEBZFLsUQ2S7ipp566JuFXuOFeyghhaefSSuIYQpil5bWI41465a5rth6WK6ywQriGIo677vJ2RIc7URevvPLK4b4+7rjjOgKnsdEJszzMI477yrP+wAMPhGvbCHHcruvQqf1q1/mq3t5HoNW616z511hjjYZPrj/q3lrjrL6kFzr1HdKp/Wr4IVJBISAEhIAQEAL/HwERxy24FVxwNP/xuM8++7Sgtv+tArcHEKFYTDQif/rTn8IHbR5xTJ1rr712yENbzz//fCNNdUSZv/3tb+FcWkUcu2CDqQu05+sVcdzcZS6CZfyRJ+K4Obz7a+lO1MWrrbZa0E34wO8Pctddd6UuGKs/7zziuK8860zs2oRlJxHHndqv/nDv99dzbLXuhQAdd9xx/fOFj95GpL/p3nrjrL6kFzr1HdKp/Wrk+VEZISAEhIAQEAIxAiKOYzQa2Me/rn044vOwVfLEE0+Eem+88cbS1RYhjg877LDQBufAMrY84cP/o48+KmVNjQWwi+IcqqMOF2W7Id/PoZIaOxCNdh3qEcf4nyYoYK3AgOTBH7TVWY845nxZml1P6Cf+5mJsapX54Ycf0tdff70iCx8H77zzTsWxTvnB8j/6S79NimL5P//zPwHvmDimrk49XztHbXsfgU7Vxe0gL3jO0KesHCki6O8PPvggZP3444+rrjDB1cybb76ZjhkzxudH36CzigoTkAMGDAjPch5x3KpnHV+e9LWIPm2HLn3kkUfCeWaJYzD/9ttv68JW9N0BjqNHj065dvWkFf2q14bShYAh0C7dawF3F1poIe/Wxdorum2H7kXnMMZBL9aTsrq0jJ7Otl1knNUqvVBkDB33j3fPV199FR/y7t1wm9eotOIdUlT32nvG3om1+tyKftWqX2lCQAgIASEgBHoLARHHTSK/zjrr+A/HaaaZpqGBbbXm+UgkujTEJf6Iy0oR4njfffcNH7208/LLL1c08+KLL6abbLJJOsEEE4R8P//5z9OhQ4f2yEtBBtLXX399ysBpnHHGSa+99tr0888/T3fcccd0uumm83Xg9mG99dbzx60xAvctvfTSFX8xiU3QtWw6Fm2xFCGO77vvvnTZZZcNViycM9eNa/jss8+G6iBksj6gCdZifaC/Jiz922ijjbxrEayT84RB9mmnnZbOPffcAUcwXWqppdJjjz021wcofeD6DBw40JeBGIHo3nLLLYOLkVlmmaWUb2r6Z+dgW/xpI5dddlmPNMtj9wXnsdxyy1XkO/PMM315XLSccMIJ6Zxzzun7+9BDD/njZbDMDrgpi1X8xBNP7Ouca6650vPPP9/Xq39CIItAp+riVpIXTCjyzOIWySa10E1MAmaJDMhlnk/TIeSH0GUpLW6K/vKXv1RAyPNGUFWzFGaLzlpyySXTJZZYoiJvtR8jRoyoCHJJm6ZH2Brp2cyzzuqSAw88MMW9kmFAYM3FF188/cMf/tDjPdwOXWrnnyViwPyUU04Juh49v+666+YS/EXeHbQDEf/rX//au0yy80Unbrvttil1PProo/7vqaeeCufeTL/s3LQVAkURaJfuRZ/YPX/bbbcV7U7I1yrdy6QT/ukZ3zC2pU+4k2M8mbdSr4wuLaunw8lFO7RXZMzarF4oOoama4xZ+QZAd4HZAQcc4HtMkG7eJxwDQww9+E4oK828Q4roXvrPWH/mmWcO9yB9XnDBBdOLLroo6N3HHnssvNc4h2b6VRYD5RcCQkAICAEhMDYREHHcBNpEjP/JT37iBxXVSMMmqvcEgQ2aY2uxInXWI44hphdeeOEwIIKkji3DGPBB8kIeHHTQQSmDdkiIqaaaypeBuLjppptCVwiuB4Fh/WUL4TvPPPNUHLN0BmMsRUSwRLjzzjvT2WefPeSNg/VhVXfHHXekkNZW/pJLLglts1OPOIYYtQE/lmEMHCFmjZyfdtppvTUXdWE5TpBDBrTW3gILLOCPcfziiy/2xPngwYNDOvny7gFIDlu6xmD58ssvT2+44YZ0gw02CGXXWmutFIsGEz52rK/WPpHGZ5ppplDGjrOUE8KgiHBPEGzGykIe8SGAfPrpp34wTDArS2eAzDUmArUJhLCRw/T7jTfeSHHRAnFj5dgacVwES6s7HnBzP0w++eQVdVIvHxqvvvqqFdFWCHgEOlkXt4q8OPHEE73fewjSK6+80k9GzTvvvOEZYVKHyR0TJnJ4ZvARykTbn//85/R3v/tdIIZj4hg9hU6GkGSSC51yzDHHpEzWUEdR4hhyAB0Zk7pbb7110J1YeCGNPuvfffddIEggtXlPXXPNNZ7AoZ/8xS6j2qVLDeOYiNl99939RKv1I95uvvnmVqTwu4MCV199tZ/ohIBmUhaSiTZtIjZug32zDG+kX6GD2hECJRBop+598MEHg35joqSstEL3strpl7/8pR/jMBZG5+ywww5hjMaYJCa1y+rSMnq62vkXHWc1oxfKjKFxLZLVUfvvv3+61157hesZ6y6MScpKI+8QjCCKjNuxLDYinnsIwwhWj3Dd437bPu84k0b6ZWW1FQJCQAgIASHQyQiIOG7i6px66qlhELHppps2UVN+UT7ybWBS1tKyHnFMkCarm20ctOmll14KRCAWH7EQuM8IPchNIx4ZkN5+++1+Nt7qhdSEYB4+fHgKVlhnWBrb7bffPq46PfLII0N6TBxbJghfK1+GOMYSD8tiykK0xAI5YnUeeuihcZI/N0vLuqqA6MUqmuOWJ484tmuIdXA2cGI8CMUK0ARCh4G3+fejfgjuIUOGpPfee6+3bsCK29qt55rD6mUbfzjkWckfffTRod5qH2oQNoMGDUohcazO+10U9JjYN+LYZ3D/uE+sv1ksLU884GbC4je/+U363HPPeTcpPF9WnuMSIRAj0Mm6uBXkhT23TMTFlsVY8MbPHdauCHnMUj9rzXXIIYf4Zykmjk0P7rTTTjGsfkIJPVGUOLbCkNj2vMYTkpbe6LPOe8Hq/eMf/2jVeV1kwV4hcsx1RTt1KY3bdbE+8W6EYGGy85577gnXgPQXXnjB97fou2O0c0thluWQ0rFceumlAQdIenxnn3HGGcFFUCP9iuvXvhAoikA7dS9uaOzZmnHGGYt2KeRrhe41AwIm62KJx0pMupnbhTK6tKyejtvP2683zmpUL5QdQ6O7mKxkdaJdP7aseMEABQtp+hJPMLJyoow08g4pqnvRt/SXCTtbJUPfmJiNjS8Yh5988sne+tj63ki/rKy2QkAICAEhIAQ6GQERx01cnT322CMMirBebbVAuNqgC5cRZSQmjrGm5UMTK1usljbccMNQL/Vj/Rp/3BvBywApT7AcsH5htYwVlMnhhx8e0iaZZJIKlxYMPiE/rSzkIB8GJljyWloecQx5bulliOOvv/46WIdgJRvLww8/HOqEyI2l3iCcvLiPsD5liWNIXkvD0jgrWN+BkeWJLbjJ+4tf/CKkQfbEOGNhbVa+EDtlhOXo1iYWPbFgLTPhhBP6dIiYrE83lmVS1giquCxuNKzeZoljLHvi88XaA0KI+iHhJUIgRqCTdXGz5AXPwaKLLurvfXMNE5/7EUccEZ47LIQRLKvsWeQDPRZWEKB3YuL4t7/9rc/PR29W0OntJI7LPOvx5OHTTz9d0VWWRNs522oWy9AuXRoTMayYYWI1FiywrU+832Kp9e4gX7xM/+abb46L+okBI8p5j6K3Y2mmX3E92hcC9RBop+6F6LPnhy0rnMpIs7qXVRq0O8MMM1RM2NEHxrM2BiPPVVdd5btWRpeW1dP1zr3emLVRvdDoGJr4LHb9WKmWjdcRf0ucddZZ9U6vIj0maMu8Q6iklu7lfWsTdnzfZIWVP3ZOe+65Zza5YjVN2X71qEwHhIAQEAJCQAh0EAIijpu4GPgutAEEVhetFrNcoI3ll1++VPUxcUx5LERj9weQjViFxb6EaQA3AHZOkLx5glsDIxfJi2WViS2743j2Q5k8EMV86FobMaEKGWzHW0kc0+4WW2zhrRtYZhgLVg7W5rBhw+KkQlayDKitfJY4jgl6XE3kCQNPK7/MMstUZOG3pZkFXZzBfCbz8VJGsNSzeiF7sxKTLFdccUVFMh+JtJe1niaTWWlQd7PEcRwczzpgLjIY1EuEQIxAJ+viZskLm6zhuWJJLM9g/BfrCXQr/jixeDU3Sri4YRIrFj5oY+J11113DToBK6qYiHzrrbfSXXbZJS5ed7+MxXGZZx1/kpwP78PYLQf7FkgLnEY7i7dYYoxaqUtjIiYbHI/2sVI0XQvhEEutdwf5jICifPyOtTpsKTXp8bUkvZl+Wf3aCoEiCLRb98bkLCubykizuhcXCjxfuGGLda7tx6vC0KlIGV1aVk/XO/cyxHFZfdXIGBq9ZfrPfBzH54ArHkvne6eMxMRxmXcIbdTSvUxOWJ+yY3LK4pbE0rOGKKQ30y/KS4SAEBACQkAIdCoCIo6buDL4gLUBxHXXXVe1pldeeSWFOMz7I62aEETC6ockLCMxcTz//PP7onwwQ/pixVFNYhcWWANUE7NKpn8s1TKJZ+PpQ57YYJyyBDMyaSdxbG2whWTAz3D8UUFfYj+U5Ks3CCcPlrB2jbLEMT6iSYPAyVruUhaJrZJZ5hwL7ius7jyyAytAqz8uV2+fSN9mrQYJay4nKAcBYW2yhaAxoQ8sLYQQz5PYf107iGMiq9Mn/DBLhECMQCfr4ljP4FKgrPBusWdys802S+v92Ud0TJZSnpUGI0eOzG0+/sAnL885S7FrvStyK/r/B5sljos+6/gf5R2S9f+O39VY2qVL6xG0rCKxaxcHVaVvtd4dpMcEVN4krC2hp/44uCtlm+kX5SVCoCgCRXQvcSzyxr92zHyf57UZP9sQjWWkWd3L2Jnna5FFFqmrd1nVh5TVpWX0dL1zrzdmbZVeKDqGhug3/ZdHHLPqxdJZ2VJG6hG0td4htXQvrp1s0jVvdVtsbMJqzaw0069sXfotBISAEBACQqCTEBBx3MTVMPKNgQ/B26qJEYg2QIq3WO5WE/zcWl6C0pWRPOK4SPnY7y4+h6tJ7HM29lVchDg+8MADw3nFZG27iWOWFhKwj8EguGKhFvvni/vCedcbhJMH0tWuUUwcs1TajkN0xm4XKGeCNZ/lYxv7U1txxRVDWh5xvNRSS/l0BrllJSYlYqtvrNwGDhzoLdStX7a8EDcnHMN3XZ7svffeob/tII7Nwq6R883rr471HQQ6WRc3S17YyhNWjFSbgMq7kpAEFszUnmW2EI72TFs5iICNNtooPL+Wf4oppvDujSxf0W2zxHG9Zx2rMPQ1Fta4YsKVD/rX+p0ljtulS+sRMbF1WpYYqfbuMIxZDWTng6/8rFiQJ/zfc/1iaaZfcT3aFwL1ECiie48//vhwL9s9HW/jGBvZ9ghMZ3lPP/30bHLN383oXsZs+Lil7VpGFNkOlNWlZfR0tq3s73pj1mb1QtkxdBzcMI84JgiyXdusfsyeW/Z3PYK21juknu4111CMNbPvSoKxWp+5r7PSTL+ydem3EBACQkAICIFOQkDEcRNXIw5KlA2cEVfbKHGMX0MboPCRWEYaJY5jQpgly9Uk9t248847h2xFiOPYVzFko0k7iWMs08xCd9ZZZ02feuop3yxBOgzjVhLHWUIYS+88YVl57EIkDmTVLrKDfmChZue98sor+66BBUQMA/jY5YhdozXXXNMTytVI8HYTx4svvrjvs4jjvDupfx/rZF3cDHnBVd1nn33Cs1prhUreHYDeW3/99UN5e+axKH7xxRcrivBcY9nKsmzLZ9vddtutBzlZUTjzo1niuNazzmSfLV9H5xiZjiW29bdTiGMCxlqfssRIPfKCdIIhUh69jHWmyd133x3qzbrAIE89gqhWv6wNbYVAEQSK6N5miGOzHOU5gLQrI83o3vj5zLMsrdWPsrq0jJ6u1W6zxHEtvdDIGLo3ieNa75D42sYGH4bthRdeGMblGFPYmJdJAXu38R0Ru3SysvWI41r9sjq0FQJCQAgIASHQiQiIOG7iqtgAgAFtXrAwq5rldZCieX+1lt6dffbZ4eMQ69gy0ihxfNhhh4U2GXRXE5YH2wdxPOteljhmgGZShjiG4IiF5dnWHyzqYmFwZ5GQWVYZ++dtF3GMZQaWxtanxx9/PO5S2GcgChFKvoknnjgcZ6edxDH12wcZ7b/33nspEwBMcoAPvvcsGB3+sPlogLzg/qgmIo6rIaPj7Uagk3VxI+QFVk5M4iH4ezc9wmqNWsKkHB/FWYFIXHrppUM91MeHb55888036aGHHloRuJP8WIcVFfu4plwceNXKN/pxTXBAw4JzjaWvEcecG0v8zRUAroyYRMAvPnoa/Wx+VWMc2BdxnEVEv9uFQBHdS+yMvPGvHSO9mrCiwJ75J554olq23OPN6t7pppvOt82zF48bs43R/zz9WFaXltHT2T7wu13EcaNj6G4ljsGS+B5232FcQRBacytCHJAXXniBbD2k0Xdbj4p0QAgIASEgBIRAhyEg4riJCxIHBclbhtVE1b7owQcfHAYuO+20U6nqGiWO43J8mFYbLG+33Xahb88991zoW0wcVyPF+di1ARn+wkzigVrsN9nSY0tl/D/HUos4jgMUQTzEEhPHRtRYer1BOPlqWS7MO++84Tzzoi9T/qOPPgp5uJ9iaTdxfNppp4W2hw8f7smI2HocKxu7Tvj4M4I57mO8L+I4RkP7YxOBTtbFjZAXBCLCnQwS6yEIQ3RGnvAhi+sj/DcSHG7JJZfskY3JyHhCyyyYcVF04403VuRnMsnc4aAH6FNRaRdxbAEymcwyKzDrU0wcs+Ijlnbp0mYI2lrvDuv7u+++6yc9WTrNGAN3IriGwlc27jqqSTP9qlanjguBPATaqXuZgLeJdXQQE9plpFndG+sxAuJVk6FDh4ZJnDK6tKyerta+HY/fFXw/ZKVRvdDoGLqbieNjjz3Wj3+J3cE1Rfcyccs3UtY1UIyziOMYDe0LASEgBIRAX0JAxHETV9N8TzKg3WabbZqoKb/o1ltvHYi7ESNG5GeqcjQe6PGxXVT++c9/VixVhlzME7MyWWCBBSqSY+IYf8J5Yr4o55tvvpQPA5M4kFA24jP5YmIg2y+COBnJycAtltifb9aXHqS3lWNgiFifHnjggZAW9ye2oIuDbEBOxIIVutWN1YzVG+eJlwbiQziWOKATLi2yYqQOri4aESYFbMk3/cSiGCLdJPY/RzrBtWpJHByPD4ZYimCJVYfhlReUy3zWNXq+cX+037cQ6GRdbPqOextL3npCcCXucQJnIkSAx+LNng305ptvvllRDZap6GLcySBYLJPfiOE488YbbxzqMt/8HGNJblZee+21sGQXfVRUYt1lwfogeo3sbeRZR18ZBgMGDEgJ8hlLTGDRb8Q+8OP+tFKXEmzQ+sTkW1ZiH8fZ1Rq13h3UA7GMi6pxxx03jV0YZdvI+91Mv/Lq0zEhUA2Bdure999/Pzxf2RVZ1foTH29W9x5yyCGhfQhsAlyaDrN2zKDB3J+V0aVl9bS1WW1bb5zVqF5oxRg6z090PMbM6sdq52jHG3mHWNl6uveiiy7y173WZIHVld02069sXfrdnQigI1ht0Aqx8VMr6lIdQqAIAnxP5K1cLFJWefo+AiKOm7jGzz//fBhUrr322k3UlF8U9xT2UVp2iV4c9I0AR9nBbn6L/3v0rLPOCu1SNhscArcL1i8jN6y+mDhmWVdMspInjkiMn8ZYXn755VAvFmX8Rj788MMKtw20jXUwRCwDQMtjfYJQjSV2vwGJDqlAv6699tqUdqwcxCREMpG0kdgamQAtvMAJWDj77LMHPOMgeJDpsUBszDzzzKH+PKtxs4hZfvnlQ51Wh7mSoH95vtQsgAfpjSr52Ko468cPjCyQIG1gaVFL4sCKEOKxFMHSiHDayvMJvfDCCwcsGz3fuE/a7zsIdLIuhtDlnuYvj5y1q4CORm8TkImAU/FEEyswrA62EMlbbbVVir7F2m2SSSbxlnm2gsMICSazsjrY3g1MFNlzBtkBMQJpHQtlLcBePHkW58nbjyf5WEnChCTWe+ZiqJFnHTxia2mWDhM0lICi2cB+xAfYZZddUptgbJcujYmPvJgAcZwCVmTEUuvdQb6rrroqXHOC451xxhl+uf8f//jHlHq5Vryv4vvE6m+mX1aHtkKgCALt1L2Me03vlXXXRt+b1b2ML2ecccbQB/qC7oJQZgUAY0WOxX0ro0vL6ul616PeOKtRvdDoGDo2BskjYeMAoBgelJFG3iFWfz3dO9dcc/nrOttss3n3bEwO8B7DuIOxLZbbfJfkSTP9yqtPx7oLAVY78T2HxXorBFeQfCdWW2lWpA1iPqBLG/njWZH0HwT4PuBbgG+Ml156qf+cuM60MAIijgtDlZ/RAoPkLZ3NL1H86Nxzz+0HL1lCsl4NH3zwQcWAmYEtA79qbiey9UEWMMizATtEKSQrLxCIUyNb86znYuKY8lgqWKCip59+2gdX4zjW1FmBOImXBpIP4hXru5lmmindb7/9Qp9Ig0QwK4a4XZZzx+4zsAShDsrwZ0qRfT7I7bht8d+MYK1GXXYcyy/2GXwj9DcmdFgmzkdULPym71bH7rvv7n2jMbiA+OE4g1PDyOqFkLf2yIOf05j8h7yPSRRcd8TpcR9q7f/lL38JfXvyySd7ZLUPBoJp5VnqWQHuLXym2nkSaDAmNOph+cwzz1RgjbW2WQvSBgOe+HyNgLL2tRUCnaaLeR6vu+66Ct3D88GKCJ4PdCB/m2yyibcUjieZhg0bVnFBeZb4GLHnK28b+7s1QoJ866yzTorlHsJkHBbLHI/d0kB2cIyJwssuu8yTzZC9rHThOM8/fs6LSmyFSHl0mU0kNvOsM0FLffbH4BZ9DrmT9+4Y7Vx2tEuXMnllOpz+QDbEH3fgFxPakFi2kqLIuwP//3aetbbcN7yHzAK7mX4Vvb7KJwRiBNqle+PJk+xkdNx+dr+VupcxL5N51Z5BxsMxiVhGl5bV09nzzP6uNc5qRi80MoZmlURsmECgzy+//DJ0Gf244YYbBlx5L7G6pog08w4ponvjd3G16857h0lbAk2bNNMvq0Pb7kSA72ZcSPHNOGTIkPA+bvZseK8T4JgJ/Oyq1KJ1M47D8IZ7ttr9XO04YzlJ/0EgNliM41f1HwR0pvUQEHFcD6E66TFxaEvV6hQplMwHrylyPuSLCGXiQCJW3rb4LMYKq6icfvrp3vLNytsWq91q/otjApeAdEbYsrSY8gzAsZyqJhCo9hFi7RHUCX+btiQQ9wpYtD322GOezJxssskCVlaGrVkO0xZEpAV7I42gJ1huIWussYYvzwsfS5JYbrjhhkBozjDDDN7Cj3SWcrB0Mm7P9mPrE/LyUQGpkX1pQ4RCXGf99kH0WF3xFuwgfli+HB+3/UknnbT0YIUPDYhtSKk8AXf6nbcM2/JD3tt1tr6w5fxYGmlSDUuCGcblbJ/rBfFufk3tuG0hsyRCwBDoJF185JFHpjyPdq+W3Wb9DXOOkMc8a1gKx/UxYXXeeecZDH5rhESsowYOHOjLoT+xlosnZiA70C+moyhnk2astmDSr4xACtgycerEzQ3WcM0+6+gj/K3b+VM35AQ6FF1jOh6Slsm5dunShx9+uMd1sD5BhhD0K574szT0JJZI8XWxNLbxu4OJungQH+fL20dHN9Mvs84uc52VVwiAQLt0LxNo3OuMJSH8ikg7dO+oUaNyx12Mm2LSmP6V0aVl9XSR888bZ7VCL5QZQ2cn+mN9xdj98ssvr6ofuX61pJl3SNFxO98WeWPa+Dxsn/c8xjrN9KvW+SqtOxAgjg33BJPJ8diqWu9ZwQpnwKqpegIpzUQ/9e+22271sldNf+ihh8LYibpwvcO9bn+MoXCvhS9vc2MYGyRUrVgJHYdAbIxWpnO4GOXbne8Fc/lWprzy9n0EvHNUp0AkDSLgZgMTN6hN3OAxOfzwwxMXkKLBmiqLOXI1cda6ibNmSJy1WOI+iCszjKVf7hFInD/NxFmjJu5D2J+r+3BP3KAqtwduxjVxL1Cf5lwbJEsssUTigjYl7sM+cURu4qIRJ+6FlFvWDtKms6hN3Id/4kjjxFnk+iT64V5siSMDEjf7atkLb92gMXFLLxJHrifOOiycA+25F3jigtklbsl3j/rcB3ziFKjvvyNteqQXPeB8XnkcHcGfOIuGxC2f9n0pWr5d+VxAlcS9JBJHtuQ2wXV0y+98n3MzlDjYKixLNKms/QSBvq6L7TI6y7HEWTZ5vexWpSTOkiRxRKQl+637cEkcKZE4K67EWcF6/YXemX766RPn4sa/V+ICjpBN3ARc4sjjxAVd8/nBE53oiOPEEbRx9sL7Lrhb4gahiZt0K1ymXkb3EeXPza1y8DqUfps41xuJs3TzutqOdevWWXgnzko7cS6UErfiJOF8eYdx/flz1suJs+Dz70pHFnn9zHWUCIGxjUA7dK8jir2+YuzoiOnErYIb26fVoz03+ZW4STQ/dmQc7Fbj9chTRpeW1dM9GqtyoF3jrEbH0FW62bGHHXGWnHDCCYlbrZI4wwr//eLclni9yzjeuY5L0M/O+CThervVIYkjDDv2fNSx9iLgYgolzn1i4mIdJc7AqVBjfFe5SebEGcckCy64YKEybjI+uf/++xP4AUckFyqTzcQY0K0e9oedK5nExYbIZvG/+Sbmu88R1Qnf9ZLuQYAx/6BBgxLey42M3dHzfFPU42q6BxH1tKUI9H1uvP1nyLJ5d1G8W4VWOMRnttJ8bLFUr5sktjiu5xO3m85LfRUCQqDzEZAu7vxrpB7WR8AN+P2KGSyTiyzfxv0Jq40kQqC3EGi17sUqlXE1/slZwSARAmMDAQssjtVlPcFSk3sUt0KS/okA7klY9YXleVF3kCDFilfunax7w1ooYgHKqqrsas5aZbJprN6gXf7wQV5LWM213Xbb1cqitA5EwKzfsVSXCIFWIyBXFS1CdNttt/WKuEwAoWpNm0uGssEiqtU3No+LOB6baKstISAEsghIF2cR0e9uQwCXSXzYuRU6dbuO71L8g+L2SCIEehOBVuneMWPG+CDEZX2r9+a5q+3uRwAfzPj5R/fmuYvKniEuicjrVkNmk/S7nyBgMSP22WefUmfcCHFMA8QN4p7DZVcjYkZp1FGPOCY4GnFwJN2DwF133RXcqIk47p7r1k09FXHcoquFP0KC/+B/skwQj2zzBFNiRhELoiJ+krLle/s3/ht5IfHHzL1ECAgBITA2EZAuHptoq612IGD+oXmPEkAR3/Z5QpBUxh2QHfiQlgiB3kSgFboX358rrLCC94Hr3Gj15umo7X6GwAMPPBC+X4j9wTdMnrU7QU6dKwv/rdYKY6F+BnOfOd2777473C+8i8tIo8Qx/sPtG7vI5Ea2T0WIYybu6gn8hHNF5v/q5SWdwMFxcEznVizNa+fjjz9OCawZC7+zx+J03hlxYOI4LW8ff/mMl7LxhfLy4oMaX/QmkLEWbNqO1dvyXozrID8xS5y7m3pFK9LRO9QTB56PM2C9bvGkuEcaJY7Bh3bod5606nxYWcekW56OzWuXY1xr8C/iG5z8Y+N+op1614Y8fUVEHLfwSvIQsEQA4vfSSy8tXTMBjgj285vf/MYHXytdQQcU2H777cNLzfl87oAeqQtCQAj0NwSki/vbFe9b53vNNdeE96h9JBIkFEKN8cGKK67oLTJJY+npI4880rcA0Nl0LQLN6F4+5AnGiaXx9ddf37UYqOPdiQCrN+aZZ54K3UvwbRcXIF1rrbXStdde2++7WCj+W42AZdVInO5EQL0ug4AF33WxiAoH77T6GyWOIQMtILyLf2DVFd7WI44hDSEfIcLyhMm8ZZddtiK4JecPFs8++2xFEZ4N9DiGcASbxCqbQJK4wCB48OSTT55effXV3kjulltu8YHq4UDgEZCbb745BCXFKI8J9XvuuSe0ccUVV6QujlLoC0GR77jjjpCe3YF0Z+wUB652Pp/Tww47rMdzTHA5glHjAoxxFuTmBRdckDrfwf43E/b1yEvI6X333dcHmqMO8kO2b7nllumUU07p65lllllSF8Mi29XwG5J2v/3280HiLWAnHBPXIHZzMmLEiBDQ0MaMLkZUan8QqPUEVytMiFlAeoIpxtKK8+H+Ipiui83iXa7QV86L1XV//vOf4+bCPpMUBG92MV2CbiaYt/PB7YNNZwly8o+N+6notQkn0kd2RBy34UKi2Jitxnq4qDCzjYLqVr/AEOXrr79+WCKBMsAPkwsYUGjJV1GclE8ICAEhUBSB/qiLi2KjfJ2NAPfuqquu6gfV9iEQbyeaaCL/wQNRJxECnYZAI7oXUuO3v/1tIUuwTjtf9advIIBPeVwFQYbF+jbeh6xyQRL7xgnrLBpCAGIRkpP7AkKzrDRKHNMO5KfdjxCxZaQecQxZSN15sRUuu+yyMB7B0h4LfYhRI7LhMEaPHu27c+utt6aQstZPtsOHD09/9atfVRyjPy5YfMUx/CpDMsdlbX+66abzVqfUZcfi7VRTTZVrEYwbTTiJxRdf3K8kgIh0wZ9DHcstt1xY5b3mmmuGa2t1X3vtteHc7Vg1ohMAVltttR75R40a5bkhK29bSHQXjNDjFv/DIpmJVBekLj3ooINS+rDDDjuEeiGQb7vtNl/kgAMOSF1wRj/pavWyWo1j/MXW3nEbtg/etGNl2cbEcSvOh4lhJhGoe7311vPkLgaT8fXPkuguEGm68sor+zLoXWIfuGDQfvLB+sqknk10uOCRFfWRpx33U5lrYxj3la2I4zZdSR7SastL85rEl1AZx/p5dfTmMWYGzzzzzNy/hx9+uDe7praFgBDoxwj0N13cjy91nzx1BqhY0Zx77rkpHz+8a994443wkdMnT1on1ScQKKt7ISIkQqATEGBCDvcDrP7ACo8AeI8++mguodYJ/VUfxi4Cp556aiDZMJAqK80Qx8QzMNKMmEhlJCaOWSENCccflr9Y+g4cONDXnSWOsR62yRQI11iOOeaY0J9DDz3UJ7311lsprjw23njjkEafBw8e7K1Hzap1p5128uMbSE47J7ZYI+NDHOLwvffe8xaqlo7VLyQw7WLBi9sLVgNYulksWx9ZkUUaqwniFQJY4f785z8P5U455RRfBDIW4jsmUgmASMDMLbbYwrdN/2q5x8A3NFavkMLWLwj2IUOGpPfee693obDjjjuGtFVWWcW6G7Yco2zW7efRRx8dykG6fvPNN6EMBLi1l7XEDZlydsAI0jXGIyaOW3E+6667ru/bJptsUtGDs88+O/QZjGJLbrvXsczOcmSQ6HaurMZDuCaMl9t5P9FOI9eGcn1BRBz3hauocxACQkAICAEhIASEgBAQAkJACAgBISAE2obAHnvsEUgrrG7zZLfddkuxgM37Y6k9pNfEE0+cm04Z3A/kSWxtmyXh8vLHx2Li2Ei3vG2WOOa3uUrAwjMWjMOsDsi8WCAcLQ0S1Sz1cVkQ+/iFtLR8uCSAeI6FFSyWDrn92GOPxcne0tnSl1xyyZBGO7iaIQ3jtqwcccQRoV6wiQULV6sTC1kTLGdjstaO521xwWB1sJKB/pjgr9fIaUj5WLBmptwMM8xQQXaTB/LbypHnqquuCkUbJY6tAtxoWH9j4tjSGz0fAjFSL1bSkP2xfPXVV2G1Oi5JzDoagt36gqVxVsiH2yDLEwd7bNf9RB8avTbZ/nfr73HouANdIgSEgBAQAkJACAgBISAEhIAQEAJCQAgIASGQg4CzHE3c6h+f4qyPE0cS98h18cUXJ45863GcAy4oWOKsPJM11lgjcaRhbh4XzyBxlrQ90lwQ+sT53/XHl19++cSt1OiRp9oBR8ombsWST3a+fRNnqen3nV9Yf9xZ3SYuMFriiOLE+TquqMaRiomzxE2chWgydOjQkOZI3MS5oPC/hw0bljhL4ZDG+dNHZNttt02ca4KQFu8899xziXPL4A85i+HEuSyIkxMXHC/g5FyDJI5UrEjnhyNTE2etmjjL4uSVV17x6S+88ELiyE6/76xQE+ff2O/bP0dkJyNHjvQ/HWmZOF/GiSM3/W/acQSk3//www8TR+JascJb54s41E/fnKV0RVlnge3xpu9ulUNI49q74IeJc/eRbLjhhuG47ZxxxhkJ1wxxbiwSR4D7fbC2e85ZHCfOnYo/XvSfmxBJuJ8R6qH/sTR6PoalcxWSOF/TcZV+H5wdAe7vR2dl7I9ttNFGibPM9/vOzUe4jnHhvfbaK3Er8fwh53c6cZMYfr9d9xOVN3ptfMf6wD8Rx33gIuoUhIAQEAJCQAgIASEgBISAEBACQkAICIH2IQAZCSmJuHhGiYvxU6oxF8/IE4IuwFmy4IILlirr3KYkzm+tLwMR/NprrxUuHxPHzkIzce4DKsq6AGiJC7ibSxzHGSElnSsGTwQ71wAhafPNN09czKPwG3IcQg9xfnST4447LqTFOy+++GLAIY84hnSFXEWqEcfOSjtx1qu+/xDziAvOF0juzTbbzB+r9c9ZJQdy2fnjTZyls88OoezcVdQqmpvm/FEHYj+POHbW0Z5IheAFUxMX6C9xLkyTRRZZJHGuQexw7tb5AE7AHWmWON57770T55rH15VHHDd6Ps43deJciiSQwc4tiq+/3j9nje+JfLBxgUsTZ6Xfo4gL1pj8+te/9sed+5DEuTbx++26n6i80WvjO9YX/nWrqbT6LQSEgBAQAkJACAgBISAEhIAQEAJCQAgIgbGBwJRTThmWyONTtaw04+MY37mOf/J/uLQoI7Grinhpf1wHriAs2Fh8nH3cJBBvAZ+z9GH11VdPY3/PjsCsKGL+hclLALZqQpwnO6esj2LK/PDDDyHdEce51YAFdTjiO6Sb/2XcbIwZMyYcL7Jjgdyo0xHHRYr0yBMHMnTEcY/0pZZayveZQIsmuLMwVybOstwOF9o266rCEccBZ0cc92izkfPBpYRdW2et26POvAOffPJJKIM/69jFR5wflyZWN1v8ViPtup+auTZxv7t5Xz6Ou/nqqe9CQAgIASEgBISAEBvM5nUAAEAASURBVBACQkAICAEhIASEQNsRiIOIZYOXFWm8GeKYALlGlhFsrowUIY7zCE7awCex+f2dddZZ06eeeso37ayUQ386jTiGrDasnPuKMlClvUUcO+va0OcNNtigVJ87kTgmuKFdg4UXXrjQ+WQJYQIg5gkTCuZ7mzacSxOfrV3EcTPXJq//3XhMxHE3XjX1WQgIASEgBIRALyKA9QaDs24SokzTZwabEiEgBIRANyIAgUOApm4SPvwhECRCoC8g4Hy1BjLM+QUufUrNEMfOx3BoG4vfMlKEOM6rz7kA8Ja8kHPOtUb6xRdfhGydTBw7X8kBqwMPPDD0OW/n/PPPTyEGTXqLOKZ959rB99u5X6jA2vpm21dffTW988477WfaicQx426zoCb4He+vakIwxdtvv91btmNpbITz448/nlvE+XlOsdYmH4EmTdpFHFN/o9fG+tbtWxHH3X4Fu7D/LHW54YYbUueYP3VO0FOUOYrCorgSYXO77bbzZ8ayAGY1nTP1ij+UZT3hRZctZ7+db6p6xUP673//+/TJJ58Mv2vtMFNrbeRtiSjrAg+k1WbPatWtNCEgBIRAbyOA/kIn2lJNIkN3uqBvjz766HTQoEF+gPnoo492epfVPyEgBIRAQIDJLhc8KBAD6OBOF8bvd999d8ry5HHHHTddZZVVOr3L6p8QKISA8w0cSK0DDjigUJk4UzPE8cEHHxza3mmnneJq6+43ShxjVW0knvMDXNFOTBxvuummFWm97arC+cAN/Z5ooonSjz76qKJ/9gNOwPkwTr/99ls71GsWx3QgJoBdwLrQp+yOC1KYuuB44XBcDsK2rLTDVQV9mG+++cJ1GD58eG634IacD+4UVyyI8+0cyuy55565Zbiedl/yTJq0kziOMS5zbaxv3b4VcdztV7DL+u+ir6bOsXh40F2E07DPcgPnCD5deumlPSnBqX3zzTepc3ye4nPJlANbZq2c0/qaZ09bPOA2G2XlXaTYdKuttqpZ1hJdZE7fbtHlIi7yqvf5ZLNr1mbeFn9MKP13333XmtNWCAgBIdCxCKy66qoVy8LQa51OHLNU0UXJrnh/iDju2FtMHRMCQiCDAB/S2TFwpxPHGHfMOeecFXpXxHHmwupn1yJgvnMZA7lAdaXPoxnieOuttw7P1YgRI0q1bZPn9NsF9Stcdtdddw1tugB3FeXsO5k6XfAznwYJiMTEcTXCkHwumFmo3wzHOG4S+zjGz26emI/j2WabLSRjkIbVLn3jDwLTBc4L6exgrAYvseaaa1Ycjy2Oq/l8riiQ82OFFVYIbeetdDMfx/AfsRxyyCGhHBzGUUcd1cPPLxbSnJO5DKF83J6NzZnA46+I7LXXXqHdBx98sEeRuP4y57P77ruHeplEdMEhK+qG5N5hhx1S+BmrF0t+u27TTjutt0KuKOR+YHRoeVwgxJDcrvuJBhq9NqFzXb4j4rjLL2A3dd9FfvVLCXjIUcimvD/44IPURWH1y19MAWDNFsv333+f8oKMSWDy4AennkDm8iKhbl5c8YxivbL2gkbRVZupzKuDlxUkS3w+KP4LLrjAW1PHL29eai7KaF41OiYEhIAQ6BgE7r///pQ/F9066DYbnHZMJzMdefbZZ1OWueGTz/SxiOMMSPopBIRAxyLw/vvvex02bNiwoMM6nTgmmBTWxqz0ML0r4rhjbzF1rCQCzz//fLiv11577ZKl0/TPf/6zJ8n4Li4ruKewZ4qVrUUFci421oJ4LCqsELY2mRCi39R37bXXptNMM01IW2yxxVKI5Pnnn99XzXjRyq211lpVm8PQy/KxEjkrGJFZOmRrnti5TTLJJBXJJ598cihLHXxzYzx24okneuMt8sMtZMeFyy+/fCjHauFGZKGFFgp1sAo6K4suumhIj91kwFPMOOOMIY1+c96Qlli4gy/Hsq5KNttss1Dmiiuu8EH9MKC7+OKLs03n/oa8NZwhZbPS6Png2gRS2OqGUyEIIqto4EW4b0jj/EzgfWaeeeZQJs+6frXVVvPpXKuYHG/n/dTotbHz6vatiONuv4Jd1H/zCYV/JBRCViBbzfF+lji2vLFvJ5QMs4e8UOqJEcBlfHKi6Fi6YoouVmj12iP9rLPOCmXtJWrl6LMpSqsfX0wSISAEhECnIxAPdjudODYs+VAwXZv9QLA82goBISAEOhWBW2+9NeiwTieODcM4MJKIY0NF276AgAXIgziNSat2nxvL+RnL8E1dVDCg2nfffYP+oDyByt54441CVWDVGgchg2g1S16IXhtb2fYPf/hDClEaT3ZNNtlk6ciRI3tghZ/a2KJ5pplmqjDUwgXkSSedFNqAIIacNqE8xlfWNtu77rrLkr2lakwCx/lsP3b3wLWEeMS1haUT9K8I12CNUse9997rXfRYHXzjx/cJBg2xH18I1DidlSa1Vi9z33FdY4kt4WkXgnaZZZbxJH+cL28fziM2sOCczXK8FeeDgSD9MTyy25VWWqlHP5mg4X6wvFgu41YEo0Eb02MY+Pbbb4dTavf9REONXJvQwS7fEXHc5RewW7pPpEt78HmhVBNICJRANeKY5W9Wj22HDBlSoWzz6sY/Dvmx3Cgqxx57bEVbM8wwQ1ot2mxencykWR+zxDH5CW7CeVqeqaeeOpdQz6tbx4SAEBACvYVAvFytW4jj+MNExHFv3TlqVwgIgUYReOCBB8J4sVuI4y+//DL0WcRxo1de5ToRgdiSNXYX0M6+jh49OjxPl112WaGmsNSsRdjx7Ymf4nqC64DY7RdBwnC5gayxxhq+X5CtGFnddtttFUSzfeeyjb+HMeaKV7DF+aiT9JhcjdPnmGOOFBcSRmDHaexjpGYCAbr//vt7N5dxPozDzjvvPMvmt2bkFudjH+I862KhomD0Y5111gnXKa4HIvjll19OBw8enJsOKR4b1o0aNSo3L0R4ljSmeVZ6QMDSJuQ+K5+LXFuwiScGrM9gD9nfqvPhHTb99NNXnDuuR+FoYovrCEp/nnluR+kbkxZxoNixdT/Rv7LXJj6nbt73TlXcDSIRAm1FwPkjTpx7Ct+GU2qJm4mr2p5bPpK45W2JG3D2yOOWxyTzzDNPj+MuWEBy+OGH9zhuB9xMa3L88ccnTtEmjgC2w1W3bglO4gjsxFlLVORxL8nkt7/9bcWxaj/cEp6Q170oE+dzp0dWp4wTt2QpHHeza4l72YXf2hECQkAIdBoC6HJ0OuKI48QNdjutiz3649wUJe7Dxx93xHHilv31yKMDQkAICIFORcD5C02c9ZjvniOOE8bKnS6O2EncEmXfTUccJ3feeWend1n9EwKFEHAEX+LIS/9dyfcn36HtljPOOCNxk+CJszZNnCFU4ojcdjdZUb/zB5w4ci5xPmcTF2gvcWSjT3dEWOLI88QFNEuc64eKMp30w5GTyTPPPJM4V5mJs9xOnNV1MvHEE3dSF3P74sjfxLnL8Hi7WFDJ7LPPnpvPDrrYSYkjVgvxHVZmbG2d9XLiyHN/HbiPOR/up3riLL6TJ598MnGTJ4lzYZE4txmFytWrt9n0stem2fZ6vXw3s97qe/cggD8kd7P7P2a1LrrooqqdZxlCPYtjIn/ach3qpU58LVUTAiSRL2+GLq8MTtbJv8suu6T4r7K+M+tVVJiZtHLxDGtcPvYbRV6WIkqEgBAQAq1AAL/s+JA3+fjjjyusGex4vMXaAf/zWC5UkzhoSGxxTFCLd955p1qx3OOUZyVImdUcVlGZsljomT6WxbEhqK0QEAKtRsB06JgxY3zVWLsVWe3G+LTWGDUONJW1OEbXl4nfgX9SyrA8uayUKYuONr0ri+OySCt/pyOA71jub3yxlnFl0Mh5sQTfkbW+PVa0SoSAEBACYxsBuaoY24j34/ZY1mIDSLYsHc570fJyhFDNE3NVQaA5yOjY2bqbNfRLB/LKlSWOWYoNGf3666+nd9xxR0W/idZZRIoQx1mfUyxhkQgBISAEGkUAX2RnnnlmOnDgwKC30JPoNCbk/vKXv/SomjIsu8TnnS0LRP/94he/8EFcsgWyxDFL4ZhgQwej2/m4qRV4BR1/2mmnVUz+sYSP4B+4CIKYqCaNlhVxXA1RHRcCQqAVCKAHWRrM0lv0IFsMHJZcckkfvyOvDSbp1ltvvZSo8TY+Ro9itICLt1iyxDF6m+XjZkSBDl133XUrlu7G5dln/LrJJptU+M7EV+vQoUP9Eups/vh3I2VFHMcIar8vIrDtttv6Zzc7mdPqc2VMhY7Ya6+9Wl216hMCQkAIFEJAxHEhmJSpFQjEzu1tgIzf4CuvvLJw9TFxTCFIEBukU+egQYN6DLbJV4Y4xuKZuojWiTA4J4qs9Zmoo0WkHnEMOQJRY/USOKAWYVKkTeURAkKgfyNwwgkneJ2CfzgChBC9Gz9gpiezxDH+wYwIhsAg6AM+3+JoxtnAnZYf3eWWHuf6mMMXHvo6KwRMWXnllX0fCYZ6+eWXpzfccEO6wQYbBF1I9G1812WlmbIijrNo6rcQEAKtQgDdhM6E9GVSDJ+nBCoyC0F0XVbQfW5ZdzrFFFOkp59+uvcLuuWWWwY9iA9PgkabxMQxQYIggG38GG8JapQnrMrDBynvAoJB4YeUScappprK14N/zZtuuimvqF/R10hZEce5cOpgH0KAlVYEIOO5uv3229tyZtddd533L8zYi8lziRAQAkKgNxAQcdwbqPfjNnHSHw9wbZ+XrvNdUxeZLHFMASNKrC4s6ywSqFVYhji22eN4ABAHQWCgn0dqWFu2rUccH3fccRVY8FsiBISAEGgUAfSeWf1mrdUIWIKOzBLHWKhxHBIilrPPPjvoJya1YlcSMXHMx9JvfvMbH+Wapc+bbrppKMfxrFgE7llmmaXHMmkm5WI93sqyIo6zaOq3EBACrULAotkzxo3l008/TZ0fxx4Wx85fpQ9eRNAqAvqYoGfjKPJHHnmkJaUxcYyeJCgUAbKY/HM+54PuJw0DiFjioEEjRoyIk/zqPQswxUqT++67ryK9mbIijiug1I8+igDuaQjwxYT5pZde2tKzZCKfQGeMp5yP4ZbWrcqEgBAQAmUQEHFcBi3lbRoBLGohSPOiqDJgxVKils+1POKYTlHOCAe22cF7UeKYCNBYVWAlgqWxCVYfRshQPxYl9SQmjlmGyGCCiKL4T95www0r+ou1nayN6yGqdCEgBGohgKsb04OQDLHgs5hJr5g4xrqM/HzsuGAacXb/gWJWymzRjSYxcYzlWqwr8bNJfdQLORyLC4oa+oe1XVZogz7aOcTWb82UpR0Rx1m09VsICIFWIeCCJnu9hW7MigucVUEcYzHoAgL5/Ntvv302e+oCeQYdiGWxSUwcu+BInvC1NLYHHHBAKHex870ay7LLLuvTsGLOk/333z+UZSVcrNObKSviOA9tHeurCDCBw8QPFsKtEFbk8v3I96RECAgBIdDbCIg47u0r0E/bxz8xvuCMIIi3WGc8/vjjuchUI46Z7WUpYFzPueeeG+ooShwff/zxvg6WDWZlu+22C/UPHjw4m9zjd0wc0y/caECOWx85T4LtKSBeD+h0QAgIgQYQwPIMyxR0DB8vkK2xQPJi6Way4oor+ryLL764HarYYnm2zTbbpFdccUXF8Zg4hhjIirn2YelzLPGE2ahRo+KksI/VjulIVqKYNFOWOkQcG5LaCgEh0GoEiNlhemvHHXdMcV1h8tZbb3mfxfb7wQcfDHnjlW2WzgTa0Ucfne6xxx7pe++9Z4crLI7RZ1mBZLI+nHjiiSHZxs2kDRkyJByPd7CMnnDCCUN5CDCkmbKUF3EMCpL+hADPb6vi1WDtX8uYqj/hqnMVAkKg9xEQcdz716Bf9wCLMiwnbLBrWwLpxQNmA8kGsQTHywrLpPGZbHUQ5Onhhx/22YoQx1iBQO6ydJAgJ5Aw8R8DaaubrQ2ss/2w3zFxPP/88/vDLENkgF7E1YXVo60QEAJCoCgCkK2xnmKCbuTIkbnFLSDTRhttlJte7WA94nihhRbyfUAHx8JqDvoGuT1mzJg4KezHlsUsnzZppix1iDg2JLUVAkKg1Qhkx4dTTz21J3/zxnqxGyCMKIpKbHGcRxzbChJ0bDxGjt2iYVlcTcyymPK4Z0OaKUt5EcegIBECQkAICAEh0P0IiDju/mvY9WdAYIFjjz22wtqBgevqq6/e49xqEcdkfuKJJyqiRWPVCwFdhDiOB920X++PQFK1JI84rpVfaUJACAiBZhGAXLBgR7EOW2WVVdLXX389VI9VjKXn+SIOGXN26hHHiy22WCCIrfgnn3wS2oNQjpdCWx62WOdZv9h+/PHHaTNlrW4Rx4aEtkJACLQaAQwPmICLdRf7BL7DPVkssXVy1hdxnC+7X484JtidtY97DJPYd3zsM9nSbRv7pzcXGs2UpV4Rx4autkJACAgBISAEuhsBEcfdff26pvf4CGbJcy1hSU5MeLBsLg7IRNl6xDF58J1pg2e2v/zlL/0yQfY//PBDsuTKSiut5F1J4OLiqquuyv2LyQf8fuZZRVvlIo4NCW2FgBAYmwi888476frrr1+hB9F/WMG9+OKLvivoLtOT+LQsI/WIY1xfUDeWxSZZQpiVF3nCRGLs0ocgf82UtTZi3f3oo4/aYW2FgBAQAi1BgMkwfAtPP/30Qbeajt1tt91SyGVkq622Cuk333xz4bbrEce4vbD2YuI4JoRxo1FNYh/JO++8s8/WTFkqEHFcDW0dFwJCQAgIASHQXQiIOO6u69W1vf3ggw88GVDPV9NDDz0UBr4MgJ966qmKcy5CHFNg7733rqjHBtPViGNIa/LkWTnHHSDA1JRTThnqPvDAA+Pkin0RxxVw6IcQEAJjGQGIhqWXXjroK3TcrLPO6ntBMM4JJpjApzEJBtlcTQioF/vibIQ4/vHHH1MsjU0XV/NjD7lifpoJSIo0U9bOScSxIaGtEBAC7UTgm2++SQ899NCKQJ/ovTvvvNM3i/9i04O1DCrQ0egtk0aJ48MOOyy0t9pqq1l1PbZ/+MMfQj7ifSDNlKW8iGNQkAgBISAEhIAQ6H4ERBx3/zXsijOAOGagjDVGPYHYsEH16NGjK7IXJY4ZcEMCWz22rUYcsyyPPBAk9WSvvfYK9eIKAwu5PBFxnIeKjgkBIdAuBNCXSy65ZI/q8akZk7avvPKKzzPffPMFXTZ8+PAe5TgAaTv33HOnt9xyS0hvhDim8LzzzhvaIwhenuCr3vT1uuuuG7I0U5ZKRBwHKLUjBIRAixHApcONN95YUSurOpZaaqmgz7bYYguffu2114ZjTN5VW33B6jlWzJk0ShzHY9HxxhuvarCtOAD0c88955ttpiwViDi2q6etEBACQkAICIHuRkDEcXdfv67pvRHHfPzH0abzTuDnP/+5H1SzrDor+IODVMCao57QzuDBg8MAnXJ5xDFExfjjj+8t8ar53YzbIlquERtscW2RJ3GE6znnnDMvi44JASEgBFqGAD6M0UlGDMcVb7zxxkFv3XHHHT5p9913D8cICgpJEAsTcBAiAwYMqJggW3nllUO5vOBP5uMYlxOxnHLKKaEcgfkgpbMSL7eOfYM2U5Y2IMZNb0PASISAEBACrUIA/frb3/62R3UEvzPXOyussIJPZ8yJKzbTR6wKwUo5FlbB4R+Z4HQmBDm1MnkTfbGPYyyFTVgpF7vPOO200yypYmsuhhZYYIFwvJmyVML7wfrMhKNECAgBISAEhIAQ6E4ERBx353Xrul4bccwAkkEpv/PkvPPOC4NMAuZl5b777vPp5n8tm579DZEC6WED1zziGJ9vpBOwpKjMMsssoc5Bgwal3377bY+ip556asjDB0ARUrpHJTogBISAECiIgBHHK664YgrpG4vpI9xSmIUbroNi/Qh5zOoLfLxfcMEFqRHAhxxySFxVhRWd1RVnwGey6dzvvvsuJH3//ffpzDPPHNJ22mmnkGY7LKWm7PLLL1+hM5spS93bbrttaNeWjFub2goBISAEmkEA4hgXO/fcc09FNehhi90Ru504+OCDgz5C3y244IKeJGayDFdrWCKzoi3Wr+gt06t5vorxl2zp1BHLWWedFdIYj8aBUsmH6yAre++998ZF02bKMua2erG+lggBISAEhIAQEALdiYCI4+68bl3X65g4ZhA5wwwzpFi7MUhmefWTTz6ZQgZDapCOm4ks0frYY4+lECKkzzTTTClWcxZspBYg5LN6Y+IYIiIeEFP3Z599Vqsq36dRo0ZV+DmmP6uuumr64IMPhj5zvhDkpNkfFiD1fDzXbFyJQkAICIEaCBhxjM5ZZ5110vfff9/nZpWEuaXITrpdeumlKYSx6anslqChMQn9zDPPpBNNNFHIjyVwrIefeOKJCrcYWfdEzz//vNff1g7vAVaSEADPgkbNNtts6dtvv93jTBsti95lgs/aHDZsWI/Aqz0a0wEhIASEQEEEbEUHpOxll13mdSbWuiNGjPB6hxV0sR95jA3iCTbTTbbNktBMwJl+JM9cc82VYrlsQlsbbbRR0HGMP+PVIOjwPfbYI6TPPvvsKS4zPvnkE++GCJKaevNW8zVT9sQTTwxt8t4wFxjWb22FgBAQAkJACAiB7kBAxHF3XKeu7yVEKsv1sCLGjxrEsQ2Q4+1kk02WYhkXExGcPIPkOJ/tTz755GmRZcc2eI2J43jpntXHtlawkt/97ne5/bDy++yzT8oSbPud3eJfbpdddun666kTEAJCoPMQMOKYoHKmewYOHOj3ccdzwAEH9NCtnMUDDzxQsZSZsky24Yc4thheZZVVQr1WP1v0GqQuLnni47afdTuEHl5uueVCEDzLhx9mdGytCbyyZY855piwVNzaYcv5XXPNNZ13EdUjISAEug4BiGOshOPAnjbBhp/ip59+usc5jRkzJt1yyy176CdcrD388MMhP/tm/BDrMPY33HDD9JJLLsmd/GPMnXVLcfrpp/cwfKAedPfVV18d2szbKVOW2B+M57P95ff888+fV72OCQEhIASEgBAQAh2MgHdA6F7kEiHQVgTcADlxy5+Trbfe2rfjnonEWe4mzhIu+fLLLxNnpZHMM888ifOBnDjSoy19cYHvEuebM3HkRFvqV6VCQAgIgd5EwE24JY48Tpx1ceKs0RLnXzNxKzoSN0mWLLrooomzKqvaPbfCw+tjZ1Hs8y2yyCKJmwSrmr8VCc6vZ+JWm/g+OhcWyUILLVS4zWbKtqLvqkMICAEhYAi4QHiJI0oTRx4nb7zxhte9blWbH9M64jhxhLJl7bH96quvEucqIvn8888T57IicdbCiVsF0iNfqw4w/n7zzTe97qWdOeaYI0HfO6K5bhPNlK1buTIIASEgBISAEBACHYuAiOOOvTTqmBAQAkJACAgBISAEhIAQEAJCQAgIASEgBISAEBACQqB3EBBx3Du4q1UhIASEgBAQAkJACAgBISAEhIAQEAJCQAgIASEgBIRAxyIg4rhjL406JgSEgBAQAkJACAgBISAEhIAQEAJCQAgIASEgBISAEOgdBEQc9w7ualUICAEhIASEgBAQAkJACAgBISAEhIAQEAJCQAgIASHQsQiIOO7YS6OOCQEhIASEgBAQAkJACAgBISAEhIAQEAJCQAgIASEgBHoHARHHvYO7WhUCQkAICAEhIASEgBAQAkJACAgBISAEhIAQEAJCQAh0LAIijjv20qhjQkAICAEhIASEgBAQAkJACAgBISAEhIAQEAJCQAgIgd5BQMRx7+CuVoWAEBACQkAICAEhIASEgBAQAkJACAgBISAEhIAQEAIdi4CI4469NOqYEBACQkAICAEhIASEgBAQAkJACAgBISAEhIAQEAJCoHcQEHHcO7irVSEgBISAEBACQkAICAEhIASEgBAQAkJACAgBISAEhEDHIiDiuGMvjTomBISAEBACQkAICAEhIASEgBAQAkJACAgBISAEhIAQ6B0ERBz3Du5qVQgIASEgBISAEBACQkAICAEhIASEgBAQAkJACAgBIdCxCIg47thLo44JASEgBISAEBACQkAICAEhIASEgBAQAkJACAgBISAEegcBEce9g7taFQJCQAgIASEgBISAEBACQkAICAEhIASEgBAQAkJACHQsAiKOO/bSqGNCQAgIASEgBISAEBACQkAICAEhIASEgBAQAkJACAiB3kFAxHHv4K5WhYAQEAJCQAgIASEgBISAEBACQkAICAEhIASEgBAQAh2LgIjjjr006pgQEAJCQAgIASEgBISAEBACQkAICAEhIASEgBAQAkKgdxAQcdxC3NM0Tb777rtkkkkmabrWb775Jpl00kmbrqc/V/Df//43efXVV5M555wzGW+88cYKFP/5z3+Szz//PJluuunGSnud3EgrsHj33XeTiSaaKBk4cGAnn6r61gACZfWldGJ9kL/++utk/PHH989MtdyfffZZ8sMPPyQzzzxzjyyteGZ7VNrCA9wzr732WjJo0KBkwgknbGHN1avqjfdI9d60P0U6t/0YqwUhIASEgBAQAkJACAgBIdBNCIg4btHV+utf/5psvfXWyeqrr57su+++Tdc6/fTTJ8cee2wybNiwhur68ccfk+eee65q2Z/+9KeemB4wYEAyzTTTVM3XjQkQIxdeeGFy3nnnJe+8807y6KOPJksttVTbT4VJg/nmmy/hw3ubbbZJzj///La32akNNIPFv/71r+T6669PzjnnnOShhx5Kfv/73ycnnnhip56q+tUAAo3oy2Z1It0cPXq0n9hpoMvJLLPMkkw77bSNFB0rZU477bRk+PDhXq8/8sgjXhdZwxCu9957b3L22Wcnt9xyS7LSSisld955pyX7bTPPbEVFbfjx5ZdfJpdcckly7rnnJm+++WZy++23+3dtG5oKVfbWeyR0YCzuSOeORbDVlBAQAkJACAgBISAEhIAQ6DYE3AelpAkEnIVWetJJJ6XOKjIdMmRI+v333zdR2/8VdR/56WSTTZauv/766RdffPF/CQX3Pvzww9SR2OkEE0yQunuy5t9UU02VDh06NHWEZ8HaOzfbPvvskzrr4orzdcTxWOmwI2JCu9wP/VkaxcKRWqmzLg44cu864rg/Q9mnzr0ZfdmsTgTIESNGpAsvvHD6k5/8pOIeq6cjST/mmGM6+lqg7+08jj/++NBXt+oidasuQhp5VllllZBuO40+s1a+XduDDz44dVbUFf13xHG7mvP19uZ7pK0nllO5dG4OKDokBISAEBACQkAICAEhIASEQEAgCXvaaQiBPffc03/QbrXVVum///3vunXwEe+sYOvmI8OoUaNSZ2Xn/1566aVCZbKZ3NLldNVVVw0f3VNOOWV61FFHpRdccEG63XbbpW7Jb0ibfPLJ06uvvjpbRVf9fvbZZ9PHH388nXXWWcN5tZo4fvvtt3Mx+ec//5kOHjzYt7vrrrvm5ukvB4tikcXy/fff99fPWdqH6yfiuO/cNWX1ZfbMW6ETqdNZsof7CyIVnfjYY4+Fv5EjR6a33XZbeuCBBwbS8qCDDsp2p6N+O2vc9Gc/+5mfeHHuHELfeBbvvvvu9Oijjw7nnEccF31mQ8VjaQed/sQTT6Tzzz9/6H+7ieOx8R4ZS/D1aEY6twckOiAEhIAQEAJCQAgIASEgBIRADQREHNcAp17SFVdc4T9knVuCellD+jzzzJOut9564Xe9nfvvv9+3Mcccc6SQwI3IWWedFT64+fiOxfkNTRdbbLGQDoniXATEWbpyHyLfrO9aSRxjyQ05g+Vknjh/mOknn3ySl9TvjtXDohaWt956a7h+Io77xq3TiL7MO/NW6ETqdX7Iwz1200035TXljz355JOpc+2TOjcQVfN0SoJz6VB11ct7770XzjePOOYc6j2zvXmee+21V+h/u4ljO892vUes/rG9lc4d24irPSEgBISAEBACQkAICAEh0P0IiDhu8Bo+88wzqQvOk7oAdqVcSZQljumeWV+uscYaDfX2qquuCh/cWeKYCp0vxxRLZCNap5566qrkQ0Md6IVCWPza+bSSODaLyWrEcS+catc2WQvLBx54IFw/Ecdde4lDxxvVl6GCzE6zOpHqmIwzHVGLOCbvBhts4FdosN+tAqls51uNOO7kczv00END/8cWcdyu90hv4Syd21vIq10hIASEgBAQAkJACAgBIdC9CIg4bvDauSBo/iMWX4hlpBHiGAvWcccd17eHP8Ky8qc//Sl8cOcRx9S39tprhzyQC88//3zZZjoq/x577BHOp1XE8V133eUtD8FHxHFzl7selrgKMJJLxHFzWHdC6Ub1ZbW+N6sTqXeuueYK91g94hhXQX/5y1+qdacrjv/tb38L59uNxPGRRx4Z+j+2iON2vEd662aRzu0t5NWuEBACQkAICAEhIASEgBDobgREHDdw/fAXaaQW/nTLSCPEMfVb4KOFFlrILycu02YR4viwww4L58S54SqgmvzjH/9I8UXrIrFXy1JxnHxYu8VCwL/PP/88PtTSfchGu0b1iOO///3v6ZtvvlnzfCDSBwwYEOqsRRxzriwJrifU8dFHH5WyWP/ggw/Sr776qqJqSDRcjnSi5GFRBMtHHnkkYJ0ljsHs22+/7cTTVZ9yEGhGX+ZUFw41oxOppAhxPGbMmNBetR182xNYtGhw0Y8//riH7kMX1tKH6Fzu+3qCq4nXX389/eGHH3pkpQ7TibWI47xntkdl7gBt/fWvf/UrVvLSs8foP/rLBBzKBJPFD7X1PyaOeb+MHj261HsRnQ9OP/74o3Und1vmPdKIPs9ttA0Hx7bOLXtvtOGUVaUQEAJCQAgIASEgBISAEBACLUJAxHEDQK6zzjr+A3aaaaYp9bFKU40SxyNGjAgfzQRtKiNFiON999031M/H+csvv1zRBOTIaaedls4999wh3wQTTJAutdRS6bHHHptrgUsQnv333z+ddtppUywOEfqy/PLLB8tdgtjh+9QEMmGZZZZJl1566fD3m9/8xpI90bDccsuFNPJttNFGId126n3wY31H4CvcchgZMf7446eLL754+oc//KHiuoI9aZaPbdw/+ozgXoG+jDfeeOlKK61kXemxffHFF9NNNtkkBT+r8+c//3k6dOjQHrhTGGLk2muvTX/961+n44wzTnrAAQf4OglwuMQSS/hjtAkZVIt8ijsC5vE52P7ll1/us62wwgq56Sx1Nrnwwgsr8iy77LIpAbaQalgUxTJLHENEnHLKKeH+A7t11123MGllfdZ27CPQjL6s1dtmdCL11iOOueeYLIJkzJP77rsv5Z631SA8y7wTOF+Cq8WC/mS1CO6GfvKTn6Tbb7+9T7755ptDQE38KKM37rnnnlCU55Rn3NpYYIEF0jvuuCOk2w4TcSeccEI655xzep1C8L+s1COOqz2z2XoIVLfiiit6N02mvwjiyuRjlogFwzPPPNMH7LO8YIp+wT1SGSvuLHEMab3xxhunBHWlburbeuutq04qQabvt99+HiP0KGXQm1zDaits6r1HwKaMPm+33s1eK36PTZ1b5t7I66uOCQEhIASEgBAQAkJACAgBIdB5CIg4LnlNIEP58OejsxY5WK3aRonjBx980LdJu9tuu2216nOP1yOOsZRaeOGFQ/2TTTZZBREMybryyiv7dEgMyMUbbrjB+/2kP/yttdZagWCBSF1ttdUCTqTPO++86dlnnx3asHK2Pfroo0PfR40a5QlnSyOIlQlEBOnxB/2gQYMsOWzj9KzF8XfffRcCAkKEQ8pec801nkCwNmMXJBC1BECMSWYICo7xR/2DBw+uOLdq9wZtTTTRRJ44P+igg1ImASBWpppqKl8en9nxsnnIpjiIF/2DjI8DRVmf2RYNvIjF+M4771zR5x133DEE9oO4XXXVVSvSDznkkPSVV14JGHOdOUa73DPnn3++J1FqYVEPS7NMj4nj3Xff3RPt8Xna/uabbx76o53OQ6BZfVnrjJrRidRbjziGfOU+ywtKetlll/kJG9LRNZCuTL7xHHCMybLRzgoWIZjfzDPPXPEsbbfddik6xu7jeMvzDslLML74uO2jK3h+TagnO7FVhjhmkrDWM2vtsD3xxBN9cFAm2K688ko/mYhut74xqQdJbgKZTRqEOa4S/vznP6e/+93vwsRho8TxGWec0QNT6wPumPDbH8s777yT/vKXv/Q4oXfRwzvssEO4hhDIeROytd4j1F9Wn7dL79ZaATO2dG7ZeyO+PtoXAkJACAgBISAEhIAQEAJCoHMREHFc8tqceuqp4SN50003LVm6cYtjXCnYh/GMM85Yqt16xPFxxx0X6qYNfsfChz7HZ5lllh5uFfj4tn5hRYZgdUqbxx9/fEgjD+QG1l18YGL5RXBBK0uaES3UwYewkSExcUwagrsGLPQoX5Y4Puecc0K7f/zjH/+3QvcfQtmCBEIkZF1xQIpYf+MPdSwSce1x8MEHh/Q84hg/qXZOWIHF8tprrwXLOazhsGZEwATCBWtka5stVnsQzljdQbLGpHaWKI/bye5jpWz1QsbEAsYxaW2W1XGeq6++2pc/66yz/OGiWFTD0uqOiWP6h1UhZB2EEBaZE088cej3Cy+8YMW07TAEmtWXtU6nGZ1IvTFxjCU9k2H8cU9jETxw4EB/j2WJY6xqsSzmvoQ0jeWYY44J9yXB3BBcNGAlzGSTPWt2T19yySUpE3PvvfdexeQdOu1nP/tZSn24wPj0008r/NCbxTL186xATrNqweovQxwXfWbtmWTyM7YsRi/EbbMyACGPPafZlRA24dQoccx5cv2wQmZCknePnTtb3kuxmJ6D7I6FCUsrB7mfdflTizhuRJ9b29Yf2m6F3rV6a23bqXPL3hu1+qk0ISAEhIAQEAJCQAgIASEgBDoLARHHJa9HHCwHC7Os4MMRi7Bqf3woYrFcLb2a+ws+7u0Dl+0bb7yRbbrq75g4xhLu0ksv9RZy119/fbrhhhtW1LvBBhtUWBvfe++9Id3cGMQNYSE6ySSThDyxtSzWwbbEmj7vtttuFS4g8A9t5C/pw4YNi6v2RDXH84hjMkKgk16WOI7JgKeffrqiTdxBUCd/+A6Opd6HNwSPlc0jjiHNSZ9jjjniasM+lsRWHgtw8DO58cYbQxrL0fHPGUtc1kjcOL3a/mOPPRbqZfl5VuJ6mQjIChbO3LNZkr0eFvWwNCICPGafffYUYj0WrOgMq4svvjhO0n4HIVBPXzbT1WZ0Iu3GxLHdS3nbLHHMb3N1wEqLWB5++OFwX2bJS8hdq5+VDm+99VZc1E+IWDqkNc9mLEwiWfqSSy4ZJ/n9LbfcMqSXIY6tolrPLLpo0UUX9fUzYZWVI444IrQNrgiWzNZfnudYmFzkvdEocUww15jkxcqZ1R/WHu8dwxcrZ47PMMMMFYQ3/YHctsk88lx11VVxNytWtmQn5JrR5+3SuxWdz/xol85t5N7IdE0/hYAQEAJCQAgIASEgBISAEOhgBEQcl7w4+FW1j1Os6bKCleYWW2xR9Q8LLD5gq+XBKq2axB+4kBBFJSaO6TtEqxEf/Ib446MyLyBeTCzjIiJPsNYzTPBPHIuRynnkLvkgi60sBGEslCGt1cQxH+0zzTST97UcL6tm3wJu0S5ETSz1PrwhlOxcssTxq6++GtKGDBkSVxv2sSqMrbBjX6fsW92Qplkxy1/yYKVYRmypOfcES7pjyRLWcRrWv1hF4jYjK7WwIG89LGPiGKI/K1gOGh5YsEs6E4F6+rLZXjeqE2k3Jo7xz4vrC/6YLMOK1fy5Z4ljyqK/sfLHVUEskIt2X2YnwvB7bGmxxbCV53my9Kz+sDyshCAPVr9ZwaWLlW+EOK71zOID2OrmHcWEQPyH3rd0JgPxJ8z5mFsn9C24xoLLiOzEXZye3c/6OM6mQySblTh9sYlOJrf4jR/muM+2H09u0qdY4knGmDhuVp/TRjv0btz37H67dG4j90a2b/otBISAEBACQkAICAEhIASEQOciIOK45LVZcMEFwwfyddddV7J0464qaIiPb/s4hygsKjFxjP9HBAtRiEqs9moJ/nhpEwJgzJgxuVljq2RcCsSCz17KZ5d0W574oxPCIbZcbRdxbG3bFrKUgHgxvvQZ/6yx1Pvw/vbbb8P1yRI/sTsQrHiriVmx0f7JJ58cssXWinnEMZZ7lOHv8MMPD+WK7MRBxrJlsai0etnGExYnnXSST4NEyUotLMhbD8t6xDGW7dYvCCVJZyJQRF8y2cakVLU/83udd4bxM1tGJ1JXTBzHKyWsHSxWucfyiGPLw5YJJ1xc4Nfd7km2Wf/buFSx9DziGLLV0rP6w9ozVzp5qxZiv+eNEMe1nlnedda3zTbbLK33h49mJCaUKY/f9JEjR9rplNrWI46pLPYbjTsMhHcebS+yyCJ1+81qnFiqEcfN6nPaaIfejfue3W+Xzm303sj2T7+FgBAQAkJACAgBISAEhIAQ6EwERByXvC724c6HaF50+3rVNRocj3oJ7mMf76effnq9pkJ6HnEcEmvs4KrB2sOyNHadEBczgsXyxr5w6xHHkCVmlUb5mKxtN3GMuw/IHQhrXHhANEDY2HnEfeF863144yPZymaJn9gX9JFHHhnDV7GP32yrIyaX4kBgecTxnXfeGcplyd+KBnJ+cJ3N6i4mpFhqjhUygbCsT5tsskmoYYEFFkh/9atfhd/xTi0syFcPy3rEMYGsrE9lzzfup/bbi0ARfZn1hW7X1bZZn+txjxvVidRRjzgmDxas1SbXcHNw7rnnBpc6rFaIfTpniWN84to5xc827SBFiGNcHFFH/Jz+b+k03XvvvUP9jRDHtZ5Z892MPqg2gWj9iLc8x9ZnO3e2+PjNutuJy+XtFyGOL7jggoABrjt4Z00wwQT+WK0Ju7z2OFaNOG5Wn1N3O/Qu9VaTduncRu+Nav3UcSEgBISAEBACQkAICAEhIAQ6CwERxyWvRxwEKBtop0hVzRDHCy20UPgovuaaa4o05/M0ShxnCWEslPMEwiN2fREHQqpHHFOf+SqmDqzeTNpJHEPw2DJ3CBcjQ7CkM4KjlcRxTAjvuOOOdoo9trHv3p133jmkt5M4ppHYpYBZBEK8YEHO9TTyB8ywAH3qqac8ThdeeGHoY7xTi4QiX7Mkxu233x6uk4jjGPnO2i+iL5shjhvViaBUhDiOV0DEyLJKYYkllvD34KyzzuqfB9IJVmn6oy8Rx7El7yuvvBJDUXcfrNZff/2Ai+GDq48XX3yxbnnLUIQ4vuWWW0I7+NSP9RD++8tKNeK4WX1u/Wi13rV687bt0rnN3Bt5/dQxISAEhIAQEAJCQAgIASEgBDoLARHHJa9HbH1p0ePLVNEMcYxVrH10P/HEE4WbbZQ4xqIOS2Nrk2B2ecJSbbMaxodzLGWIY6Lax1KUOJ5lllniYn6/2gc/iQR3snM6//zzK8q2izjGh6q1yZL2aoLLDMsXB6NrN3Ecu37Ydttt0w8//DDFn6oFgMQfqPWL+36nnXZKubYx0R+fU0zYZK2vydcuEiPug/Z7H4Ei+hJXJ5dccknVvzxXKHZmjepEyhchjq2dePu3v/3NW/zyPOCK44svvgjJfZU4Puecc8Lzf+CBB4bzzdtBp/L8ZwXr46WXXjrUA36Q7kWlCHFM26anzHUJPvI5xiRYfK2y7XKfsXIjlmrvkWb1ubXRar1r9eZt26VzW3Fv5PVXx4SAEBACQkAICAEhIASEgBDoDAREHJe8DrGFUJ7LgHrVNUocQ+IaOctHMIGHikqjxDH1WwAf2iQIXp589NFH4WMdfGIx4phAU3mCRZ+dF8uXY2E5tn3wx8dt3yyV8XOalWof/OSbc845fb0EBcy634iJYyyuY6n34V2LLI2vAYRsNQJju+22C1g+99xzofl2E8fcX0bCQbDsuuuunjiGQEbiZfYEMRwwYEC6zTbbhP5ld2phQd56WNZzVSGL4yzinfm7WX1Z66ya0YnU2yhxHAdmZBIqlpg4xio1lvgZ6jZXFffdd1/QS/i9R+fnCX6cCfDJhBLBRZdccske2Qg8GE9IFrVgLkIcxys23nvvPd92rGuYAKsmQ4cOTYsGx2tWn1sfWq13rd68bYzDf/7znx5ZGtW5jdwbPRrXASEgBISAEBACQkAICAEhIAQ6FgERxyUvjfnzg9CsRZxVq7ZR4vj9998PH+5Zq95qbdnxmOiANC0jWJdyrvxBLPKhm5WYxLv++usrko04JqJ9nuCL0+o3CzHLFy9Dt2BLlvbMM8+k4EBZ/KhmZfjw4aFePohNIGytPcjP77//3pL8Nia6XnvtNX8Mi2pkhRVWCGWtPxDPRj7HwaX+X3vnAm/VnP7/r2suidxKRHJLEZUQEQalTAi55FYybtFkym0kTCMVUklyl3v9EJooEqpxqRkxEoU0kXuNSYphvv/n8/3/nu/vu9ZZe5+1b519zvk8r9c5a+/1vb/X3mvv/VnPep7DDz/ctdF/P/74owUDHXvUqFFaFNmqhybiB4f2yiuv+LZJsTrDGMfwhsvHwuRamOc555wT6aZdu3Z+Dih//fXXI+Xhk2wsUK8ylgiXoaxwLOMWxjjOd73xPvm8+AQKPV9mm1Eh50T0q3c04HWWS6JTXFTR12Y8/jIu9mjZqaee6qav50yEZdAyXCCKWxjjOH7+0LoaMqZp06a6y2/D9y8uNMUNsZp1/KOOOipe7MReLY+PjwSBuKCk5S1atLCLFi2K9IEkhzhvdenSxe1HDGPUTxKGTzvtNN9X2lwBlQnHuAiJu1Yw5pFHHunnNmjQID8WLlKiHz1nayX1VEYIntAyfY4Uej4PxwiPG+ZeyHk37Df+uFTn3HxeG/G58TkJkAAJkAAJ1HYC+G6ycuXKomDQ36lF6YydVAsC+B6edMdfOU++VHNGeFV1IMln/XB+yeTkl09/NaUNheMcj+Q777zjf4T+9re/zbG1dbfqxn8YpukEoSn0RzuSMOViYcKm+vXrV/jRnK0vCKv6YxzjI0RB3BB6AWUdOnSo0LcKxyifNm1avKlLkoSy9u3bVyhDTEqU4U/jEMNT6v7773debVqG2MgQMXALuRrCLWh5ePsxRJzQ2+1Pf/qTheCAhH4QerQNts8884zt06ePVZE39EZ++OGHLcQDeHFhPrAwmSAE4Ljdcccdvn8ch3hyKIQC0fGnT58eaR7e0pzkNTd58mTfFkJEPoZkeDo+mMJDMjTEM9ZyCEfZrDIWlbEMhfCkmNA4NjoXvDZo5Umg0PNltlUVck7EeSQ8N8VD1mQbNwxTgAtxuMCE/iZOnGhxF4O+Ltu2bWshJO+1116uO1xo0bIePXpUGAI/FrQcF2mSTOdct27dCsVhwjZczIsb7h7I1n9l79kRI0b49ugHQnKvXr3sLbfcYuGtizlBmP3rX//qhlbhGCJ03MNVP5OQmDRT7Pz4/EPhePjw4fFie/PNN7v5IaFh6BGNi1h6d0q4fgjK8FDG8cH+pM/VTJ8jGLyQ83k4+WKed8N+449Lec7N9bURnxufkwAJkAAJkEBtJoC7XPE7+qabbioKBoTpQhi4Uhl+A8NZDA4icIbAXXZwbMKY4e9x7Msln0Wp5lvT+8X3anwHx3fz+O/3cl17seeMCy8vvvii7datm11//fWdxpTL2qF5Qd/RsHoIH0qLEqBwHOWR6pkmfEoKdZCqgzwqPfroo/5He5IokKnLzz77zHmB6Q9mbCF85HIVBeIPwkFoH3379rW4JRkfchAOsB8ecPFkcpiTCh2oAwEanqLwrMObUz2t4DGMMeKGN3+YdA99QXBFX1deeWVEDMAJAsIFrlxhbaE34dlnn+3EYe0fgr+uBVucZHGyhbgQ3s6rc0ZyJ1joPYkyjAnBG6IITlbhj2fcrh1fE+qFsYIR8gFiEwQbJHVS0em6667TqbotktOFIjq81pGgTg0f3qeccopfE0RdeIHlY5rwq3PnzhWaQ4DR43nrrbdWKNcdaVhkY4mrpfq6AmeEFAiFIKw3FPnh5QhvSlp5EijV+TLfcyIEVMTuxmtL/1q1amUXLlyYCiC8UsPzkn5RQ18QhLVP3eKLB+5aCD2VcT4NX9O4eIX3lLbB+ywMVYP2uCNDy7ENL8ThnId4wVqOxHzq6ayLgsCr5Qg3Efaf5j2L/vCjRvtI2oahHlQ4Rr2uXbtaeIjDIJTiHIX9YQJQnWem7V133RUZG+d13E2Ci4YDBw50ZbiLBJ8bccP5daONNoq0D+ePc6+G5dG2lX2O5Hs+1/7DbTHOu2F/SY9Lec7N9bWRND/uIwESIAESIIHaRgDfJfD9D9/Ljj/++Ap3wubLAw5I9erVc8mJc/nNX9l4CJUJhx38dsf3KHwHxu/71q1b+334voXfaZq35+mnn66sW5YXSADOD/q9NsyRVGC3JW1ezDkjT4mGIlUO8RCo2RaD1yiSdmtbbCkcVyRG4bgik0r3hAJh/NbWShvnWQE/kvEiRtxf/MivzOBirzFrwzeBPkacXXjTpjX8qIaoig8I7QNbeO9CLMkUc1mFRrSDUIo2+HDE+Hh80EEH2SVLlmScBgRiCLQ6JgTZ22+/3dVXLzIIqfAKxhVO/DgORR1tB8+2xx9/3LXDrQtt2rTxfWJuEGaxBoRI0LlBkAzjHEOwRKI39Ik2HTt2tIhpCrFaw2boeLpN8mIbPXq0/3DVetjihBcP1wGvytBDOqwPD7KHHnoowkfLwWDw4MEZuWYqGDdunFvfjBkzEqvAAw98IGYnWVoWmVjOnDnT4ljpOsItxHFcyQ5fD1qO9apneNK8uK/qCJTqfJnrOREEcMdE0utHX0f40oD3dGWGED56nkBbeHY88cQTrhkuumAfznPwasWV/zp16iS+plEX5Zne4zjf46JIGCZC54otkvPBmyPpnIc+cT7DhTr8eAjb6WN426Z9z2JxEAgxXvw9ivMyhN3QVDgOz43wBsbY4AFvXw0DFLbL9hh3ZSAMhc4/3J5wwgkRMT7ez7x582yzZs0qtIUYHheN03yOaP+5nM+1TXxb6Hk33l/S81Kfc3N5bSTNj/tIgARIgARIoLYRQP4gfJeBw0ya70QIQQHtAQ4HlRm+9yBMIv6K4YX61ltv+buQ8T0Ov9HhoBYafjdDFwi/l953331hFT4uAQF8j8T3fnzP1lCbJRimqF0Wc874jgvHkRtvvNF/z89FOIYWhTsmQ8c0CscVD/c62CUnLFoOBMRb1sgPeiM/Ns0NN9xgxNsph9a5VxWh2MhJ34iwaUSEMeK1mnsnRWoht1Mb+eAwIkwbucJoJA6xEYE6Y+8iWBi0kSR7RuISG/HCNXJCMyKEmP3228+I513Gtlog3rVG4mA6BnILtxGRwhWJyGoaNWpk5Ie/Vk29lSu8RoQNI1dh3RowTzW5ddqIMGpEVNFdka2cXIycnN3YkYIcnuBtJ55yjqUIWe71JGK2kQ/aHHopflUcK4n3anr27JnYuXiVG/kiYuQ2kMTyXHcWg2WuY7L+2iVQivNlOZwTRXA18kXcnf/EK96/d/Heli/17pwnd0GsXdhraTS5K8Cdz3EOk8SnRjy2jQjEkdHlB5A7x4p3sRHvanfex+cGPstw7hcv30j9XJ7gM0HuejE4H8ndLm588TZO1YVcGDBz5851xwvnXLmgmapdtkqFns/X5nm31OfcNK+NbCxZRgIkQAIkQAK1gYDkIDIS4sFIziQjIdNSLVmS8xpxpHG/p8V5oNI2kiPHSMgw9zsT303TfleKdyx3uRm5e8yIM4LBb2YJGWgkd0K8mn+O3+giIMNB0cgdb0aS1vsyPigNAfwuwXdxEfVLM0AJei32nOXuRiN3urqZinBsJPRlTrOW8CtGwu+5NiIcG7lLP6f2Nb1Oj/x1AABAAElEQVQyheM8j7B4PjpxDeKpJP8xpRQIJN6KEe9SJ3DK1RAvnOY59bXaLBSO5RbltTo2ByMBEigPAsU+X1bnc2J5HBHOggRIgARIgARIgARIoCoI/P3vfzcS7tDAeQgX1SX5capp5Coco1PJrWQefPBBI3e5GQkZmWqcsBIc1yBSw7EKJnfYme7du4dVEh9DdJPwi0bCmBnJKZRYhztJoJgEIETreykf4RhCs+TuclOicFzxyFA4rsgk9R4JBu+uEOIqGq6mlcLgrQfPV7ld2XlJ7bTTTqUYpmR9UjguGVp2TALVikCxzpfV/ZxYrQ4aJ0sCJEACJEACJEACJFBUAvhtD4eqyy+/3AwdOjR13/kIxxB8cYcv7gSTnA9Gcv2kHg8VcZepxIB1bSB2S1jBVO0lnIbz/jzxxBPNmDFjUrVhJRIohAD0MvWqz0c4ltjgRkLiuSlQOK54JCgcV2SSeg9OiL/5zW/M66+/bp577jkj8WxTt01TEbev4rYQiVNpcIsIbjWpboawEhB6JH6vkeRT1W36nC8JkECRCBTjfFkTzolFwsluSIAESIAESIAESIAEqhmBl156yRx11FFu1pK7wUiC3NQryEc4RufwNn7++efd3cvwdk4bGhHhrST5sgs5gX5wxx9CUKQ1iG8S99hIQuvEJgg9B2Fb8oZ4T9HEisHOL774woVjkAR9bi88ouGoJkn5glrGhRSVfCOmfv36fj/GQjiHYtwpjrlL3iQ3ruQ68WNke5B27ugDYTURFhWm4Rfckwz/NGxakyZNHM94NfRVSh7x8dI8r2zOYR8S39t8+eWXLkQdPPWTDL8T8VqApRWOcUxwUQVRBF5++WWn7aE9hWNQiJkcMFoBBEQUtQhsj0RJchtIAT1FmyJRGzKUIlmTxFuJFlaTZ/JG9AHK5QRtJfZhNZk5p0kCJFAKAoWcL2vCObEUTNknCZAACZAACZAACZBA9SAgTmHu97HkekiV8D5cFRIxi5RjJWdQuLvSx8OHD/e/ySVcRaX1tYKEmvDtkPAO38VzMRFqrTi/VWjyj3/8w55++ulWxF7fv4ijVuLLWvHErlAfCXihh4jg7hLviae2S8yH5PZIeo0k0kgwj6SBEydOtOLY5+ohETPsnnvusSLQu33QbERUzJjovcLgsR1gj/6RBBvHAn9IBI0E8hJT2iVZQ6I1JDEUcdkllk4zdx1GxEt7yCGHRJJ547WC142I/lrNbyVfk7355putOOm5ubz22mu+rFQ8JL61Pfjggyv8yR34fmw8uOKKKyJ10A6Wbc6uwv/+Q4JvJGHE2vD6A2scP/BJeg8geaQeExzjTIbXJZKsi8ju68uFCHvcccf55yIcZ2pea/fjChKtCATk6qGV20CsJBYrQm/WSrIlK/GDcj5BF2XwAjuRq2+2X79+/gSmb+B99tnHSmI/K1eDChyBzUmABKozgXzOl9X5nFidjxXnTgIkQAIkQAIkQAIkUDgBSepr1113XSdOHXHEETl3mK9w/Oqrr3pBDAJnWmvbtq1vt+eee6ZtlrUehF2Iruutt56V+McWQraEsrASm9aNtdlmm9lJkyb5PiZPnmwlsbKfB3QF6AwHHXRQZN+uu+5qxfM3su+qq66y/fv3j+xTXeKEE07wY6R9AHEaQjUEb4jBEIZnz55dYVwdQ3K8pJq7JGt2Uxg/frwXSCUUqhOiIb6KF61bQ4MGDazExPbThYAuyfAi61PhWMKSVJhXsXhI6BIryakj40I0luTVfm54AE1IYmy7etDJcBEh25zDxp9++qlzosT68DrB6+aCCy7wfCAgxy+CpBGOJTeZFS96N6fzzz/fvvnmm1Y8+S1eP3rcsKVwHB6N//+YwnFFJnnvwZsl6SpZPh3iilV1tWXLlrkPAHwIxP/uuOMOC69DGgmQQO0mkOv5sjqfE2v3kebqSYAESIAESIAESIAERo4c6cWpM844I2cg+QrHixYt8uNuv/32qceFp6uKaRIyM3W7TBXfe+89L3TCCzq0Dz74wHkOYzx4l8LzFiahLuyLL75oTzvtND8X1GnWrJkdNWqUd1SDCAhhEl7LOmdsJeat0yM+/vhjJ/Libm4th2dwWoNgC1Ebbfv27RtphrvOtU/0f+utt9rbb7/dLliwINXcIabCq1p5N2/ePNL/kCFDfP/wAleDaD1jxgwLb20dX4VjzLeUPHAsN9hgAz/u3LlzdVqR7cUXX+zqPPPMM25/tjmHDeExjDU98sgj4W574403+jElvETEIbEy4RieznqBIn4MIVRDmFeOFI4j2N0TCscVmXAPCZAACZAACZAACZAACZAACZAACZAACRSFAO68VWEKnqRJdumllzpxCwJX/E9DOyA0QrxMn8cFWYwhScP8uBhf8g4lDR3Zt3r16kgbhIUo1BBiAOPDuzPJ4BGrfFq1ahUJ5SExmn0ZvH5VqITXL0Q/NXjDah8IcfDhhx9qkduGY8ChLa2F4T5UBNW2EH0R6gDjwpP6X//6lxa5bZq5r1ixwnvTHnvssZH2kpDQrwlet3Hr2bOnL1fhWOuUigf6R7hWZQ3P7rgh1ATEcHgnS8zmSHG2OUvuMNdvo0aNnKAeNgTr0Mta4mf74sqEY3iqY74IbRL3jkYnEJN1PRSOPVb/gMKxR8EHJEACJEACJEACJEACJEACJEACJEACJFBcAmEMVXgfJ9l9993nbu/HLf7xP8SVhbAlye4qlGldhChIslBsg5dqZQbxU0U0bCUpXmVNspbD+1b7O/744xPrIvbsxhtv7OshtJ1a2nAbaKPjaIxj7QNbhJvQcnjypjWEENV24by0fRjWQ0VtLUs7dxxDeCwjLENo8IzWsRGbN26h4BkXjkvFA3NAPiu9mAFv7OXLl0em9vjjj7t533TTTZH9eJJtzggjgvUiRAkutsT/cOFAeSCMhVo24Xjp0qVecM7k7Y/3jvZL4Vip/t+WwvH/seAjEiABEiABEiABEiABEiABEiABEiABEigqgZYtW3phKp+8SPmGqsAiEGNWRTGIp2kMXszapmPHjmmaZKwzdOhQ3xe8fjOZeiVj3BEjRvhqs2bN8u0R2iGTQRTXOScJx6H37w033JCpmwr7L7nkEt/v/fffX6FcQytg7HgSu7RzDzv95Zdf7FNPPWU7derkx0XfZ511VljNPQ7jOMeF41Lx0ElceOGFfn5hGA2UIxkeYhEnJVXMNue99trL9YnYz2eeeWbWP4QJUcsmHMMzWV8XmUTh6dOnV1pHx6qNWwrHtfGoc80kQAIkQAIkQAIkQAIkQAIkQAIkQAJrhYCGM4CA9cILL+Q8ZiHCcevWrb0oNnr06FRjH3jggb4NxLxCDCEWVLgbPHhwxq7gDar1ELdYDbFxdX824Tj07k0SjqdOner7yUU4RpI+HT/J+xoxl1GORHYQfUNLO3e0QSiGcePG2Z122sn1d8wxx9gwNnaScDxgwAA/t7hwXCoeuj7EUlYP4Pr161uItzDErAYPxKZOskxzRugR9WLOdoEhqc9swjE8k/X4jR07Nqm5pXCciMXvpHDsUfABCZAACZAACZAACZAACZAACZAACZAACRSXQJjELJ70K81IhQjH++67rxfOEEIgjSEsgoptSFi3bNmyNM0S64SCMLxUMxnEXh0TidXU0oqvpRJKV61aZffcc083N8Qxnjdvnk7NJcDTOd9yyy1+vz5IO3fEaj7ggAPcGDvvvLOdM2eO6wKJ/bT/chOOMUF4Bev84FkO03jCOB5Jlkk4BmftK9e42tmE41NPPdX3e/311ydNicJxIpX/20nh+P9YVOkjnCiS3PirdFKxwRHUHBk0Eeg8H0OQfbQvtuGqHmLs0EiABEiABEggJIB4ef/85z/DXf4xPzs8Cj4gARIgARIgARIoMYH999/fi1e33XZbzqMVIhw3aNDAj/3mm2+mGhveqyriYXvnnXemahdWgvgJL1KIddoXwi9kMoQR0HrDhg3z1dKKr6USjjERxPDVcCNIsAbPZySI22STTVxIhjDerp+4PEgzd8SURtJArB1jfPvtt76LcheO58+f7xP74XUGTvCub968uV9D/EEm4Rj1GjZs6DiAccgh3gfiZsODXC2bcNynTx//ukJiviQLPY4HDhyYVKVW76NwXIWHHwIs4q0ceuih7oV82WWXVeFsMg+NH9433nijbdKkiZsnArTnYshmirXp7Tl6C0MufWSq+8MPP/hbOXr37p2pGveTAAmQAAnUEgL4gfLiiy/abt26udvnEHcubvzsiBPhcxIgARIgARIggVISCJPjJYVRqGzsfIVjhD9Yd911vXCWi7PaUUcd5dshTvLKlSsrm6YvRxxnxElesWKFnTBhgu8HcW8zCYK/+93vfL23337b95VGfEXlUgrHS5YsceLufvvtZ3H84MWKcBq33nqrXbhwoZ9r/EGaucMDXQXzMWPGRLoIheOkxG7ZRNhS8ggnqQntsAbwwXbUqFFhlcjjbHNWbQx9IDFeJjvppJNsKNZnE45vv/12zxfiNjyb4xYKx/m8P+P91bTnFI6r6Igia+M222zjX8B4Y5SjcIwraTi5Y376l4twjED6uLVF22JbTOE4jFOEq300EiABEiCB2ksA3ge77bZb5DMnSTjmZ0ftfY1w5SRAAiRAAiRQFQSGDBniv5/k4/CUr3C8dOlSP+6mm26a09LfeOONiOh8zjnnWNyFXJnB0xi/zTUJ4I8//mi32247P49MoqJ6Ze+9996RIULxFWEQMtkrr7zix0iKkRt+/8sUsiCpbwiNiGOMeL7ffPNNUpWM+9LMPUy+p+EetEMI6KqlQKyG4WKAWphoLh4aolQ8dGzdvvXWW36OmCuOPbyoM1m2OQ8aNMj3hQsef/7zn53XetjX3Xff7epoOA+Uff/9974dLniEhnrKENvhw4eHxe5xKBxne41VaFhLdlA4rqIDjRM4TsRh7KByFI6RFRTzRJwdfbNlEo7xZv3uu+8iRJHJE3916tTx7YspHONDSIPR44RLIwESIAESKC8CSZ8NpZohPhPgbYy7ZPQzK0k45mdHqY4A+yUBEiABEiABEkgi8M477/jvJr/97W+TqmTd99xzz9ktttjCJR7LWjFWiNAU+p0IydZytTvuuMO3Rz/HHnts1hCbiKEMgRoJ8UIL+0EiNdyVHBo0B50nRLzQoCdoGcbPZJMmTfL1krxVwyR3EC/TGu4S1/GRHA8erA888ICFmP/MM8/Yl156yULgDQVd7TvN3MNQHnCAQHI5CPQTJ0602267rR+7bdu2bpwwWWGYeHDKlCk6rNuWikdkkP99cuSRR/p5nnvuuUlV/L5sc8Zdgdtvv73vC9zbtWtnISjDExhrx774a/nzzz/3bVA/boiZrMdwgw02sPfdd5+vgt8q6E/L27dv7/hjP+3/E6BwXMWvhPDkVY7CseLp1auXfyNlEo4vuugimykejN6ygDdjMYVjzA+3JX/55Zc6VW5JgARIgATKiEC2z4ZSTRNxjfXLX5JwjHH52VEq+uyXBEiABEiABEggiYAmyIMYiO8ha8NC0TMuLKYdH/GN4UWq363gFAYHOIinL7/8sos1O3r0aHvggQe6OtAE4uuDEAoxV/vYZZddnDCK3/G4G1sF0uuuuy4yLXiuhs529erVs7NmzarQPzyBQ3EQyexCpzY4DZxyyil+/BYtWrgwGpHBMjy59957fTudf9K2cePGdsSIEXbNmjWup7Rzh0dseJc2PG0R4xdjQKiOj4VY0DCE/Agd/JA8T8XrUvJwg8f+4XWg8ww9gWPVss5Z6+L1sNFGG/n+tF/d4rUCoTg0JCbUcrxWw1AnqIdQI40aNfJ1UHefffaxJ554og1jgGsfuOv+tNNOC4eo1Y8pHFfx4Q9vHyhn4Ti8fSJJOMYJH2/QTMLxYYcd5t+kxRaOq/gQcngSIAESIIEMBCr7bMjQrODd+KGgX/wyCccFD8IOSIAESIAESIAESCAHAhAV9ftJNnEthy4rraqiK5KvxcXcShsHFT755BN75plnWgi3uoZwC+ETXpu48yubQWDW3Edhe3jaPvbYY5Gmf/nLXyKCalg/9LqFVzW8SMNyfYw5P/TQQy7MhO7TLeY8ePDgyJhJT5CbKvRI1faZtgh1kHbuOh4SJoYhQpEkDh7NsM6dO7u1QW+B5y0MoThCsVnnAg4I5VBKHm4CsX8QyzF/OAxmsmxzxsWA0ObNm+fvLNe1YduhQ4eIaIxjk+k1Gb5G0Dd+lxx++OEVXifwYod3N/pfb731LOKRT5s2raD3S7iWmvB4HSxCANGqiIDEvDHiCu9GF+HYyJWSKppJ9mHl5GfkZOYqiXBsxP3fN5DM9EZiGRu5ymREODY33HCDL9MHEmfGyC0c7qkIx2azzTbTIm5JgARIgARqIIE0nw2lWrbcWmbkdk7XvQjHRmLalWoo9ksCJEACJEACJEACqQiIuGZEwDXiLel+M+O3cylNhGIjsYWNJMQzIlob8fgteDgR6owItW4N6Be/63faaSezxx57GEmgl6p/SFCLFi0yEhvXSNxgx6RNmzZGhNBU7dd2pU8//dRpNhIqwoj3tRFPX7N8+XIjsY/dH753itOCkXAb5qmnnjLieWzk7recp4k+33vvPSMesGb33Xf3PMBLLjSY5s2bm7p16+bc79poIJ7tRryjzT333GMkVEXRhpTkgGbu3LmOBV4j4qlecN84NjhW4tltxEvevW6/+uorI57OplOnTu74FTxIDeuAwnEVH1CIsAcffLCbRVw4/uKLL4xcPTESIyjVLCHIylUU07RpU3cCrqyR3C7iTvioJ7fNZK3+hz/8wUjGUFcnFI7Rh9yGbO666y5Xlkk4xg93ufro6oTC8c8//2ywTnzYFGI4yeKDWG4/SOwGH85yhc5IPCVfjpMD2FZ28sWHo8SkdicUuWXCQAwB57QfjH7ASh6Ag9z2Y+QKrKuJD2Icf4wZt1yOHdoWsv5w7GXLlrmnmTiHdfEYH3KLFy92XygkGWS8mM9JoEYSkFvEjGSd9u9lLBJfJvF+2HrrrVOvGX3giyi+PIrXQOp2hVTM5T2b7ZyV9rOhkLlmawt2OH/CsgnHpfzs0Pnl+tms7bglARIgARIgARKoeQQkvIPp2bOnE6fef//9Sn+LFkLg4YcfNuJxa/bdd1+D3/Abb7xxId3VyrbQAsSL1v2m/eyzz7xjQiYY+N757rvvOr0gU52auB+a1vz58w30AugutBpGQH4k0qqQQJhlE6EqcPsIblOQK3bOVR6xXeAqLyJi4izhmn/llVe6LPJ6qwJuETjkkEMsAvAnGeLPoBxZQeXl7P4QJ6Zr164WyfCSDHPTuvKh46rI1R+LAO26H1tkS5WThvtDBkw1ZLbUevIj2qItkgIgcD72yxU1d0uF1k+7RagPZBfFmo844ohIMxGl3S0Hv/nNb9xtHAimDpOrYPaAAw5w+9BOTu6J2VExR/GkdrcrYI64bQHHBbGb0B6GNep6dYu41Wrjxo2rUI7bHtQQg+jJJ5+04IPjd/nll1v5QHLxmXB8ENsovGUnl2NX6Pp1jnI12J5wwgmR2D84bn369Enkhna4XQi3gcgVaH/c8dpA4H+Nu6T9c0sCNYUAbuHDLViIk4W4abAJEya4W6pw/sB5BHHI5Et8xiXLhSmLTNP6GYA2+BxAkoebbropkskaCS/0vBPfyhc3P8Zrr71WoV48xl3a92yac9bIkSOzfjacdNJJFeaD+SMRhQi5ft5ImhJf1/jx4315tgf4nAE7/OEcH7dSfnZgrHw+m+Nz5HMSIAESIAESIIGaSeC8885z31HwG7tUtnr1aos4wuK0YMVjtlTD1Ph+ERoC3ycRD7cyEw9k9xsAcYlrk73wwguOEUJ00GomAcY4ruLjGgrHffv2taeffrp70+kPXt0i0Hnc8AHQunVri+D011xzjRNJkaEyFJARWyc0/OjWcnxQ4cfzFVdc4ePCQPAQD9GwiXucJBwj82nv3r3dj3Kd59577+32Yf/999/v+wmFY7ll2Ad713bYQsRdsGCBb5PtAUSRZs2aRViFwjECqiMuUNg/BB1kTw336WMIo6EhkD2C20MghYiDGFRDhgxxAjfaqHAMkQPrwYey9oXkAWoQ/HEi1UQIqIMkAjAIzBBTtR22ONkedNBBkX1yS4arn8uxK3T9bkD5h3hQ4pFtkfkW8ajwepIr5H5+iJW1YsUKre62CEyPmEr777+/feSRRxw/ua3Gtzn00EMtxDEaCdQUAuJ5a+W2JotEFvp+xmt+7Nix/rnu1+2NN95YYfk472hGYpxj8P6T290iiT4Qg0sz/CIhBsYIL9DgvIcYYeF7DNmJccEP72WMP2zYsEiykLTv2bTnLJybs302yN0r9tJLL42wEU8Yd8EphIJYaTNnzvTx3tAGrNNYJuG41J8dmFs+n81p1sQ6JEACJEACJEACNYMALjDjgjkcC+IX84uxQnwPQo4hOCLB8YiWPwFoDPr9XUIw2NA5I+wV2giOKX43wwGtphqcSKBNwckFAjmc8xCzGr8z5I7umrrsWr8uCsdV/BIIhWOckOBhCoEQgqPEBPYeuSiTWx4is4UXFfZDnAsNgoSe3CB+yi27rhhvcs1WClEjNIii2iaeyRT1koRjbY8PI22bKTleKBzjA7Jbt24u06XcymDPOOMM3x770xiEE4gYGE/HDoVjiN/w7IVnm5ZjKzEv7ZgxY9zJHOxxBVbL1ZMa4ysPCcMRmQ5OhmCowrEWIqi+9hMKx1oe8lPh+KOPPnLJA5CtU9tiC9EFYjUSBOA5vJBzPXaFrh/zllhCTgjDFw6JtaRLsfBkljAdfs5hQgF9PSOLLeasBrEnFM/hVU8jgZpCAFma4VkMQTZ8L+OiHu7ugDCLO0Pk9kBfjrL4RTrNmiyhe1zG4ZAPLgpq3/ghEBrubNAyvPeSDJmVIWzjnBhaLu/ZXM5ZGKOyz4bwQmmXLl3CafnH+CzE2lq1auX3pXmQSTgu9WcH5pbrZ3Oa9bAOCZAACZAACZBAzSKAC+QSDtJdIH/wwQeLtjh8d4JzGX7n4s5WWmEEHn/8cf89W79v43c6vo9Du8BdtupEBqcqfLeuyRZ+v1ce2CIhH63mEqBwXMXHVn+0482GE84HH3wQmRGu4OgbMvTgfe6559x+iTUbEejQGIIdRAltJ4HKXZ/wDFVvY3ithQavLq0PgSJuofAZCqyoF5480gjH8I4OM7rCGw7exhgfgkkutmTJEj/vUDjWPp5++mlfjhM8bn0ODV7Iuu477rjDF3Xv3t3th+AdN0n+V0E4xrHRfpKEY5xItVyFY+33+eef92UQaSHYwsBIbyvK99jlu354K8LTGXM+//zzdap+C89oXQ885WGYL7KoYj/E+bj96U9/8m0QmoRGAjWNAN4DeA/rewMesuG5Dp4IGrICdZDlWm369Om+HTyN4yYxkr3HMNoiTIUazvnhxZwkTwh4+aJdeBEo3/dsmnMW5lbZZwMyGyM7NOaFcBzwoI4bLjKhPPz8i9dJep5JONa6pfrsyOezWefELQmQAAmQAAmQQO0jAGcxfI/7n//5n6IsHr+z8FsWAjKtOARwjBDCUrUUfDcN//B9FiEZcTGgphu+Y8OrWtePO7RxByStZhOgcFzFxzcUjiHOxg3exPqmhNeaGkIrYD9CHUh21Ap/oXgBoVbtnHPOcVcfJ06cqLvcFmKwjhOKGVqpmMIxTjZxU+9a3HKdi0FQ1XknCcc4yWu5xjgO+0f8YC2Hl7HaJZdc4vdfeOGFFreQq8HrDvF9Q4MYrP3kKhy/+uqrvi3iXWWyfI5dvusP55R0+xRELHi247UnWUndlBFTWxngNp746xK37mg5xDPcokUjgZpGQMNBNGnSJHFpOL/q+wAXC9VOOeUUv3/evHm6O7KFV4q2xfsptPCuB5yz4obbyRAmJrR837Ph+SHbOasy4RhzwYUnXVP4WaXzhAc1vpzCqzsXq0w4LtVnR76fzbmsjXVJgARIgARIgARqFgH8tkq68J/PKhGKklYaAnDqQhhK3O0HbeaZZ56xCxcujISIK83I5dUrLkrcddddzrEDd5DTaj4BCsdVfIwrE47hVaY/qsNkc3vttZfbD69QyZSa9S/TrS/wKkX8TMTm1DGwTYqnXGrhGPEtMTZi4+Zi8FbWuScJxzNmzPDlScJx6DkHT2K1UHBF/7jVB0KpxhbVerotRDhGPFJdA8JSpLG0xy7f9YexWeNe8Jnmh6vkuo7KXpMoT7qAkKlv7ieB6kJA4w3HwwHp/EOxFhdQEPoFpp63CCeBZCZJFnolI6xRaAijo3duQLwOz1Uq4OJWu9Dyfc+mPWfpuDgvZLobZenSpX7eWFN4kQ4/fNAWF6FytcqE41J9dhTjsznXtbI+CZAACZAACZAACZAACZAACZSKAIXjUpFN2W9lwjGSkakYp8Imbi/Gbb3Yj1ALuRpua8ZVMoSFQB/HHHOMHTlypB+nKoTjtm3buvEhmuRiyFyqfJKE49AzLkk4RmI7ba98MT6E2VNPPdWXaR14viXFiipEOA5fA5UJx7keu3zXH3pcx2NrZzo+Ghcat/BkEr4yteV+EqgpBCoTjuFpHybR++STTyxCNug5BhfPwvAWIRfc7aD1sI0nigvjxSNOutrJJ5/skoWqSK37833Ppj1npRGOMRfcoaDrCmOma/z3tBevdF3YViYcl+Kzo9DP5nD+fEwCJEACJEACJEACJEACJEAC5UCAwnEVH4XwB3hSqAqECdAf1Cpshj94IQjkYri9Aond0OfOO+9s58yZ45oj86eOUxXC8f777+/GLxfhGFAgAtwvsYsRDkTZ6BaxSyEuq60N4TifY5evcNyrVy+/ZtyCk8Ygeiuf999/P00T1iGBGkegMuEYC95+++3dewUXWeD5GheEM2UkhugcxlZDwrvQ3nzzTf8eRGgKnMMgLkOMTgoDke97NvzcynaxK61wjFv8VEzH3R1gglvg4EGNhCP5WFUIx4V8NuezRrYhARIgARIgARIgARIgARIggVIToHBcasKV9B/+AE8rHKPLhg0bOoEAt/YmJRTSYRcsWGDhVQvDLcDI9Alxr2XLlpF2FI6NVWFe2el25cqV9rrrroskpgJD5Yp6uQjHEKNDC18DmUSYfI9dvsIxwnKoCNy7d+9wupHHv/76q9XXLWI7a5s//vGPkXrxJ0gWCJGFRgI1jUAuwnHjxo3d8nEnAcRdff8giV6S4WKVCqxIRJFkevcG+po2bZpFiCOExNBY5GGbfN+zac5ZGCetcIy6YYxnxIwbOnSo4zFhwgQU52xVIRxjkvl8Nue8ODYgARIgARIgARIgARIgARIggbVEgMLxWgKdaZjwB7gKcGHdJI9jlCPJkYoM2eI/nnTSSd7TLEy0N2bMmHAYGwrHuN05bpibjodEeqGlEQeOOuoo3x4/6ONWbh7HF1xwgX366acj04Tw0q5dO78OJKtTe/jhh/3+ESNG6G6/hVCq/O655x6/Hw/C10Am4TjfY5evcIzkiTpfhEXJ5AH50EMP2datW7v1hK8DxGvNFCgfoS823nhj51UYAcEnJFADCKhwDI/fJEO4CBV/jz76aF8FMZH1PYckeEmG95TWOe6445KqWMS01zrHHnusC0mUqW6+79k05yxMLuw/U4xjXQQSAuq8Ib7CKxvbeHgNrV/ZtqqE43w+mytbC8tJgARIgARIgARIgARIgARIoKoIUDiuKvL/O26YZKhfv34VZhPGOL7++ut9+aBBg/yPbIgQ8CqLx8VUsVLDUYRxa+HNFdrbb7/t+0NsXxi84NQwN/1RD9EgNE1ghPJQ/IY3qtqRRx7p24dJm7RcveRwG3YuFiY4SrqlOZxbUjzoMMZxyBexNbt3715hKoi1qbeKH3bYYb48TGIYMkAFcEQyOOUXxh5FeSjCJL0GUCffY5fv+iFQQdzVOR988MEWntehvffeexYxn/W1tGLFCgsPeG3TokULu2jRorCJXb58ud17771tly5dIvv5hARqCgEVjhHiJslee+01/x557LHHfJXbbrvN72/QoEHk/KuVwguJSbHWUW/NmjV2m2228X3h/RjeHaF9YZvvezbNOQv9h+ef8LwYfjagnhrOC3r+wDYpLr3WrWyLzxntCxcu41aqz458Ppvjc+NzEiABEiABEiABEiABEiABEigXAhSOq/hIhMLlhRdeWGE2iC+rP34HDBjgy/GjV+Nkajm8YfGjFT+2NbM7Et+pQRjVurvttpuFCIof8PAu3XbbbX0ZRFwIyehD7bzzzvPlcREi9FaG9yk8vZ599lm7yy67eDE79NRN8l5t1aqV7z+XEAZhUil4LcctFHSTPLMnT57sx+3fv79vDuEYgvxLL73k9+EBeG211VauTSiEzJ8/3/cDlngO+/zzz12MTuWOLTy6ISbjGMJmzJjh28JDMMnyPXb5rh9zgIdgOG+EN4FIDMEKr0V4ImOt4fGEt3XYBkIy4iXj1nN4v9etW9dxjXutJ62Z+0igOhJQ4RjvA4SKiBu8jFHWvn37SBEEX4Su0PfPRRddFCnHk06dOrnyDh06+HNrhUqyA58B2g/O9fGLimGbfN6zac5ZGCPNZ0M4l/BCKs6/iOuer+Hcqwzw+RO3Un125PPZHJ8bn5MACZAACZAACZAACZAACZBAuRCgcFyFRwICaZiEbPfdd4/c3v/jjz9aeP/qj194aobeuhBnId5peXwLUQ8/ntXgeazesqiLH+bqIdqjR48K/Vx77bWuKWIoN2nSxJefffbZkduHEXcToQl0/PXXX989VoH5b3/7W6QcnnVhYjkkdArje8ZjAOv841uIIaHoAQ/Zd955x1dD4igkD9R57bnnnva7777z5eAbxtWEhyw88GAQjtEOHrXjx493gjHqDx8+3O1HAqdQ1MBcwluU0RYiEHjvsMMO9sorr/TzQBnWCw9oxC4GT51jvXr1LMSTuNCTz7ErZP1gAAEkFPR1jrpNEtYhiEPU0jpJ26QkXRiPRgI1gUAoHOMcgLtGkNQOwjAuTuE9seWWW0bOVbpunL9wvtD3Td++fS1CuyB5nn5WNG3a1H7yySfaJHGLsDqIa4x+cNEmm+X6nk17zsKYlX02JM1Lz6OF3pWAdStHfD7hYqhaKT87MEaun806L25JgARIgARIgARIgARIgARIoNwIUDiuoiMyc+ZM/8Nef9zqFmImkq2pAKv7sYUQGYY6QFzIZs2a+R/IWhfiXSga6zIh2iJTvdZDDMknnnjCFXfu3Nntx49seC7DhgwZEhGbtR1Eiccff9zVwb+nnnrKi8ONGjXyYoV612k73WIOEEngDaf7wi2E2WyGkAdIDhW20cfwso6L0VqGLcJGIDZvJr6DBw92wjFEeYijaIOxVByHV/XcuXMrTA9izo477hiZE0I8QMTRsCF16tRx47/++utOUAqF/HCOobe3DpTLsSt0/Trm6tWrbc+ePSu8BvCaw2s4ySBEQRRX4UrXBWH/rrvuSmrCfSRQYwiocIxzB+66wOsf5w497x500EF2yZIlGdeL8zbEUz336PsHF5twge/rr7/O2DYs6Natmws3g3NlZZb2PQsRPJdzFsbN9NmQaU747MGacTdIPgaRHhfglFu4xXm11J8dOudcP5u1HbckQAIkQAIkQAIkQAIkQAIkUE4EXEBZ+WFFq+YE5JZgI2KmkR/1pk2bNkYEi4wrkh/ORuLTGomjacTL2bVBZXlhGvFsNZKkyUhIgYztMxXID3Yj4S+M/Dg3IhpmqlYt9ovYa0R8MCIem4ULF7p1icegYyPCsRFRJ3EdYPjGG28Y8RA0Ihob8Q509STWrxFPYtO1a1cjoS4S26bZWapjV9nYGBfrEi9mIyErjHi/GxHeszYTj3oj3uYGa5dEYUa8l40I8FnbsJAEqjsBnDckHrg7V+D1LxfI3PlD7u4w++23nxGP4lRLRB9vvfWWWbx4sRHPZbPvvvu6c3aqxlLpww8/dH8456S1Ur1n03424PwpF6UM6suFuIzn2bTrKYd6uXw2l8N8OQcSIAESIAESIAESIAESIAESCAlQOA5p8DEJkAAJkAAJFEAgFI4l1nkBPdW+phIT2nTs2NFIslcjcZprHwCumARIgARIgARIgARIgARIgATKjACF4zI7IJwOCZAACZBA9SVA4Ti/Yydxh42E6HB3KUj8+Jy8q/Mbka1IgARIgARIgARIgARIgARIgAQqI0DhuDJCLCcBEiABEiCBlAQklrdBWBuJ3+7C3KRsVuuqTZkyxUg8YyNx351gLMnrzAsvvGAGDBhghg0bVut4cMEkQAIkQAIkQAIkQAIkQAIkUI4EKByX41HhnEiABEiABKodgS+//NJst912bt6IE//VV18ZSYxX7daxNibcvn17M3v27MhQLVq0cPsQD5pGAiRAAiRAAiRAAiRAAiRAAiRQ9QQoHFf9MeAMSIAESIAEqjGBpUuXmhEjRpjJkye7ZJC6lH322cccfvjh5k9/+lNeCUe1n5q4HTx4sBk4cKBfGoTkCRMmeOHdF/ABCZAACZAACZAACZAACZAACZBAlRGgcFxl6DkwCZAACZBATSDwxRdfmKeffjpxKeuss47p1auXC8mQWKGW7rTWmlmzZpk5c+aYVq1aOYG9lqLgskmABEiABEiABEiABEiABEigbAlQOC7bQ8OJkQAJkAAJkAAJkAAJkAAJkAAJkAAJkAAJkAAJkEDVEKBwXDXcOSoJkAAJkAAJkAAJkAAJkAAJkAAJkAAJkAAJkAAJlC0BCsdle2g4MRIgARIgARIgARIgARIgARIgARIgARIgARIgARKoGgIUjquGO0clARIgARIgARIgARIgARIgARIgARIgARIgARIggbIlQOG4bA8NJ0YCJEACJEACJEACJEACJEACJEACJEACJEACJEACVUOAwnHVcOeoJEACJEACJEACJEACJEACJEACJEACJEACJEACJFC2BCgcl+2h4cRIgARIgARIgARIgARIgARIgARIgARIgARIgARIoGoIUDiuGu4clQRIgARIgARIgARIgARIgARIgARIgARIgARIgATKlgCF47I9NJwYCZAACZAACZAACZAACZAACZAACZAACZAACZAACVQNAQrHVcOdo5IACZAACZAACZAACZAACZAACZAACZAACZAACZBA2RKgcFy2h4YTIwESIAESIAESIAESIAESIAESIAESIAESIAESIIGqIUDhuGq4c1QSIAESIAESIAESIAESIAESIAESIAESIAESIAESKFsCFI7L9tBwYiRAAiRAAiRAAiRAAiRAAiRAAiRAAiRAAiRAAiRQNQQoHFcNd45KAiRAAiRAAiRAAiRAAiRAAiRAAiRAAiRAAiRAAmVLgMJx2R4aTowESIAESIAESIAESIAESIAESIAESIAESIAESIAEqoYAheOq4c5RSYAESIAESIAESIAESIAESIAESIAESIAESIAESKBsCVA4LttDw4mRAAmQAAmQAAmQAAmQAAmQAAmQAAmQAAmQAAmQQNUQoHBcNdw5KgmQAAmQAAmQAAmQAAmQAAmQAAmQAAlkJPDvf//b1KtXL2N5WLBy5Uqz2Wabhbv4OA8C//3vf82CBQvMbrvtZjbccMM8esi9ya+//mq++eYb07Bhw9wb17AWK1asMHXq1DGbbLJJXitbs2aN+fjjj02LFi3yas9GFQlQOK7IhHtIgARIgARIgARIgARIgARIgARIgARIoEoIWGvN7bffbm644QYnKKaZxPDhw83LL79s7rvvPrPddtulaVKhzn/+8x/z9ttvV9ivO9Zbbz0nTm+xxRZm22231d01Yvv111+be++919x1113m008/NX/9619Nu3btSr62VatWOZFzyZIlpnfv3ubuu+8u+ZjlOsCoUaNMv3793Gts9uzZOYm/CxcuNOPGjTMPPPCAWb58ucFFF15IKc6RpnBcHI7shQRIgARIgARIgARIgARIgARIgARIgAQKIgAB7NxzzzXz5s0zkyZNMr/5zW9S9ffTTz+ZHj16mFdeecWJn926dUvVLqy0bNkyJ17OmDHDwHMzm2211Vbm8MMPN7fccovZcccds1Ut+7IrrrjC3Hbbbebnn3/2c11bwvG0adNMx44d3bjwsoWQXFutc+fO5vnnn3fLHzZsmBkwYEAqFJ06dTLgiAsuahSOlUThWwrHhTNkDyRAAiRAAiRAAiRAAiRAAiRAAiRAAiRQEAF4uu63335mnXXWMVOmTDFt27bNqT+EWbj00kvNmDFj3HbkyJE5tdfK//rXv8ypp55qpk6d6nZtueWW5g9/+INp0KCBeeutt5xIh7nCNt98c3PnnXe6+m5HNfwHL2uIxqeddppZvHixW0ExhWOImL/88osBx7itXr3atG7d2nzwwQfmkksuMfC6ra0Gb+8+ffoYeLTPnDnT7LHHHokocIx23nlnX4aLJTAIyLiAAqNw7DAU5R+F46JgZCckQAIkQAIkQAIkQAIkQAIkQAIkQAIkkB+BH3/80Rx00EEuPuucOXNMs2bN8utIWh1xxBEGXsMId3HxxRfn1c/YsWPNRRdd5Nrutdde5h//+Ifv54cffnBjYJ5qEI/PP/98fVott/D0RqgPWDGFYxwDeGgj9EiSwVMWoTIgzNd2Q5iJTTfd1MU5TmIBr/gmTZo4j/h11103UgUXWubOnev2UTiOoCnoCYXjgvCxMQmQAAmQAAmQAAmQAAmQAAmQAAmQAAkURgAevk888YS5+uqrzZ///OeCOvvwww9Ny5Yt3a37EJAPPvjgnPt77LHHzOmnn+7axYVj7EQyN4jbEPpgW2+9tfnss88yCn6uUpn/g7f26NGj3SyLJRx/9dVXpmnTps5jO5NwXOZYymp6/fv3d+FRkFAwLhwjdIp6H1M4Lt5ho3BcPJbsiQRIgARIgARIgARIgARIgARIgARIgARyIjBx4kTTvXt3s9FGGxl4VNavXz+n9kmVVQRt06aN98JMqpdpn84J5UnCMfZ37drVPPfcc3jo7J133nGCtT6vblskZkOsY1gxhGOEp0D8YiQtHDhwYEaP4+rGqarm++KLL5pjjjnGQDROEo6POuoo89JLL7npUTgu3lGicFw8luyJBEiABEiABEiABEiABEiABEiABEiABHIi0L59ezN79mwXo1WTg+XUQUJlxCI+4IADXMnTTz9tjj/++IRamXelEY7hQTto0CDfyeTJk02XLl388/DBypUrzffff+/CMWywwQZhUeJjeDJvttlmRusifjPiKu+0005mvfXWS2xT6E7Ecb711ltdN9mEY4iWn3/+uauXKTEg6iDUB+L2wioTjrFeJCRs1KiRq5/pX64cEbsZ3HbffXffJQRtzB8sy80QtmPRokUuHMWGG27op/fuu++aDh06GMTfhiUJx0cffbSBuAwLhWMw+OKLL8pyvW6y5f5PDgqNBEiABEiABEiABEiABEiABEiABEiABEhgLRP4+9//bkU3cn8Sk7hoo4uwZuvVq+f6ldivOfc7YcIEPy/xOE5sf8UVV/g6WMP8+fMj9USgtJLszUqSM19PvKptu3bt7E033WQxx9D+85//2CeffNKK56iVBIFWxGsrITHshRdeaBs2bOj62GSTTewJJ5zg9mtbCe1hJRxH5E9EbC2248aNi5Sh7rRp03y5Prjsssv8PEU41t1+K57D9pBDDrHrr7++r7ftttta8by2OI5qH3/8sQVzPa7Ybrfddn4OmK+ahFawEqbEikhqJTa17o5sc+WIxpgDjs8222zj5iHiqV2yZInt2bOnlSR9bp8Ix1ZiU0fGyvYE84tzlvAQrsn48eMrlGldfV1gHYceemikniRydO2//fZbe/PNN9vddtvNze21117zUxk+fLitU6dOhKf2ja2Iwq4uXjfKXIRjx+C3v/2tlZjJbr+I5/buu+/2/fJBOgKIeUMjARIgARIgARIgARIgARIgARIgARIgARJYywQg5KnYFYplxZgGRD3tW+IP59RlZcIxRN9WrVr5/iFSh0KweIbaI4880pWL57N96KGH7FNPPWVPPvlk3+bYY4+14oXs5gUBE+KqzhdbCL577rlnZJ+WN27c2H755ZeurXjr2qlTp9pddtnF1w0FUUk8Z1944QUr3sG+/IEHHqjAI5twDGEUYjbGRz0IvhBmVZyXxHZ28eLFrs833njD9u7d24oHrB9v7733dvuw//7773ciu8SI9uXoN0k4zpUjJtCpUyc/V+U1b948u8MOO0TGQxlEcEly6OZd2T+8JnbddVffBwRoiOkwieVsJbGgFQ9xXy5xtu2kSZOsJH70XeM1ruIwjv/ChQvt5ZdfXkEYDt8LEvfbsZM42r5vSWToeX733Xeu/1A4xuth88039/WVAwT6BQsW+PnwQeUEKBxXzog1SIAESIAESIAESIAESIAESIAESIAESKDoBCSesRe3Pvroo6L236NHD993rp6WlQnHQ4cO9X1DlMPz0HRseLXCmzS0Cy64wLc97LDDXJGE6rBTpkyxEBtV5IOoKeEqrMQetiNHjnTevlqG7fnnnx92awcPHuzbhsKxVgqF4VyEY3hCw7MYYzZv3ly7c9shQ4b4Ma+77rpIGURVna+EqoiUQTCHVzT2a50k4ThXjhhEwp3YZ599NuIZDYFbwpXY6dOnOw9deHHruBC40xqOk7YDEwkhEml64403+vLzzjsvUqZP4IHepEkTu2rVKrcLfc6YMSMi7IfCsbaDt7KOHV6k0PJQOJZwJrZbt2727bffthI33J5xxhm+LfbT0hOgcJyeFWuSAAmQAAmQAAmQAAmQAAmQAAmQAAmQQFEIwJtUhTBsV69eXZR+tRMIrtr/6aefrrtTbUPhGN60Dz74oPOyRSiJU045xfeL/uFFHAp5ECd1XHgaxw0eonXr1vV14JWqJnGT/X7U0TAHKIeAC/FT+4Y4KPFwtanz5NWyJOEY4rmW5yIcr1ixwnvwwks2tJkzZ/o+IYiHlk041noIH6FzigvHhXBE//vss4/vW2JRR0RehHLQ8A8QgHMxSfjn+3311VcjTfGa3njjjV05PJLjr2lJoOjKJAlhpB2eVOZ9n4twfM0110TW+8MPP7hwIGCNixm09AQoHKdnxZokQAIkQAIkQAIkQAIkQAIkQAIkQAIkUBQC8IZU0RCex8W20BtWEovl1H0oHGOO8BDVUA14DrERQl4YS1gHCIVlhEhIMklE59cuyQF9FcS5VSYI6RA3CMUQjLVOKExDDNb9xRSOMYdzzjnHIlQC4i6HhljIOubZZ58dFrkwDloW9zjWihCltU5cOC6EI/oHV+0bMY7jprGnISDnYk888YTvF2Jv3ELB+uGHH44U//73v3eCddwLHZX69u3r+y3U4xjCeNw0RAa82GnpCVA4Ts+KNUmABEiABEiABEiABEiABEiABEiABEigKAQQ81eFvUwJ6DDQ+++/byHAJv2hLJPdc889vn+IhLlYKBzr3CA+IpatxiXO1B8S2GFd6667bgWPU20TetMiFq3aLbfc4ueMOSQZkuMpt2uvvdZXKaVw7AeRB0jyhmOHWMI6D2zPOuussFoq4RiesNpHXDguhCMmgjAg2neScIzY0yjHccrF1qxZ4xPsQYTVkBPoY+7cuX5M9B1esMAcIL5DEE+y/v37+7alEI733Xdf1z/iMNPSE6BwnJ4Va5IACZAACZAACZAACZAACZAACZAACZBAUQiMGjXKC2UHHnhgxj5VQFQRMNwiLEAmQ5xbrbvVVltlqpa4P0k4TqwY24mEdTomBLp4DFytjnjOWg/bL774whWlEY7/+Mc/+rahWFtq4RihMpCwD6EOMOdjjjnGxV7WdYRzwWLShKqA6KrtQ+G4UI4YP0yOmCQct2vXzo2dq3CMvi+55BI/79Dru3v37nabbbZxHuq6rg8//BBNLMKcYN+0adPc8/i/AQMG+D5LIRy3bds27/XG51qbnlM4rk1Hm2slARIgARIgARIgARIgARIgARIgARIoCwL33XefF8pwG30my1c4fuaZZ3z/zZo1y9R94v58heO4IAwP5ST76aefIqEvvvnmG1ctjXAcxiqG2KhWSuH4008/teqhu/POO9s5c+a4YT/++GPPuJjCcaEcMblSCsd///vf/bqPPPJIzwJhRBCnOgw5oseoS5cuTlDOdDGh1MLx/vvv7+acj1DuFlhL/1E4rqUHnssmARIgARIgARIgARIgARIgARIgARKoOgJTpkzx4tsWW2yRcSKPPfaYhSia9IeyTDZ27FjfP7xjc7F8hWN45cLTWL1N33jjjcRhEe4BAh7qbbrppr5OrsLxvffe69vmIhwnxU++7LLL/LwRu1gNCd923XVXV9ayZUsbxuctlXBcKEfMvZTCMfrX0A84jv/85z/txRdfbHGRA3y+/vprn4wO8bAhvENUvv7669E00SgcJ2Kp8p0Ujqv8EHACJEACJEACJEACJEACJEACJEACJEACtY1AmBwPAiq8cItpSMimAu5FF12UU9f5CscYpHnz5n5cJMFLsmXLlvk6xx13nK8SCseZRPFrrrnGtw0FXiRi0/WOGDHC96kPQk9lxH+OWybh+JFHHvH9jhkzJtIsFI7POOOMSFkhoSrQUSEc0b7UwnEYaqVfv35ONIZ4rHbyySd7bm3atHEXCiAwZzIKx5nIVO1+CsdVy5+jkwAJkAAJkAAJkAAJkAAJkAAJkAAJ1EICEIqRXEzFzs8++6yoFM4991zf9/Dhw3PqOxRLs4XRSOr0tttu8+M2aNDAwns2bqG3NWLfqoXCMeIJJxliAYNZixYtIn1PmjTJjwsRODTM4cwzz/TlED3jBvFTj8Xs2bN9cRjPd+jQoX4/HoTi/6mnnurKdL2vvPKK7y+cz6+//ur7CJPjQegNrRCO6CdMjpd0UUJjHK+zzjrhsKkfw7O4Tp06fo3wKIaQrjZ16lRfBq4dO3bUosRtmBzv1VdfrVAnXM+///1vV46wFxr6AiEz9PglJXDUGMf5rrfChGrJDgrHteRAc5kkQAIkQAIkQAIkQAIkQAIkQAIkQALlReCEE07wYtff/va3ok4O4SlUSHvzzTdz6nvkyJG+bf369b04l6aTNWvW2MaNG/v2Sd7OnTp1cuUdOnSI9B0Kx+3bt7ehyIqx4WGsa3rxxRcj05k/f74vQ3gEPId9/vnnEe9btId3MAReCLdq5513nm8P0VMN4RV0TIjoH3zwgZvXxIkTLcbRMgiTEJL32msv1zT0Rm7durWF2ImEhbvssotfc5gEDzF4QyuEI/rRUBKYH8JtxG2//fbzc0eSvnws9CrG49Bw7DSRIOYAL/ZsdsEFF/j54MJC3ELhH97lP/74oz300EOthh1RIRxjJcXWbtWqle8/3/XG51QbnlM4rg1HmWskARIgARIgARIgARIgARIgARIgARIoOwKI0avC4+23317U+e2xxx6u77ggWdkg8Hzee++9/bwwP4inYWzfyvp455137A477OD76Nu3r3333Xctkr716tXL7W/atKn95JNPIl2FwjHGhbev1pk7d65Lrob98KaOGzxPISQqT2whYMPDFHO58sorI2WIxXzVVVe5brC2Jk2a+PKzzz7b/vzzz64MifDQh/aLmL6bb765e96jRw+/X8uvvfZa1w5xnMPEhuuvv76rq6I05ouQGtpu4403tuAWWj4c0e/06dOtjof+77zzTi9Wo3/Eng5jUSN0h3ruhuNX9vj555/383/rrbcqVFfRfeutt84aigX8kXRQWSDRoHpua6dDhgzx5aiH9enFBVx0CVnDWxv81XDhJFyvis1azm1mAhSOM7NhCQmQAAmQAAmQaVzXOgAAHFhJREFUAAmQAAmQAAmQAAmQAAmUjAC8Jhs2bOgEsS5duhRtnMWLF3uRbfz48an6RRuEllDxLr7dcMMNbZ8+fVL1hUrw9IWQq0nwtD8IeBBckUAtbqFwjIR0KtgieSDab7TRRjabwA6Reccdd4ys4eCDD3bJ2zTGMcIrwHv19ddfd8NDkNRxdI7YIvTC448/7upAiMT6tRzH7IknnnBlnTt3dvshXA4aNMjt039PPfWUFzQbNWpksT7Y8uXLXVJA7S/cxhMZ5sqxa9eufp5hv2AHL+xmzZolliNsCrycczGIsxDl4TmeZIhpjOOPMCCZDOJ9En+8TmbNmuWb4b2iYUrQJ0JfwKv76KOPTlwPjheEd3iJhxz0McRsWuUEXCATgUYjARIgARIgARIgARIgARIgARIgARIgARJYywRGjx5tLr30UiPCoxFB0YiwWfAMRFw14q1rJJSCWbp0qRERreA+8+1g5cqVRrxRjQjTRjyAjYRQMCJQJ3Z36623Gkmo58oktIE54IADjHgqGxGZjYSAMPvss0+lfEQKM+JRa8S72YhobMSz2fW3aNEiI0KkEWHVbLXVVonjZ9uJY/Pee++5ue++++5GxE5XHeOJV7KRZHambt26FbqQ+MJGwlu4+YsYXaE87Y5cOKbtsxj1JAmg2WabbYx4qSd2h+MoYSTcsU+skOPOJUuWGBGVjQjxObZk9XwIUDjOhxrbkAAJkAAJkAAJkAAJkAAJkAAJkAAJkEARCEBYbNmypVm4cKERz1YjYR0K6lViyzoRE/09+uij5rTTTiuov7XZOC4cS9zctTk8xyIBEogRoHAcA8KnJEACJEACJEACJEACJEACJEACJEACJLA2CSxYsMAceOCBCCdq8Hj77bfPe3iJV2sk0Zvp37+/GT58eN79VEVDCsdVQZ1jkkBmAhSOM7NhCQmQAAmQAAmQAAmQAAmQAAmQAAmQAAmsFQLPPfec6datmznssMPMs88+ayRZWs7jPvnkk+b00083EnPWSOIyU0hohJwHL0KDoUOHGkli53p65JFH3FqK0C27IAESyJMAheM8wbEZCZAACZAACZAACZAACZAACZAACZAACRSTAGIBS+I4FzN28uTJZsstt0zdvSR/MxdccIE5/vjjDbyO69evn7ptuVTE/MeNG+emc8MNN5iBAweWy9Q4DxKolQQoHNfKw85FkwAJkAAJkAAJkAAJkAAJkAAJkAAJlCOBVatWuTjHEJGRGC6NIZbxZZddZpBorzrGBR4/frzzsp40aZJBjGYYEqCdcsop5sQTT3RieBoOrEMCJFBcAhSOi8uTvZEACZAACZAACZAACZAACZAACZAACZBAwQRmzZpl2rdvn6qf+fPnm4YNG5qtttoqVf1yq4TQHJ999lnitJA4MC2HxA64kwRIIG8CFI7zRseGJEACJEACJEACJEACJEACJEACJEACJEACJEACJFAzCVA4rpnHlasiARIgARIgARIgARIgARIgARIgARIgARIgARIggbwJUDjOGx0bkgAJkAAJkAAJkAAJkAAJkAAJkAAJkAAJkAAJkEDNJEDhuGYeV66KBEiABEiABEiABEiABEiABEiABEiABEiABEiABPImQOE4b3RsSAIkQAIkQAIkQAIkQAIkQAIkQAIkQAIkQAIkQAI1kwCF45p5XLkqEiABEiABEiABEiABEiABEiABEiABEqh2BFasWGHq1KljNtlkk6LO/euvvzY//fSTady4cVH7rcmd/frrr+abb74xDRs2rMnL5NqyEKBwnAUOi0iABEiABEiABEiABEiABEiABEiABEiABNYOgVGjRpl+/fqZzTbbzMyePdu0aNGioIGttWb69Olm7Nix5tlnnzVHHHGEmTp1akF91pbGq1atcvyXLFlievfube6+++7asnSuMyBA4TiAwYckQAIkQAIkQAIkQAIkQAIkQAIkQAIkQAJVQ6Bz587m+eefd4MPGzbMDBgwIO+JfPDBB6Zr165m0aJFvo+jjz6awrGnkf3BtGnTTMeOHV0leH9DSKbVPgIUjmvfMeeKSYAESIAESIAESIAESIAESIAESIAESKDsCNx1112mT58+ZosttjAzZ840e+yxR95zXL16tfNanjNnjrn66qtdPxSO0+MEv9atWxsI8JdccomBN3iSLV682Oy8885JRdxXAwhQOK4BB5FLIAESIAESIAESIAESIAESIAESIAESIIGaQGD58uVm0003dXGOi7GepUuXmh133NF1ReE4N6II9YHY0A0aNEhsuGzZMtOkSROzZs0as+666ybW4c7qTYDCcfU+fpw9CZAACZAACZAACZAACZAACZAACZAACZBABgIQorfaaitXSuE4A6Q8d/fv39/ccsstBkn0KBznCbHMm1E4LvMDxOmRAAmQAAmQAAmQAAmQAAmQAAmQAAmQAAnkR+D77793oS/QmsJxfgyTWr344ovmmGOOcaIxheMkQjVjH4XjmnEcuQoSIAESIAESIAESIAESIAESIAESIAESSEXgp59+MgjhsMMOO5iNNtrI/PLLL+bLL790zzN18N///td89dVXZsMNN/QevJnqJu1HWANYo0aNkor9PoRHQEI7hEDAWEkGofLzzz93RRqGIqke9q1cudLUq1fPFRciHH/xxRcGDLbffnvXF3jVr18/a0iNf//7345r06ZNzfrrr+/aVfZPjw3G2XjjjSurnlf5f/7zH4PYxLvvvrtrj3Xh+OD1EDd4bCMURXjc3n33XdOhQwfzr3/9y1WncBynVnOeUziuOceSKyEBEiABEiABEiABEiABEiABEiABEiCBjAQ++eQTc9FFF5mXXnrJeYqut956Ztddd3UCKATbN954o0Lb9957zwwZMsQ89dRTTkBEBYi1+++/v7n++utN8+bNK7TRHR999JG5/PLLzV//+lcnOmM/4hf37NnTDBo0yGy99dZa1Xz33XfmgQceMOPGjXPC8WuvvWYOOeQQX44HM2bMcO1ef/11J3Zj37bbbmsOPPBAc91115lWrVphV8QKEY7BZOzYsa7vb775xvWLxH377ruvgXj6yCOPmE6dOkXG+/nnn90cn3zySYP1ow8I4AcccIC5/fbbTcuWLSP18QR1Ro4cacaPH2/AG8LuOuus4+oOHjzYHHvssa7NjTfeaKZMmRJpf9VVV5kuXbq4fUguiD5CA+ejjjrK7YJYfPfdd5v77rvPHY8ff/zRPProowZjfPrpp6Z9+/bm5ZdfNhtssIF59dVXzZ133umOO/ZPnz7d9XHzzTeba665xkDgVjv44IP1oTn11FPN448/7p/rA6zn2Wefda817Fu4cKHp1auXFrvt+eefb84888zIPj6pYgLy4qSRAAmQAAmQAAmQAAmQAAmQAAmQAAmQAAnUYALiHWobN25sRbi1o0aNsnPmzLEiCFvxOrUiTVkRNiusfuLEiXaTTTaxIjBbEQvtX/7yFztmzBgrMYNdm80228xOmjSpQjvseOihh2zdunWteOXa0aNHu7YiGLt2GE8Ea7tixQrXVsRlW6dOHV+GchGOI/2KIGpFfHR1LrvsMvvKK6/YK664woo3sdsnCdysCKORNngiXr++X/E4rlCebYeIpK5t586d7bRp0+xzzz1ne/To4Xhgjs8//3ykuYivtnXr1m4t4AV+F1xwgZ+3CMiOQ9hIks9ZEXbdOCeccIIVcdWKAOyOFcbAnwi4rol4/9qpU6faXXbZxa9Jy1ABfb3wwgtWhH1fLmK8ayvispU4xH4/+sX8lKmOdccdd9hmzZpF6h1xxBGuD/y7+uqrbe/eva2I/r7Oueee6/Zhvwjf9tJLL/Vl6FeEdvvmm2/6PvBAvJjtzJkzLZigDtqIV3ekDp9UPQFc1aCRAAmQAAmQAAmQAAmQAAmQAAmQAAmQAAnUYAIQiSHQicdxZJUSfsKK124F4RgCoIq5w4cPj7T54IMP7Oabb+76g/AoXqqR8rlz5zqRUsIzOCFRC8Ub10o4BC8qiqerK5o9e7YVb+KI4BkKx+KB6+aI+YuHs3bntroulInXcaQMT/IVjjEmRHb0K97GkX7Fi9ftjwvHEKZRXzyRI/XFU9ivGeK9eEH78uOOO86VnX766X4fHoins28DcRzs1MAN4+AvFI61HMK6lqtwDNF/8uTJ/piiXEJh2D/+8Y/2nHPOseJl7I7phx9+6OoNHDjQ9xEKxzrGoYce6sslVIXu9lusR+cA0TrJIHSjjniKJxVzXxkQoHBcBgeBUyABEiABEiABEiABEiABEiABEiABEiCBUhLo3r27E+ng3Rq3G264oYJwLGEiXH14BieZhEjwwiCEP4mT66pJvGTbpk0bVyahByo07devn2/Xt2/fSHnokRwKx/BMVs9YCdsQaQOvVRUo4d0bt3yF4/nz5/t+IWyHJiEenDd1KBzDGxnzkFjAFqJzaHiuIjzqSHgIVwxvbTyH1+2SJUvCJhbexfD0Rjm2EsrDl99///1+bknCsYSj8OUqHGtjeJajT/zBw1kNIm4oaGM+Wi8f4VhiQDtvdfQhcbTtt99+q0P57W233ebGwHpo5UmAwnF5HhfOigRIgARIgARIgARIgARIgARIgARIgASKRuCSSy7xQuCFF15oEbpCTWLx2j59+uhTu2DBAl/3+OOP9/vDB/BUhseqiosSN9kVS2xcv0/i8YZN3GMIoPDA/f3vf2//+c9/RsohJGt/oXCMSvCKRXgEhFcITeIn+zZnn312WOQe5yscQ0jV0A7wkpYYv5G+EYoCntVqEGEx9+22286tDesL/+B9rWtDW9jhhx/u9km8aO0msoUnN8I/PPzww5H9EIO1r1yFYx0T7SXBYKTf8AnEeh0jH+EYfYXHU9ccjrHnnnu6UCYQ4mnlSYDJ8eRdQCMBEiABEiABEiABEiABEiABEiABEiCBmkwAyc2OPPJIv0QkppOQBubiiy82EgrB78eDYcOGGYkf7PYh+RqSsiWZhCsw4vHrikaMGGFEKHUJ1USYdvskpIXZY489kpom7hswYIBB8jWYCMcVkuNpIwmN4BKtIRmcxPTV3eass84yDz74oH+OB4Ukx0NyvlmzZvn+OnbsaCSEgwmTwWnh3nvv7RLbibd11oSBqI/jgLk2bNjQJalDQrnHHntMu6p0izWKkO7qiXBskFQutHvuucecd955bpeIzEYEdV+MRHlIjghDcjwR/31Z+GDVqlVGYlS7XSIc++R4WqdDhw7uGOE5joeI7Frkt5999pmReMwGCQMltIkRL2a3RQUk3zvssMPcawavHVqZEihPPZuzIgESIAESIAESIAESIAESIAESIAESIAESKBYBhJAQgdJ7kYpM5R4jed2TTz4ZGQYhH7Rc4xBHKvzvkzPOOMPX07AUoWfzu+++m9Qs4z4Rjn1/cY9jNELIh3HjxtmddtrJ1TvmmGPsyJEjfRsRYyv0na/HMTpCiApNBKg8sEUsY8QCVkOYDoRjQBlCeKQxeF5rn926dUvTxNcpxONYE/Fh7GyeviIc+/nl63GMCSNxnq4zfC2ddtppbj/iZdPKlwBDVZTvseHMSIAESIAESIAESIAESIAESIAESIAESKBoBCBwIp4swimomKfbSy+91EJchoWCMMJaZLKrr77a9yOey65ar169/L5nnnkmU9PE/dmE408//dTFYcZ8d955ZztnzhzXx8cff+zHK7ZwjAEw7oknnujHUF4Im/GPf/zDzSEUWU8++WS3r7J/CNOhfeWaHK46CccLFy70IT/A7IcffrAIA4K4zgibQStvAhSOy/v4cHYkQAIkQAIkQAIkQAIkQAIkQAIkQAIkUFQCSIJ23XXXuQRvKl5iO3XqVDfO9ddf70XNTp06ZRz72muv9fUkvIWrh/jF2ifi82YyCW9gJVRGpDiTcIx4zEjSh35btmwZSbRWauFYJwjvYwlR4deGuUDAVpOwE65MQjJE5qflukX8aHDG+tVLGcnvIFBnMiThC+NF5yIc40JBaGvb4xhjn3LKKZ7bLbfcYocOHeqeT5gwIZwaH5chAQrHZXhQOCUSIAESIAESIAESIAESIAESIAESIAESKCYBhJ94+umnI13C67Vdu3Ze1EMCOhgEPRV/4Rn67bffRtrpk9/97ne+3ttvv+12I3mdtoUwiiR6SfbQQw/Z1q1bR4oyCcePPPKI73PMmDGRNqFwDE/puOUbqmLx4sX2wAMPjHdnx44dazfYYAM/n/fff9/VkXjPfh+S4mWyk046yWqiuBYtWvg2/fr1S2yC8BwSJ9o+++yzvhzJ8pSxxAf2+/XB3Xff7csl3rHudtuqEI7nzZvn5wOBffvtt7fYSuzjyNz4pPwIUDguv2PCGZEACZAACZAACZAACZAACZAACZAACZBAUQkgpmz37t0r9IkYs+uss44T9iRZmStH7NswnMWoUaMqtMOO/fff37WTxHC+fNmyZVYSrnmhEF668HAO7b333rOIrQzP09D69+/v20nyNF8Uxk2Ot4FgrSIqYjjDILaqff/9974comlaQwxj9KvCcNhO4/OiXJLzuaJBgwb5cSRRnP3zn/9sERokNBV0NcxG3759fZv111/fCfZhfXglQ/DfYost7E8//eSLJk2a5NvFvbax9jPPPNOXx49dKByDTSZDSAnlmhRSAq8VLYc4D8N642vW/rt06eLrox3CnNDKnwCF4/I/RpwhCZAACZAACZAACZAACZAACZAACZAACRREAGInBM2XXnop0g/ESU0AF4qQd9xxhxf6IPKGyeDQwRtvvOHLp0+fHulz4MCBvgwiIcJLQPBFEj54FcMTedttt63gjRwm5QtDM4ShM3bbbTcLsRvzhncz+lEBs23bthZC8l577eXn8/nnn/tyeFenNRWOIZpirNA0IR9CTKhHNYRWeNLqXLDFeBCUIZJiTtiHhH5q8OSGKKxtIB4jyeCjjz5q4SmM9aAMfYQ2f/583wbrx3MY1or5an/YwgsbYjLmB+vQoYMvnzt3rtuX9O/LL7/09XCBIG6hOA0PaFxsgNd1PDSGtps1a5bvD6/DbKE5tA23VU+AwnHVHwPOgARIgARIgARIgARIgARIgARIgARIgARKSkC9ZCECjx8/3omhEPuGDx/uBD0kLgvFPIilCLmgIuQuu+zihFoIigiboIItYiXHDSIlEr5p2/g2ScCGiIqYwVoXie7UcxgeuuoVjXK0RyxhPO7Ro4dvo20Re1kNMXV1/yabbOKEZS3LtlXhGG27du1qly5d6qpDpNUQE5oQUPsBF41brGOGWzCDuBvagw8+aCEYh/XCx0cccUQF4RpevWFoDNRv3LixY7TDDjvYK6+8MtIfQmtcddVV9vXXX7dgoP2DcdwbHHND/wiBofXgQf7OO++E07ZDhgzx5aiHNbRv377CXMNGOmd4H9OqBwEKx9XjOHGWJEACJEACJEACJEACJEACJEACJEACJJA3AQjHEDUhukLo23TTTb2IiFjDmbxPR48ebbfccsuISIj28Px97LHHMs5n9erVtmfPnhHBF+2aNWtmZ86cGWkHUTMUhlEPfxA84akKu+222yziLWsZYuQ+8cQTrqxz585uP0RR9c5FaId69er5+toO29Aj2XWQ8E+FY3DStttss417XKdOHedF/Msvv1RoiXi+WKO20S08feOisTZ+5ZVXIqFB0AbezH/4wx/sqlWrtFpk+8knn9gdd9wxMg7CgiButYbEwDzhGQzBWMOK6Hx0C+5hkrrly5e714aWh9vQWxoXHSBqoxyvqY4dO1rEm85mODaoP3ny5GzVWFZGBNbBXOSg0UiABEiABEiABEiABEiABEiABEiABEiABGooAREUjQipRsRjs3DhQiPhHsyaNWtM8+bNjQjHRsS/jCuHdLRo0SLz1ltvGfEsNbvuuqtp06aNEdExYxstECHSSFgL88033xgJWWEkHrLrQ8tz2aIviY9sGjRoYHbffXc/PuYnXsluLXXr1s2ly4x1RRQ2Ih4b8S42ErfZ8Vq8eLGR2M9mv/32M+I9nLEtCkRENSLGuzmClXhsZ60vXr5GvJnN3/72N9c32mCd2QzrBtuPPvrIiGhsmjZt6qrjWIngbsRT2kgYkmxdFFy2ZMkSIwK/adSoUda+MFcR1I0I+kZE76yvt6wdsXCtEqBwvFZxczASIAESIAESIAESIAESIAESIAESIAESIAESqF0Epk2bZsQr2UjSQCMxn2vX4qvxaikcV+ODx6mTAAmQAAmQAAmQAAmQAAmQAAmQAAmQAAmQQDkTgDe1xDd23tQSR7tST+pyXkttmxuF49p2xLleEiABEiABEiABEiABEiABEiABEiABEiABEigRgSlTphiJZ2wkxrITjN9++23zwgsvmAEDBphhw4aVaFR2WwoCFI5LQZV9kgAJkAAJkAAJkAAJkAAJkAAJkAAJkAAJkEAtJNC+fXsze/bsyMoRKxr7Nt9888h+PilvAhSOy/v4cHYkQAIkQAIkQAIkQAIkQAIkQAIkQAIkQAIkUG0IDB482AwcONDPF0LyhAkTXGJBv5MPqgUBCsfV4jBxkiRAAiRAAiRAAiRAAiRAAiRAAiRAAiRAAiRQ/gSstWbWrFlmzpw5plWrVubwww8v/0lzhokEKBwnYuFOEiABEiABEiABEiABEiABEiABEiABEiABEiABEqi9BCgc195jz5WTAAmQAAmQAAmQAAmQAAmQAAmQAAmQAAmQAAmQQCIBCseJWLiTBEiABEiABEiABEiABEiABEiABEiABEiABEiABGovAQrHtffYc+UkQAIkQAIkQAIkQAIkQAIkQAIkQAIkQAIkQAIkkEiAwnEiFu4kARIgARIgARIgARIgARIgARIgARIgARIgARIggdpLgMJx7T32XDkJkAAJkAAJkAAJkAAJkAAJkAAJkAAJkAAJkAAJJBKgcJyIhTtJgARIgARIgARIgARIgARIgARIgARIgARIgARIoPYSoHBce489V04CJEACJEACJEACJEACJEACJEACJEACJEACJEACiQQoHCdi4U4SIAESIAESIAESIAESIAESIAESIAESIAESIAESqL0EKBzX3mPPlZMACZAACZAACZAACZAACZAACZAACZAACZAACZBAIgEKx4lYuJMESIAESIAESIAESIAESIAESIAESIAESIAESIAEai8BCse199hz5SRAAiRAAiRAAiRAAiRAAiRAAiRAAiRAAiRAAiSQSIDCcSIW7iQBEiABEiABEiABEiABEiABEiABEiABEiABEiCB2kuAwnHtPfZcOQmQAAmQAAmQAAmQAAmQAAmQAAmQAAmQAAmQAAkkEqBwnIiFO0mABEiABEiABEiABEiABEiABEiABEiABEiABEig9hKgcFx7jz1XTgIkQAIkQAIkQAIkQAIkQAIkQAIkQAIkQAIkQAKJBCgcJ2LhThIgARIgARIgARIgARIgARIgARIgARIgARIgARKovQQoHNfeY8+VkwAJkAAJkAAJkAAJkAAJkAAJkAAJkAAJkAAJkEAiAQrHiVi4kwRIgARIgARIgARIgARIgARIgARIgARIgARIgARqLwEKx7X32HPlJEACJEACJEACJEACJEACJEACJEACJEACJEACJJBIgMJxIhbuJAESIAESIAESIAESIAESIAESIAESIAESIAESIIHaS+D/AXKfznj6mYEYAAAAAElFTkSuQmCC;" vertex="1" parent="1">
          <mxGeometry x="140" y="230" width="582" height="214.46" as="geometry" />
        </mxCell>
        <mxCell id="CVH85tf8ODWWwL3qsKK9-26" style="edgeStyle=orthogonalEdgeStyle;rounded=0;orthogonalLoop=1;jettySize=auto;html=1;dashed=1;dashPattern=1 2;" edge="1" parent="1">
          <mxGeometry relative="1" as="geometry">
            <mxPoint x="580" y="550.0000000000001" as="targetPoint" />
            <mxPoint x="580" y="480" as="sourcePoint" />
            <Array as="points">
              <mxPoint x="600" y="480" />
              <mxPoint x="600" y="540" />
              <mxPoint x="580" y="540" />
            </Array>
          </mxGeometry>
        </mxCell>
        <mxCell id="CVH85tf8ODWWwL3qsKK9-4" value="Fertilizer Expenses" style="text;html=1;align=center;verticalAlign=middle;whiteSpace=wrap;rounded=0;" vertex="1" parent="1">
          <mxGeometry x="380" y="480" width="180" height="20" as="geometry" />
        </mxCell>
        <mxCell id="CVH85tf8ODWWwL3qsKK9-12" value="" style="edgeStyle=orthogonalEdgeStyle;rounded=0;orthogonalLoop=1;jettySize=auto;html=1;exitX=1;exitY=0.5;exitDx=0;exitDy=0;" edge="1" parent="1" source="CVH85tf8ODWWwL3qsKK9-6" target="CVH85tf8ODWWwL3qsKK9-11">
          <mxGeometry relative="1" as="geometry" />
        </mxCell>
        <mxCell id="CVH85tf8ODWWwL3qsKK9-6" value="Farmer net income" style="text;html=1;align=center;verticalAlign=middle;whiteSpace=wrap;rounded=0;" vertex="1" parent="1">
          <mxGeometry x="380" y="540" width="180" height="20" as="geometry" />
        </mxCell>
        <mxCell id="CVH85tf8ODWWwL3qsKK9-7" value="Corn Grain Yield" style="text;html=1;align=center;verticalAlign=middle;whiteSpace=wrap;rounded=0;" vertex="1" parent="1">
          <mxGeometry x="380" y="520" width="180" height="20" as="geometry" />
        </mxCell>
        <mxCell id="CVH85tf8ODWWwL3qsKK9-8" value="Production Expenses in AG" style="text;html=1;align=center;verticalAlign=middle;whiteSpace=wrap;rounded=0;" vertex="1" parent="1">
          <mxGeometry x="380" y="460" width="180" height="20" as="geometry" />
        </mxCell>
        <mxCell id="CVH85tf8ODWWwL3qsKK9-9" value="Population with social security" style="text;html=1;align=center;verticalAlign=middle;whiteSpace=wrap;rounded=0;" vertex="1" parent="1">
          <mxGeometry x="380" y="560" width="180" height="20" as="geometry" />
        </mxCell>
        <mxCell id="CVH85tf8ODWWwL3qsKK9-10" value="Less than HS" style="text;html=1;align=center;verticalAlign=middle;whiteSpace=wrap;rounded=0;" vertex="1" parent="1">
          <mxGeometry x="380" y="580" width="180" height="20" as="geometry" />
        </mxCell>
        <mxCell id="CVH85tf8ODWWwL3qsKK9-11" value="netIncomelog~ planted+ yield +&amp;nbsp; acres_irr + govPayments ( +expenses)" style="text;html=1;align=center;verticalAlign=middle;whiteSpace=wrap;rounded=0;" vertex="1" parent="1">
          <mxGeometry x="640" y="540" width="400" height="40" as="geometry" />
        </mxCell>
        <mxCell id="CVH85tf8ODWWwL3qsKK9-13" style="edgeStyle=orthogonalEdgeStyle;rounded=0;orthogonalLoop=1;jettySize=auto;html=1;dashed=1;" edge="1" parent="1" source="CVH85tf8ODWWwL3qsKK9-7" target="CVH85tf8ODWWwL3qsKK9-11">
          <mxGeometry relative="1" as="geometry">
            <mxPoint x="520" y="581" as="sourcePoint" />
            <Array as="points">
              <mxPoint x="780" y="530" />
            </Array>
          </mxGeometry>
        </mxCell>
        <mxCell id="CVH85tf8ODWWwL3qsKK9-15" value="Water Nitrate&lt;div&gt;Water Quantity&lt;/div&gt;" style="rounded=0;whiteSpace=wrap;html=1;fillColor=#d5e8d4;strokeColor=#82b366;" vertex="1" parent="1">
          <mxGeometry x="380" y="610" width="180" height="50" as="geometry" />
        </mxCell>
        <mxCell id="CVH85tf8ODWWwL3qsKK9-17" style="edgeStyle=orthogonalEdgeStyle;rounded=0;orthogonalLoop=1;jettySize=auto;html=1;entryX=0.675;entryY=0.004;entryDx=0;entryDy=0;entryPerimeter=0;dashed=1;" edge="1" parent="1" source="CVH85tf8ODWWwL3qsKK9-5" target="CVH85tf8ODWWwL3qsKK9-11">
          <mxGeometry relative="1" as="geometry">
            <Array as="points">
              <mxPoint x="910" y="510" />
            </Array>
          </mxGeometry>
        </mxCell>
        <mxCell id="CVH85tf8ODWWwL3qsKK9-19" style="edgeStyle=orthogonalEdgeStyle;rounded=0;orthogonalLoop=1;jettySize=auto;html=1;exitX=0.5;exitY=1;exitDx=0;exitDy=0;" edge="1" parent="1" source="CVH85tf8ODWWwL3qsKK9-5" target="CVH85tf8ODWWwL3qsKK9-5">
          <mxGeometry relative="1" as="geometry" />
        </mxCell>
        <mxCell id="CVH85tf8ODWWwL3qsKK9-23" style="edgeStyle=orthogonalEdgeStyle;rounded=0;orthogonalLoop=1;jettySize=auto;html=1;exitX=1;exitY=0.5;exitDx=0;exitDy=0;dashed=1;dashPattern=1 2;endArrow=none;endFill=1;startArrow=none;startFill=0;entryX=1;entryY=0.5;entryDx=0;entryDy=0;" edge="1" parent="1" source="CVH85tf8ODWWwL3qsKK9-8" target="CVH85tf8ODWWwL3qsKK9-4">
          <mxGeometry relative="1" as="geometry">
            <mxPoint x="380" y="470" as="sourcePoint" />
            <mxPoint x="570" y="550" as="targetPoint" />
            <Array as="points">
              <mxPoint x="580" y="470" />
              <mxPoint x="580" y="490" />
            </Array>
          </mxGeometry>
        </mxCell>
      </root>
    </mxGraphModel>
  </diagram>
</mxfile>
